<?xml version="1.0" encoding="utf-8"?>
<!-- Generator: Adobe Illustrator 24.3.0, SVG Export Plug-In . SVG Version: 6.00 Build 0)  -->
<svg version="1.1" id="Layer_1" xmlns="http://www.w3.org/2000/svg" xmlns:xlink="http://www.w3.org/1999/xlink" x="0px" y="0px"
	 viewBox="0 0 351.2 351.5" style="enable-background:new 0 0 351.2 351.5;" xml:space="preserve">
<style type="text/css">
	.st0{fill:#588998;}
</style>
<g>
	<path class="st0" d="M60.8,286.9C22,245.1,7.9,196,20.1,140.5C44.7,28.5,178.6-20.9,270.5,47.5c1,0.7,1.9,1.6,2.9,2.4
		c-1.6,0.7-2.8,0.7-4,0.7c-6.1,0-12.2,0-18.3,0c-3.4,0-6.1,1.2-7.8,4.3c-3,5.5,1.1,11.6,7.9,11.7c14,0.1,27.9,0,41.9,0
		c7.5,0,10.3-2.8,10.4-10.4c0-13.5,0-26.9,0-40.4c0-1.4,0-2.8-0.3-4.1c-0.8-3.8-4-6.3-7.7-6.3c-3.7,0-6.9,2.6-7.7,6.4
		c-0.3,1.4-0.3,3-0.3,4.5c0,7.7,0,15.4,0,23.9c-1.5-1.1-2.3-1.6-3.1-2.2c-53.1-39.7-111-48.6-173-25.2C44.6,37.9-0.1,103.9,0,175
		c0,35.5,9.4,68.3,29.2,97.7c6.4,9.6,14.4,18.1,21.9,27c2.9,3.4,6.8,3.7,10.1,1.7c3.1-1.8,4.7-5.7,3.4-9.1
		C63.9,290.3,62.3,288.5,60.8,286.9z"/>
	<path class="st0" d="M108.2,212c0.1-5.3-3.8-8.1-11.1-8.1c-9.1,0-18.1,0-27.2,0c-0.1-0.3-0.2-0.6-0.3-0.9c2.2-1.6,4.3-3.3,6.5-4.9
		c4.4-3.1,9.1-5.7,13.1-9.2c5.3-4.6,11-9.3,14.8-15.1c8.6-13,3.9-29.9-9.4-37.5c-15.7-9.1-37.1-2.8-45.3,13.5
		c-0.8,1.6-1.3,3.6-1.2,5.3c0.3,3.5,2.5,6,6,6.7c3.8,0.8,6.9-0.6,8.8-4c2.5-4.5,5.9-7.6,10.9-9.1c6.4-1.9,13.8,0.5,16.7,5.2
		c3,4.8,1.9,11-3.6,16.1c-3.8,3.6-8.2,6.5-12.3,9.7c-5.4,4-11,7.7-16.2,12c-5.3,4.4-9.2,9.8-10.2,16.9c-1.1,7.6,2,11.4,9.8,11.4
		c13.1,0,26.2,0,39.3,0C104.3,219.9,108.1,217.1,108.2,212z"/>
	<path class="st0" d="M176.3,193.8c4.3-0.4,7.4-3.9,7.3-8c-0.1-4.2-3.2-7.5-7.6-7.7c-2.2-0.1-4.4,0-6.9,0c0-1.9,0-3.3,0-4.6
		c0-11.8,0-23.7,0-35.5c0-5.9-1.5-8.6-5.4-9.9c-3.9-1.3-6.6-0.1-10.2,4.3c-1.4,1.7-2.8,3.5-4.2,5.2c-11.2,14-22.4,28-33.7,42
		c-2.4,3-3.9,6.2-2,9.9c1.8,3.5,4.9,4.5,8.7,4.5c8.3-0.1,16.7,0,25,0c1.8,0,3.7,0,5.8,0c0,7.8-0.1,15.1,0,22.4
		c0,3.7,1.9,6.4,5.5,7.6c3.5,1.2,6.6,0.2,8.6-2.7c1.1-1.6,1.6-3.9,1.7-5.9c0.2-7,0.1-13.9,0.1-21.5
		C171.8,193.9,174.1,194,176.3,193.8z M153,177.8c-5,0-9.8,0-15.4,0c5.2-6.5,10.1-12.6,15.4-19.3C153,165.4,153,171.4,153,177.8z"/>
	<path class="st0" d="M273.5,213.5c9.5-22.9,19.1-45.7,28.6-68.6c3.2-7.7-0.2-12.8-8.5-12.9c-12.2,0-24.4,0-36.7,0
		c-1.1,0-2.3,0.1-3.3,0.3c-3.8,0.8-6.4,3.9-6.4,7.7c0,3.8,2.4,7,6.3,7.7c1.7,0.3,3.5,0.3,5.2,0.4c8.1,0,16.1,0,24.6,0
		c-0.6,1.7-1,2.8-1.4,4c-3.3,7.9-6.6,15.8-9.9,23.8c-4.5,10.8-9.1,21.6-13.5,32.4c-2.3,5.7,0.8,11.1,6.5,11.6
		C268.6,220.2,271.6,218,273.5,213.5z"/>
	<path class="st0" d="M230.7,132.9c0.7-3.7-0.5-6.7-3.7-8.6c-3-1.8-6.3-1.9-8.7,0.5c-1.8,1.8-3.1,4.5-3.6,7.1
		c-4.6,22.1-8.9,44.2-13.4,66.3c-1.5,7.6-3,15.1-4.5,23.1c0.6,1.4,1,3.1,2,4.5c1.9,2.6,4.7,3.6,7.9,2.9c3.8-0.8,5.6-3.5,6.3-7
		c2.7-13.3,5.3-26.6,8-39.9C224.2,165.4,227.5,149.1,230.7,132.9z"/>
	<path class="st0" d="M338.1,219.7c-3.9-1.5-8.3,0.2-9.9,4.2c-2.2,5.4-4.3,10.9-6.1,16.4c-1.6,5,2.5,9.9,7.8,9.8
		c3.1-0.1,5.8-1.6,7-4.7c2.2-5.3,4.2-10.6,6-16.1C344.3,225.3,342,221.2,338.1,219.7z"/>
	<path class="st0" d="M239.3,322.6c-5.3,1.8-10.5,3.8-15.7,5.8c-3.2,1.3-4.7,3.9-4.8,7c0.1,5.6,4.9,9.4,10.1,7.8
		c5.5-1.7,10.8-3.7,16.1-6c4.1-1.8,5.6-6.1,4.1-10C247.5,323.4,243.5,321.3,239.3,322.6z"/>
	<path class="st0" d="M329.9,134.2c0.9,5.4,2.1,10.7,3.5,16c1.1,4.3,5,6.7,9,5.9c4.3-0.9,7.1-4.6,6.4-9.1c-0.9-5.5-2.1-11-3.5-16.4
		c-1-3.8-4.1-5.8-7.8-5.8C332.6,124.9,329,129,329.9,134.2z"/>
	<path class="st0" d="M317.5,262.7c-3.4-1.4-6.5-0.7-8.8,2c-3.7,4.5-7.2,9.2-10.5,14c-2,2.9-1.7,6.2,0.5,9c2.2,2.9,5.3,3.6,8.7,2.6
		c3.7-1.1,14.9-16.1,15.1-20.8C322.4,266.8,320.8,264.1,317.5,262.7z"/>
	<path class="st0" d="M89.5,311.2c-5,0.2-7.5,2-8.6,5.4c-1.1,3.4-0.4,6.8,2.6,8.7c5.3,3.3,10.7,6.3,16.4,8.9
		c3.2,1.5,6.4,0.4,8.7-2.5c2.2-2.8,2.9-6.4,0.5-9C103.4,316.8,95.6,314.3,89.5,311.2z"/>
	<path class="st0" d="M351.2,181.1c0.1-4.9-2.8-8.5-7.2-8.9c-4.6-0.4-8.3,2.7-8.8,7.7c-0.5,5.2-0.8,10.4-1,15.6
		c-0.2,4.7,2.9,8,7.3,8.3c4.6,0.3,8-2.7,8.5-7.5c0.4-3.7,0.7-7.4,1-11.2c-0.1,0-0.1,0-0.2,0C351,183.8,351.2,182.5,351.2,181.1z"/>
	<path class="st0" d="M285.9,298.4c-2.6-1.9-5.7-1.3-8.4,0.6c-4.1,3-8.2,6.1-12.2,9.2c-4.1,3.1-4.9,7.8-2.1,11.5
		c2.6,3.5,7.3,4.3,11.3,1.5c4.3-3,8.6-6,12.5-9.5c1.7-1.5,2.6-3.9,4.4-6.7C289.4,302.5,288,299.9,285.9,298.4z"/>
	<path class="st0" d="M320.4,107.6c1.9,3,5.1,3.9,8.6,2.8c3.4-1.1,5.5-4,5.5-7.9c0-0.2,0.1-0.8-0.1-1.2c-3.3-6.1-6.3-12.4-10.1-18.2
		c-2-3-6.4-3-9.5-1c-3.2,2-4.8,6.1-3.1,9.4C314.3,97,317.2,102.4,320.4,107.6z"/>
	<path class="st0" d="M150.5,333.9c-5.8-1.5-11.6-2.8-17.5-3.8c-4.2-0.7-7.6,2.1-8.5,6.1c-0.9,4,1.1,8,5.2,9.1
		c5.8,1.6,11.6,2.9,17.5,3.7c4.7,0.7,8.5-3.1,8.5-8.1C155.6,337.7,154,334.9,150.5,333.9z"/>
	<path class="st0" d="M196.1,334.7c-5.8,0.1-11.7,0.5-17.5,1.1c-4.4,0.5-7,4.2-6.7,8.5c0.3,4.1,3.6,7.2,8,7.3c1.6,0,3.2-0.2,4.9-0.3
		c0,0,0,0.1,0,0.1c4-0.4,8-0.6,11.9-1.1c4.3-0.6,7-4.3,6.7-8.5C203.1,337.9,200.1,334.6,196.1,334.7z"/>
</g>
</svg>
