<?xml version="1.0" encoding="utf-8"?>
<!-- Generator: Adobe Illustrator 24.3.0, SVG Export Plug-In . SVG Version: 6.00 Build 0)  -->
<svg version="1.1" id="Layer_1" xmlns="http://www.w3.org/2000/svg" xmlns:xlink="http://www.w3.org/1999/xlink" x="0px" y="0px"
	 viewBox="0 0 100 100" style="enable-background:new 0 0 100 100;" xml:space="preserve">
<style type="text/css">
	.st0{fill-rule:evenodd;clip-rule:evenodd;fill:#A48C6B;}
</style>
<g>
	<path class="st0" d="M28.7,27.7c-0.5,0-0.8,0.4-1.2,0.6c-3.6,2.1-9.2,4.8-13,6.2l-3.8,1.4c-0.8,0.2-0.8,0-0.8,1
		c0.1,2.1,0.2,4.5,0.6,6.4c0.2,1,0.3,2.1,0.5,3c0.3,1.4,0.9,4.3,1.3,5.6c0.1,0.4,0.3,1,0.4,1.4c1.3,5.1,4.3,11.7,6.9,15.7
		c1.4,2.2,4.1,6,6,7.9c2.8,2.8,4,4.1,7.3,6.6c0.7,0.5,1.3,1,2,1.5c0.7,0.5,1.4,1,2.1,1.4c0.8,0.5,3.7,2.3,4.5,2.4l0-32.4
		c-2.5-0.2-17.2,0.2-17.9-0.1c-0.1-0.1-0.1-0.1-0.1-0.5l1.1-6.4c0.1-0.5,0.1-0.5,0.2-0.9c0.1-0.7,0.1-1.4,0.5-1.8l3.3-3.6
		c1.5-1.8,1.8-1.4,1.6-3c-0.1-0.7-0.2-1.3-0.3-2.1C29.8,36.3,28.7,28.8,28.7,27.7"/>
	<path class="st0" d="M0.2,28.7v5c0.1,0.1,0.1,0,0.1,0.3c0,0.1,0,0.2,0,0.4c0.1,3.2,0.9,11.9,1.7,14.9l0.6,2.5
		c1.3,7,5.1,15.7,8.7,21.6c5.4,8.9,13.6,16.8,22.6,21.9l3.1,1.7c0.3,0.2,0.7,0.5,1.1,0.5c0.6,0,0.1,0,0.4,0.1c0,0,0.3,0.1,0.4,0.1
		l1.3,0.6c0.6,0.3,0.3,0,0.7,0.5l1.3,0c0.3-0.3,0.8-0.7,1.3-0.6c0.6-0.1,4.6-2.3,5.3-2.7c1.8-1,3.3-2,4.9-3.1
		c8.5-5.9,13.8-12,19.1-20.9c0.5-0.8,2.6-4.5,2.7-5.3c-0.7,0-0.7,0.1-1.2,0.2c-0.4,0.1-0.9,0.1-1.3,0.1c-0.8,0-1.5,0.2-2.4,0.2
		l-1.7,3.1c-0.7,1.2-1.2,2-1.9,3c-1.3,2-2.7,3.9-4.2,5.6c-5.5,6.5-11.6,11.1-19.1,15c-0.5,0.3-1.1,0.5-1.7,0.8
		c-0.6,0.3-1.1,0-1.7-0.3c-6.4-3.3-12-6.9-17.1-12.1c-5.3-5.5-7.7-9.3-11.1-15.7c-1.5-2.9-3-7.4-4.1-10.5c-0.6-1.8-1-3.9-1.5-5.8
		l-1.1-6.3c-0.3-1.8-1-9.9-0.8-11.2c0.3-0.1,1.2-0.3,1.6-0.4c2.8-0.7,7.9-2.6,10.3-3.6c0.9-0.4,1.8-0.9,2.7-1.3
		c3.5-1.5,10.3-5.7,13.7-8.1c0.4-0.3,0.8-0.5,1.2-0.8l4.4-3.4c2.6-2.2,1.3-1,2.9-3c0.3-0.4,0.5-0.7,0.9-1.1c0.6-0.7,1.2-1.5,1.8-2
		c-0.4-0.4-0.8-0.8-1.3-1.3c-1.3-1.4-1.1-1.6-2.3-0.2c-0.4,0.4-0.6,0.6-1,1c-6.3,5.9-14.8,11.8-22.7,15.5c-2.8,1.3-5.6,2.4-8.6,3.5
		C6.9,27.2,1.5,28.6,0.2,28.7"/>
	<path class="st0" d="M99.8,35.8v-8.1c-0.2-0.2-0.2-0.4-0.3-0.7c-0.2-1.7-0.4-2-0.8-3.4l-1.3-3.7c-1.7-3.9-3.8-6.8-6.8-9.8
		c-1.1-1.1-2.4-2.2-3.7-3.1c-3.3-2.1-5.2-3.2-9-4.4c-0.2-0.1-0.5-0.1-0.7-0.2l-3.5-0.7c-4.2-0.5-9.6-0.3-13.5,1
		c-2.6,0.9-4.6,1.7-6.9,3.1c-0.7,0.4-1.3,0.8-2,1.3c-1.2,0.9-2.6,2-3.6,3.1c-2.5,2.6-3.9,4.5-5.7,7.7c-0.4,0.8-1.9,3.9-1.9,4.8
		c1.3,0.1,3.1,0.1,4.3,0.1c0.6-1.2,1-2.4,1.7-3.6c2-3.4,4.2-6.1,7.4-8.5c1-0.7,2.1-1.4,3.2-2c0.9-0.5,2.7-1.3,3.6-1.6
		c3.3-1,5.1-1.5,8.9-1.5c12.8,0,23.7,9.5,25.8,21.5c0.3,1.7,0.5,2.8,0.5,4.8c0,4.3-0.6,5.5-1.6,9l-0.8,1.9c-0.7,1.7-1.9,3.6-2.9,4.9
		C85.7,54,77.8,58.3,69.6,58.3c-2.6,0-2.6-0.2-4.8-0.4c-1.7-0.2-6.1-1.8-6.3-1.8l-6.5,0c-1.7,0-1,0-1.3,0.2c1.2,0.7,2.7,1.9,4.8,3
		c2.8,1.4,6.4,2.6,9.8,3c12.6,1.6,24.5-4.5,30.5-15.2c0.6-1.1,1.1-2.2,1.7-3.4c0.8-1.8,1.4-4,1.7-6C99.4,37.2,99.6,36,99.8,35.8"/>
	<path class="st0" d="M48.7,38.5l-0.1,0.2c0,0,0,0.1,0,0.1l-0.7,1.1c0,0,0,0,0,0.1L47,41.1c-1.2,1.6-0.8,0.8-1.2,2.6
		c-0.1,0.4-0.1,0.6-0.2,1.1c-0.1,0.7-0.2,0.5-0.2,1.1c1.3,0.1,7.3-0.2,7.9,0.1c0.2,0.2-0.2,1.6-0.3,1.9c-0.1,0.6,0,0.8-0.3,1.2
		c0,0.9-0.5,2-0.5,3c0.6,0.1,1.4,0,2.1,0c2.5,0,2,0.4,2.3-1.7c0.1-0.4,0.3-0.9,0.4-1.3c0.2-0.9,0.2-2.9,0.8-3l1.1,0
		c1.6,0,1.2-0.1,1.4-1l0.4-1.8c0.3-1.4-0.3-0.8-2.3-0.9c0-1.3,1.1-5.5,1.3-7.5c0.1-0.5,0.2-1.3,0.3-1.9l0.7-3.7
		c0.2-1,0.3-0.6,0.2-1.8c0-0.4-3.9-0.2-4.5-0.1L48.7,38.5z M50.2,42.2c0-0.4,1.2-1.9,1.4-2.3l4.4-6.9c0.1,0.3-0.9,4-1,4.5
		c-0.2,1-0.6,4.1-1,4.7L50.2,42.2z"/>
	<path class="st0" d="M32.9,28.3c0.1,1.2,0.3,2.3,0.4,3.6c0.5-0.1,0.7-0.5,1.8-0.7c0.7-0.1,1.2-0.3,2.1-0.2c1.4,0.3,2.1,1.1,2.1,2.7
		c0,2.5-2,5.1-3.2,6.6c-1.5,2-4.9,5.6-6.9,7.8c-0.6,0.6-0.6,0.7-0.7,1.8c-0.1,0.6-0.4,1.5-0.2,2c0.2,0.2,9.2,0.1,9.8,0.1
		c3.9,0,3.1,0.7,3.6-2.2c0.1-0.7,0.6-2,0.1-2.1c-0.5-0.1-6.2,0-6.8,0c0-0.4,0.3-0.5,0.6-0.8l3.2-3.5c0.4-0.5,0.8-0.9,1.2-1.4
		c2.1-2.5,2.9-3.9,3.7-6.9c1.5-5.8-2.5-8.9-7-8.1c-0.9,0.2-3,0.6-3.8,1.2C33,28.2,33,28.2,32.9,28.3"/>
	<path class="st0" d="M68.8,16.6c-0.4,0.7-0.5,0.2-0.5,1c-0.1,3.2,0.1,6.7,0,9.9c0,0.1,0,0.3,0,0.4c-0.1,0.3,0,0.1-0.1,0.2l-0.7,0.3
		c-0.8,0.2-2,1.7-2.1,3.1c-0.4,4.4,4.7,5.9,7,3.2c0.7-0.8,0.7-1.3,0.9-1.6c1.4-0.1,9.2,0.1,9.6-0.1c0.9-0.2,0.9-1.6,0.1-2l-9.8,0
		c-0.2-0.3,0-0.1-0.1-0.3c-0.1-0.1,0,0.1-0.1-0.2c0,0-0.1-0.1-0.1-0.1c-0.1-0.3-0.1-0.1-0.1-0.4c-0.2-0.1-0.2,0-0.2-0.3
		c-0.1,0-0.1,0.2-0.1-0.2c-0.2,0.1-0.2,0.1-0.1-0.1c-0.2,0.1-0.1,0.1-0.1-0.1c-0.2,0-0.1,0.1-0.1-0.1c-0.2,0.1-0.2,0.1-0.1-0.1
		c-0.2,0.1-0.1,0.1-0.1-0.1c-0.2,0.1-0.2,0.1-0.2-0.1c-0.2,0.1-0.2,0.1-0.1-0.1c-0.2,0-0.1,0.1-0.1-0.1c-0.3,0-0.3-0.1-0.6-0.2
		c-0.2-0.1-0.1,0-0.3-0.1c-0.1-0.1-0.1-0.1-0.2-0.2l-0.3-0.1c-0.2-1.9,0-4.7,0-6.7C70.3,17.1,70.8,16.3,68.8,16.6 M71.1,32.6
		c-0.2,0.8-1.2,1.6-2.4,1.2c-0.6-0.2-1.6-1.2-1.1-2.4C68.4,29.1,71.8,30.1,71.1,32.6z"/>
	<path class="st0" d="M89.9,21.2c0.6-0.9-0.4-2.1-1.6-1.4c-0.5,0.3-1.9,1.1-2.1,1.4c-0.5,0.9,0.5,2,1.6,1.4
		C88.3,22.3,89.7,21.6,89.9,21.2"/>
	<path class="st0" d="M78.5,49.9c0,0.2,1.2,2.2,1.3,2.4c0.7,0.9,2.2,0.2,1.9-0.9c-0.1-0.3-1.1-2.1-1.3-2.4
		C79.7,48.2,78.3,48.6,78.5,49.9"/>
	<path class="st0" d="M56.9,12.5c0,0.2,1.1,2.1,1.3,2.3c0.6,0.8,2.1,0.5,1.9-0.9c-0.1-0.3-1.1-2.1-1.3-2.3
		C58.1,10.8,56.7,11.3,56.9,12.5"/>
	<path class="st0" d="M86,42.4c0.2,0.7,1.2,1.1,2,1.6c1.6,0.9,2.1-0.3,2-1c-0.2-0.7-1.4-1.2-2-1.6C86.4,40.5,85.9,41.8,86,42.4"/>
	<path class="st0" d="M90.1,30.9c-0.9,0-1.6,0.3-1.4,1.4c0.2,0.9,1.1,0.8,2.1,0.8c1,0,1.9,0.2,2.2-0.7
		C93.5,30.6,91.4,30.9,90.1,30.9"/>
	<path class="st0" d="M48.7,21c0.1,0.5,1.5,1.1,2.1,1.5c1.2,0.7,2.1,0.1,1.9-1.1c-0.1-0.5-0.5-0.7-1-0.9c-0.4-0.2-0.6-0.4-1.1-0.6
		C49.7,19.3,48.3,19.5,48.7,21"/>
	<path class="st0" d="M78.9,13.1l-0.2,0.4c-0.1,0.4-0.2,0.4-0.2,0.8c0,0.4,0.1,0.4,0.2,0.8c0.2,0,0.2-0.1,0.1,0.1
		c0.9,0.2,1.1,0.6,1.9-0.7c0.1-0.1,0.1-0.2,0.2-0.3l0.1-0.1c0.1-0.1,0.1-0.1,0.2-0.1c-0.1-0.2-0.2-0.2,0.1-0.1
		c-0.1-0.2-0.1-0.2,0.1-0.1l0.1-0.2c-0.1-0.4,0-0.2,0.2-0.3c0-0.3,0.1-0.4,0.2-0.6c0-0.3-0.1-0.2-0.1-0.6c-0.2-0.2-0.4-0.4-0.7-0.5
		c-0.9-0.2-1.2,0.5-1.4,0.9C79.3,12.7,79.3,12.8,78.9,13.1"/>
	<path class="st0" d="M68.6,51.5C68.7,51.7,68.7,51.6,68.6,51.5c-0.1,0.3,0,0.2-0.2,0.2c-0.1,0.9-0.2,0.2-0.2,2.3
		c0,0.8,0.1,1.5,0.8,1.6c1.8,0.2,1-2.2,1.2-3.6c-0.1,0-0.1,0.1-0.1-0.2c-0.2,0-0.2,0.1-0.1-0.1c-0.2,0.1-0.1,0.1-0.1-0.1
		c-0.2,0-0.1,0.1-0.1-0.1l-0.1,0l-1,0C68.8,51.5,69,51.5,68.6,51.5"/>
	<path class="st0" d="M68.7,8.4c0.1,0.2,0.1,0.1-0.1,0.1c0.1,0.2,0.1,0.2-0.1,0.1c0,0.3,0.1,0.2-0.1,0.2c0.1,0.2,0.1,0.2-0.1,0.1
		c-0.1,1.7-0.4,3.6,1,3.6c0.7,0,0.8-0.3,1-0.5c-0.1-0.8-0.1-2.3,0-3.1c-0.1,0-0.1,0.2-0.1-0.2c-0.2,0-0.2,0.1-0.1-0.1
		C70,8.6,70,8.6,70.1,8.4c-0.2,0.1-0.2,0.1-0.2-0.1l0,0C69.1,8.2,69.4,8.3,68.7,8.4"/>
	<path class="st0" d="M68.8,16.6c-0.2,0.1-0.3,0.1-0.5,0.3c-0.2,0.2-0.1,0.3-0.1,0.6c0,0.5,0,1,0,1.5c0,2.6,0.1,6.8,0,9.1
		c-0.2,0-0.2-0.1-0.4,0.1c-0.5,0.2,0,0-0.2,0.2l0.7-0.3c0.2-0.1,0.1,0.1,0.1-0.2c0-0.1,0-0.3,0-0.4c0-3.2-0.1-6.7,0-9.9
		C68.3,16.8,68.4,17.2,68.8,16.6c2-0.2,1.5,0.6,1.5,4.8c0,2-0.2,4.8,0,6.7l0.3,0.1c0.1,0.1,0.1,0.1,0.2,0.2c0.1,0.1,0.1,0.1,0.3,0.1
		c0.3,0.1,0.3,0.2,0.6,0.2c0,0.2-0.1,0.1,0.1,0.1c-0.1,0.2-0.1,0.2,0.1,0.1c-0.1,0.2-0.1,0.1,0.2,0.1C72,29.1,72,29.1,72.2,29
		c-0.1,0.2-0.1,0.2,0.1,0.1c-0.1,0.2-0.1,0.1,0.1,0.1c-0.1,0.2-0.1,0.2,0.1,0.1c-0.1,0.2-0.1,0.2,0.1,0.1c0,0.3,0,0.1,0.1,0.2
		c0,0.3,0,0.2,0.2,0.3c0,0.4,0,0.1,0.1,0.4c0,0,0.1,0.1,0.1,0.1c0.1,0.2,0.1,0.1,0.1,0.2c0,0.3-0.2,0,0.1,0.3l9.8,0
		c-0.2-0.2,0.2,0-0.4-0.2l-9.1,0c-0.4-0.1-0.2-0.1-0.4-0.2c0.1-0.6-0.2-0.5-0.2-0.7c0,0,0,0-0.1-0.1c-0.1-0.5,0-0.2-0.2-0.3
		c0-0.3,0-0.1-0.1-0.2c0.1-0.2,0.1-0.2-0.1-0.1c0.1-0.2,0.1-0.2-0.1-0.1c0.1-0.2,0.1-0.2-0.1-0.1c0.1-0.2,0.1-0.2-0.1-0.1
		c0.1-0.2,0.1-0.2-0.1-0.1c0.1-0.2,0.1-0.1-0.2-0.1c0-0.2,0.1-0.1-0.1-0.1c0.1-0.2,0.1-0.2-0.1-0.1c-0.1-0.1,0.1,0-0.2-0.2
		c-0.2-0.1,0,0-0.3-0.2c-0.2-0.1-0.3-0.2-0.6-0.2l-0.2-10.5c-0.1-1-1.1-1.6-1.6-1.3C68.6,16.5,68.9,16.3,68.8,16.6"/>
	<path class="st0" d="M52.8,49c0.3-0.4,0.2-0.5,0.3-1.2c0.1-0.3,0.5-1.7,0.3-1.9c-0.6-0.3-6.6,0-7.9-0.1c-0.1-0.6,0.1-0.4,0.2-1.1
		c0.1-0.5,0.1-0.6,0.2-1.1c0.4-1.8,0.1-0.9,1.2-2.6l0.7-1.1c0,0,0,0,0-0.1l0.7-1.1c0,0,0-0.1,0-0.1l0.1-0.2l-0.4,0.4
		c-0.1,0.1-0.2,0.3-0.3,0.4c-0.1,0.2-0.1,0.3-0.3,0.5c0,0,0,0,0,0.1L46.9,41c-0.7,1-1.1,1.5-1.3,2.7c-0.3,1.6-0.6,2.3,0.2,2.4
		c1.8,0.1,5.5-0.2,7.5,0L53,47.9C52.9,48.4,52.8,48.2,52.8,49"/>
	<path class="st0" d="M68.7,8.4c-0.2-0.1-0.2-0.2-0.1,0.1c-0.2-0.1-0.2-0.1-0.1,0.1c-0.1,0.1-0.1-0.2-0.1,0.2
		c-0.2-0.1-0.2-0.1-0.1,0.1c-0.2,0.2,0-0.4-0.2,0.3c0,0.8-0.2,2.5,0.2,3c0.6,0.8,2,0.4,1.9-0.3c0.1-0.1,0.1,0,0.2-0.3l0-2.6
		c-0.1-0.4,0-0.1-0.2-0.2c0.1-0.4,0-0.2-0.1-0.2c0.1-0.2,0.1-0.2-0.1-0.1c0.1-0.2,0.1-0.2-0.1-0.1c0.1-0.2,0.1-0.1-0.2-0.1
		c0,0.2,0,0.2,0.2,0.1C70,8.6,70,8.6,70.2,8.5c-0.1,0.2-0.1,0.2,0.1,0.1c0,0.4,0,0.2,0.1,0.2c-0.1,0.8-0.1,2.3,0,3.1
		c-0.2,0.3-0.3,0.5-1,0.5c-1.4,0-1.1-1.9-1-3.6c0.2,0.1,0.1,0.1,0.1-0.1c0.2,0,0.1,0.2,0.1-0.2c0.2,0.1,0.2,0.1,0.1-0.1
		C68.8,8.5,68.8,8.6,68.7,8.4c0.7,0,0.4-0.1,1.2,0c0,0,0-0.1-0.1-0.1C69.6,7.9,69,8,68.7,8.4"/>
	<path class="st0" d="M68.6,51.5C68.5,51.5,68.5,51.4,68.6,51.5c-0.3,0.1-0.2,0-0.2,0.2c-0.4,0.1-0.3,0.7-0.3,1.2
		c0,0.9-0.1,1.9,0.3,2.4c0.7,0.9,2.1,0.6,2.2-0.9l0-2c0-0.1,0-0.1-0.1-0.2C70.4,52,70.4,52,70.3,52c0.1-0.4,0-0.2-0.1-0.2
		c0.1-0.2,0.1-0.1-0.1-0.1c0-0.2,0.1-0.2-0.1-0.1c0.1-0.2,0.1-0.1-0.1-0.1c0,0.2,0,0.2,0.1,0.1c-0.1,0.2-0.1,0.2,0.1,0.1
		c-0.1,0.2-0.1,0.1,0.1,0.1c0,0.3,0,0.2,0.1,0.2c-0.2,1.4,0.6,3.9-1.2,3.6c-0.8-0.1-0.8-0.8-0.8-1.6c0-2,0.1-1.4,0.2-2.3
		C68.6,51.7,68.6,51.8,68.6,51.5C68.7,51.6,68.7,51.7,68.6,51.5c0.4,0,0.2,0,0.2-0.1l1,0c-0.1-0.1,0.2-0.2-0.5-0.2l-0.4,0.1
		c0,0-0.1,0-0.1,0.1C68.5,51.3,68.7,51.4,68.6,51.5"/>
	<path class="st0" d="M78.9,13.1c0.3-0.2,0.3-0.3,0.6-0.8c0.2-0.4,0.6-1.1,1.4-0.9c0.3,0.1,0.5,0.3,0.7,0.5c0,0.4,0.1,0.3,0.1,0.6
		c0,0.2-0.1,0.3-0.2,0.6c-0.2,0.1-0.2-0.1-0.2,0.3l-0.1,0.2c-0.2-0.1-0.2-0.1-0.1,0.1c-0.2-0.1-0.1-0.1-0.1,0.1
		c-0.1,0.1-0.1,0-0.2,0.1L80.9,14c-0.1,0.1-0.1,0.2-0.2,0.3c-0.8,1.3-0.9,0.9-1.9,0.7c0.1-0.2,0.1-0.1-0.1-0.1
		c-0.1-0.4-0.2-0.3-0.2-0.8c0-0.4,0.1-0.4,0.2-0.8c-0.2,0.1-0.4,0.1-0.4,0.8c0,0.2,0,0.3,0.1,0.5c0.1,0.3,0.2,0.2,0.3,0.3
		c-0.1,0.2-0.1,0.2,0.1,0.1c0.2,0.3,0.4,0.4,0.9,0.3c0.3,0,0.5-0.2,0.7-0.3c0.2-0.2,0.7-1,0.7-1.3c0.2,0.1,0.1,0.1,0.1-0.1
		c0.2,0.1,0.2,0.1,0.1-0.1c0.1,0,0.1,0.2,0.1-0.2c0.2-0.1,0.2,0,0.2-0.3c0.4-0.4,0.5-1,0.1-1.2l0-0.3c-0.6-0.4-1.2-0.6-1.8,0
		C79.7,11.6,79,12.8,78.9,13.1"/>
</g>
</svg>
