<?xml version="1.0" encoding="utf-8"?>
<!-- Generator: Adobe Illustrator 24.3.0, SVG Export Plug-In . SVG Version: 6.00 Build 0)  -->
<svg version="1.1" id="Layer_1" xmlns="http://www.w3.org/2000/svg" xmlns:xlink="http://www.w3.org/1999/xlink" x="0px" y="0px"
	 viewBox="0 0 100 100" style="enable-background:new 0 0 100 100;" xml:space="preserve">
<style type="text/css">
	.st0{clip-path:url(#SVGID_2_);fill:url(#SVGID_3_);}
</style>
<g>
	<defs>
		<path id="SVGID_1_" d="M99.3,71.3c-0.6-1-4.9-3.1-4.9-3.1c-1.7-0.8-14.2-7-16.6-7.8c-2-0.7-4.3-1.5-6.3,1.5
			c-1.6,2.3-6.1,7.6-7.6,9.3c-1,1.2-2,1.6-4.3,0.4c-0.4-0.2-11.5-5-19.2-11.8c-6.8-6-11.6-13.5-13.3-16.4c-1.1-1.8-0.4-2.6,0.9-3.9
			c0.8-0.8,4.3-5.1,4.6-5.5c0.6-0.9,1.6-2.9,1.6-2.9c1-2,0.4-3.8-0.2-4.9c-0.4-0.8-6.8-16.3-7.4-17.7c-1.8-4.4-3.8-4.6-5.7-4.5
			C20,4,11.5,4.1,8.8,7L8.3,7.5c-2.7,2.8-8.2,8.7-8.2,20c0,2.6,0.4,5.3,1.3,8.4c1.6,5.5,4.7,11.4,8.7,16.9c0.1,0.1,6.3,8.7,9.4,12.3
			c9.8,11.3,20.9,19.7,32.2,24.1c14.3,5.6,20.4,6.9,23.9,6.9c1.5,0,4.7-0.8,5.4-0.8c4.4-0.4,14.8-5.8,17-11.9
			C100.1,77.6,100.1,72.5,99.3,71.3"/>
	</defs>
	<clipPath id="SVGID_2_">
		<use xlink:href="#SVGID_1_"  style="overflow:visible;"/>
	</clipPath>
	<linearGradient id="SVGID_3_" gradientUnits="userSpaceOnUse" x1="30.0592" y1="-12.3539" x2="70.7239" y2="113.9341">
		<stop  offset="0" style="stop-color:#A48C6B"/>
		<stop  offset="1" style="stop-color:#6F5437"/>
	</linearGradient>
	<rect x="0.1" y="3.9" class="st0" width="100" height="92.2"/>
</g>
</svg>
