<?xml version="1.0" encoding="utf-8"?>
<!-- Generator: Adobe Illustrator 24.3.0, SVG Export Plug-In . SVG Version: 6.00 Build 0)  -->
<svg version="1.1" id="Layer_1" xmlns="http://www.w3.org/2000/svg" xmlns:xlink="http://www.w3.org/1999/xlink" x="0px" y="0px"
	 viewBox="0 0 100 100" style="enable-background:new 0 0 100 100;" xml:space="preserve">
<style type="text/css">
	.st0{fill-rule:evenodd;clip-rule:evenodd;fill:#A48C6B;}
	.st1{fill-rule:evenodd;clip-rule:evenodd;fill:#FFFFFF;}
</style>
<g>
	<path class="st0" d="M47.7,10.7c0.4-0.7,0.4-0.4,1.2-0.7c2.8-1.2,4.5-5.4,1.5-8.4c-4.1-4.1-9,0.5-8.7,2.7c0.1,1.2,1.4,1.3,2-0.1
		c1.6-3.6,5.7-2.3,6.2,0.4c0.5,2.6-1.1,3.4-3.1,3.9C45,9,46,11.2,45.7,14.7c-1.2,0.8-14,5-16.8,5.5c-2.7,0.5-4.3,0.5-5.5,1.7
		c-2.5,2.5-5,4.7-7.5,7.1c-1.3,1.2-2.4,2.5-3.7,3.7c-1.2,1.1-2.5,2.2-3.6,3.6l14.4,14.5c0.5-0.3,0.7-0.6,1.1-1
		c0.4,2.8-0.2,10.6,0.1,12.8c0.2,1.2,10.8,17.6,11.8,25.9c0.6,5.4-2.6,9.3-5.3,11.3c2.1,0.3,38.7,0.2,39.5-0.1l0.2-49.3
		c0.6,0.5,0.2,0.4,1.1,0.7l14.4-14.5c-0.5-1-14-14.1-15-15c-1-0.9-4.5-1.2-6.1-1.5c-2.4-0.5-16.2-4.9-17-5.4L47.7,10.7z M31.3,21.7
		c2.7-0.5,14.4-5.3,15.7-5.1c1.8,0.3,12.2,4.2,15.8,5.1c-0.9,10.2-15.1,18.8-26.2,9.5C34.6,29.6,31.5,25.8,31.3,21.7z M53.6,61.2
		l0-10.7c1.8-0.2,6.5,0.9,10.8-0.1l0.1,10.9c-0.5,0.4-5,2.8-5.4,2.8C58.5,64,54.3,61.7,53.6,61.2z"/>
	<path class="st0" d="M23.7,66.6c-2.1,2.4-8.3,14.7-9.5,17.5c-1.5,3.6-2,7.5,0.2,10.8c2,2.9,4.7,4.8,8.5,4.9
		c4.5,0.1,6.8-1.7,9.1-4.6c4.8-6.1-2.4-17.8-5.8-24.5C25.6,69.8,24.3,67.3,23.7,66.6"/>
	<path class="st0" d="M74.6,86.8c0.1,1.3,0.8,1,2,1.4c3.6,1.2,6.9,4,8.6,7.3c0.6,1.2,1.3,3.7,1.8,4.4c1.3-0.1,1-0.7,1.4-1.9
		c0.7-2.2,2.1-4.5,3.7-6c1.9-1.7,3.6-3,6.2-3.7c1.1-0.3,1.6-0.3,1.7-1.3c-0.4-0.4-3.4-1.3-4.5-1.9c-1.1-0.6-3-2-3.7-2.7
		c-1.4-1.6-2.8-3.8-3.5-6c-0.4-1.4-0.2-1.8-1.5-1.8c-1.3,3.5-2,5.8-4.2,8.1C79.7,85.5,75.5,86.1,74.6,86.8"/>
	<path class="st0" d="M1.8,42.7c0.3,0.9,0.9,1.2,1.8,2.1l12.6,12.7c1-0.4,1.9-1.6,2.7-2.4c0.8-0.8,1.9-1.6,2.4-2.6
		c-0.7-1-5.9-6.1-7.2-7.3c-1.3-1.2-2.3-2.4-3.6-3.6c-0.7-0.7-2.9-3.2-3.7-3.5C5,39.5,3.5,41.2,1.8,42.7"/>
	<path class="st0" d="M10.2,4.9c-0.7,0.8-1,2.5-1.6,3.6c-0.6,1.1-1.4,2.2-2.2,2.9c-4.4,4.1-6,2.2-6.4,4C0.6,16,4.2,16.5,6.6,19
		c2.4,2.6,2.5,4.6,3.1,5.8c0.4,0.9,0,0.4,0.7,0.6c1.2-0.6,0.3-2.7,3.8-6.4c3.4-3.5,6.3-2.7,6.4-3.8c0.1-0.9-1.6-0.8-3.6-1.9
		C11.1,10.2,11.7,5.6,10.2,4.9"/>
	<polygon class="st0" points="92.3,43 87.4,38.1 72.7,52.8 77.6,57.7 	"/>
	<path class="st0" d="M70.1,11.3c0.4,1,0,0.8,1.3,1.2c1.6,0.5,3.6,1.7,4.7,2.7c0.6,0.6,1.5,1.8,2.1,2.9c0.5,0.9,1,3.2,1.6,3.3
		c1.3,0.2,1.2-6.5,8.4-8.8c0.9-0.3,1.2-0.2,1.6-1c-0.4-0.8-0.6-0.7-1.6-1C86.4,10,84.9,9,83.7,7.7c-1-1-1.3-1.5-2.1-2.9
		c-1.4-2.7-0.4-3-2.1-3c-0.9,2.5-1.6,4.6-3.4,6.1C72,11.3,71.2,10.2,70.1,11.3"/>
	<path class="st1" d="M53.6,61.2c0.7,0.5,4.9,2.8,5.5,2.8c0.4,0,4.9-2.4,5.4-2.8l-0.1-10.9c-4.3,1-9-0.1-10.8,0.1L53.6,61.2z"/>
</g>
</svg>
