<?xml version="1.0" encoding="UTF-8"?>
<!DOCTYPE svg PUBLIC "-//W3C//DTD SVG 1.1//EN" "http://www.w3.org/Graphics/SVG/1.1/DTD/svg11.dtd">
<!-- Creator: CorelDRAW 2020 (64-Bit) -->
<svg xmlns="http://www.w3.org/2000/svg" xml:space="preserve" width="95.0231mm" height="9.6237mm" version="1.1" style="shape-rendering:geometricPrecision; text-rendering:geometricPrecision; image-rendering:optimizeQuality; fill-rule:evenodd; clip-rule:evenodd"
viewBox="0 0 9490.38 961.16"
 xmlns:xlink="http://www.w3.org/1999/xlink"
 xmlns:xodm="http://www.corel.com/coreldraw/odm/2003">
 <defs>
  <style type="text/css">
   <![CDATA[
    .fil0 {fill:white;fill-rule:nonzero}
   ]]>
  </style>
 </defs>
 <g id="Layer_x0020_1">
  <metadata id="CorelCorpID_0Corel-Layer"/>
  <g id="_2254974137856">
   <path class="fil0" d="M762.91 17.58l0 0c6.17,-5.29 14.99,-6.84 26.46,-4.63 11.46,2.21 20.49,6.39 27.12,12.56 6.61,6.17 6.39,13.22 -0.67,21.16 -82,91.7 -159.16,187.59 -231.46,287.68 -72.31,100.08 -141.75,202.15 -208.32,306.19 -66.58,104.05 -132.93,208.1 -199.06,312.15 -4.41,7.05 -12.78,9.7 -25.14,7.94 -12.34,-1.77 -23.14,-6.39 -32.4,-13.89 -9.26,-7.49 -11.69,-15.21 -7.27,-23.15 67.01,-118.15 139.1,-232.79 216.25,-343.89 77.15,-111.1 157.62,-219.56 241.39,-325.37 -17.64,14.11 -35.72,28.43 -54.23,42.99 -18.52,14.55 -37.47,29.32 -56.87,44.3 -31.75,24.69 -63.49,48.94 -95.23,72.75 -31.75,23.81 -63.93,47.62 -96.56,71.43 -22.92,16.75 -47.17,35.49 -72.75,56.21 -25.57,20.72 -52.9,34.17 -82,40.34 -16.76,3.53 -34.18,3.31 -52.25,-0.66 -18.07,-3.97 -32.84,-13 -44.3,-27.12 -14.99,-20.28 -19.18,-41.89 -12.56,-64.81 6.61,-22.93 14.33,-44.53 23.14,-64.81 27.34,-62.61 59.31,-123.24 95.9,-181.87 36.59,-58.64 76.49,-114.41 119.7,-167.31 5.29,-6.17 13.22,-8.16 23.81,-5.95 10.58,2.2 19.4,6.83 26.45,13.88 7.06,7.05 7.5,14.11 1.33,21.16 -35.28,44.97 -68.12,91.48 -98.54,139.54 -30.42,48.05 -57.54,98.1 -81.35,150.12 -4.4,8.82 -11.47,22.7 -21.16,41.66 -9.7,18.96 -16.98,37.48 -21.82,55.55 -4.85,18.08 -2.87,30.64 5.95,37.7 7.05,5.28 16.53,5.51 28.43,0.66 11.91,-4.85 24.91,-12.34 39.02,-22.48 14.1,-10.15 27.12,-20.06 39.02,-29.76 11.91,-9.7 21.38,-17.2 28.43,-22.48 95.23,-68.78 188.47,-140.2 279.74,-214.27 91.27,-74.08 181.87,-148.58 271.81,-223.53zm48.94 445.73l0 0c10.59,-3.53 18.3,-1.32 23.15,6.61 4.85,7.94 5.51,15.43 1.99,22.49 -2.65,3.53 -10.15,7.93 -22.49,13.22 -12.34,5.29 -27.12,10.81 -44.3,16.53 -17.2,5.73 -33.73,10.81 -49.6,15.21 -3.53,19.41 -16.32,39.24 -38.36,59.53 -22.04,20.27 -50.26,29.53 -84.65,27.78 -22.92,-0.88 -42.54,-7.94 -58.86,-21.16 -16.31,-13.22 -27.34,-29.1 -33.07,-47.62 -5.72,-18.52 -4.4,-36.59 3.98,-54.22 8.37,-17.64 25.79,-30.86 52.24,-39.68 0,0 0,0 0,0 0,0 0.44,0 1.32,0 0.89,0 5.51,0.66 13.89,1.98 8.38,1.33 13.44,6.84 15.21,16.54 1.76,5.29 0.66,10.8 -3.31,16.53 -3.98,5.73 -8.16,11.69 -12.56,17.86 -5.29,7.05 -9.04,13.89 -11.25,20.5 -2.21,6.61 -0.66,13.44 4.62,20.49 7.06,8.82 15.88,13.45 26.46,13.89 10.59,0.44 20.5,-1.99 29.76,-7.27 9.26,-5.29 15.21,-11.47 17.86,-18.52 0,0 0,-0.23 0,-0.67 0,-0.44 0,-0.66 0,-0.66 0,0 -3.76,-1.99 -11.25,-5.95 -7.5,-3.97 -15.21,-9.7 -23.15,-17.19 -7.93,-7.5 -12.56,-16.32 -13.88,-26.46 -1.33,-10.14 4.18,-20.94 16.53,-32.41 11.47,-10.58 25.58,-14.99 42.33,-13.22 11.47,1.77 22.7,6.17 33.73,13.22 11.03,7.06 19.62,16.32 25.8,27.78 21.15,-2.64 41,-7.05 59.52,-13.22 18.52,-6.17 31.3,-10.14 38.35,-11.91zm345.23 21.16l0 0c8.82,-6.17 16.75,-6.39 23.8,-0.66 7.06,5.73 10.15,12.56 9.26,20.5 -0.88,4.4 -6.61,11.46 -17.19,21.15 -10.59,9.71 -23.37,20.06 -38.36,31.09 -14.99,11.02 -29.97,21.38 -44.96,31.08 -14.99,9.7 -26.46,16.31 -34.4,19.84 -11.46,4.41 -26.23,7.94 -44.3,10.59 -18.08,2.65 -35.5,1.76 -52.24,-2.65 -16.76,-4.41 -27.78,-14.55 -33.07,-30.42 -9.7,7.05 -18.3,13.22 -25.79,18.52 -7.5,5.29 -13.89,8.82 -19.19,10.58 -11.46,5.29 -27.34,9.04 -47.61,11.25 -20.28,2.21 -39.02,0.22 -56.22,-5.95 -17.19,-6.17 -27.11,-19.84 -29.75,-41 -1.77,-21.16 2.43,-39.9 12.56,-56.22 10.14,-16.31 20.72,-29.31 31.74,-39.01 11.03,-9.71 16.54,-14.55 16.54,-14.55 5.28,-4.41 13.88,-4.41 25.79,0 11.91,4.4 17.86,12.34 17.86,23.81 0,6.17 -3.31,13.44 -9.92,21.82 -6.62,8.38 -13.23,16.53 -19.85,24.47 -6.61,7.93 -9.7,14.77 -9.26,20.49 0.44,5.73 7.72,8.6 21.82,8.6 15.87,0 33.29,-5.06 52.24,-15.21 18.97,-10.14 35.06,-22.7 48.28,-37.69 11.47,-14.11 22.04,-26.46 31.74,-37.03 9.71,-10.59 14.55,-15.87 14.55,-15.87 5.29,-5.29 13.89,-5.51 25.8,-0.66 11.91,4.84 17.85,13 17.85,24.47 0,6.17 -3.31,13.44 -9.92,21.82 -6.61,8.37 -13.22,16.53 -19.84,24.47 -6.61,7.93 -9.7,14.76 -9.26,20.49 0.44,5.73 7.71,8.6 21.82,8.6 19.4,0 39.46,-5.51 60.18,-16.53 20.71,-11.03 39.23,-22.71 55.55,-35.06 16.31,-12.34 27.56,-20.71 33.73,-25.13zm333.31 6.61l0 0c8.81,-6.17 16.97,-6.39 24.46,-0.66 7.5,5.73 10.37,12.56 8.6,20.5 -0.88,4.4 -6.61,11.46 -17.19,21.16 -10.59,9.7 -23.37,20.27 -38.36,31.74 -14.99,11.47 -29.76,21.82 -44.3,31.08 -14.55,9.26 -26.24,15.65 -35.06,19.18 -11.47,5.29 -27.34,9.04 -47.61,11.25 -20.28,2.21 -39.02,0 -56.22,-6.61 -17.19,-6.61 -27.12,-20.06 -29.75,-40.34 -0.89,-9.7 -0.22,-18.96 1.98,-27.78 2.21,-8.82 5.07,-16.76 8.6,-23.81 -7.94,0.88 -16.09,1.54 -24.47,1.99 -8.38,0.44 -16.97,0.66 -25.79,0.66 -37.03,-0.89 -60.84,-7.94 -71.43,-21.16 -10.58,-13.22 -13.66,-25.58 -9.26,-37.03 3.53,-9.7 11.03,-17.64 22.49,-23.81 11.46,-6.17 24.25,-7.49 38.35,-3.97 11.47,3.53 18.3,11.46 20.5,23.8 2.21,12.34 -2.43,19.85 -13.89,22.49 0,0 5.29,0.22 15.88,0.66 10.58,0.44 23.36,0 38.35,-1.32 14.99,-1.33 29.54,-3.31 43.65,-5.95 4.41,-4.41 8.16,-7.94 11.25,-10.59 3.09,-2.65 4.62,-3.97 4.62,-3.97 5.29,-4.41 13.89,-4.41 25.8,0 11.91,4.4 17.86,12.34 17.86,23.81 0,6.17 -3.31,13.44 -9.93,21.82 -6.61,8.38 -13.22,16.53 -19.84,24.47 -6.61,7.93 -9.7,14.77 -9.26,20.49 0.44,5.73 7.72,8.6 21.82,8.6 18.52,0 38.14,-5.51 58.86,-16.53 20.72,-11.03 39.46,-22.71 56.22,-35.06 16.75,-12.34 27.78,-20.71 33.07,-25.13zm855.76 333.31l0 0c9.7,3.53 20.27,9.48 31.74,17.86 11.47,8.38 14.99,16.97 10.59,25.79 -1.77,4.41 -12.56,8.6 -32.41,12.56 -19.84,3.98 -44.52,7.72 -74.07,11.25 -29.54,3.53 -60.18,6.39 -91.92,8.6 -31.74,2.21 -61.28,3.75 -88.62,4.62 -52.02,0.89 -97.44,-1.54 -136.24,-7.27 -38.79,-5.73 -71.64,-11.47 -98.54,-17.2 -26.9,-5.72 -49.6,-8.59 -68.11,-8.59 -11.47,-0.89 -21.82,0.66 -31.08,4.62 -9.26,3.97 -17.42,8.6 -24.47,13.89l-30.42 51.59c0,0 -4.18,0.66 -12.56,1.98 -8.38,1.33 -18.3,-0.44 -29.76,-5.29 -11.47,-4.84 -21.6,-17.41 -30.42,-37.69 -7.05,-17.64 -5.06,-33.29 5.95,-46.95 11.03,-13.67 27.56,-24.03 49.6,-31.08l451.03 -716.88c-19.41,6.17 -39.68,12.34 -60.84,18.52 -21.16,6.17 -42.77,11.46 -64.81,15.87 -10.59,2.65 -19.63,0.44 -27.12,-6.61 -7.5,-7.06 -12.12,-13.23 -13.89,-18.52 -1.76,-4.41 0,-7.72 5.29,-9.93 5.29,-2.2 7.94,-3.31 7.94,-3.31 23.8,-7.05 49.6,-16.09 77.37,-27.12 27.78,-11.02 54,-22.04 78.7,-33.06 24.69,-11.03 45.18,-20.5 61.5,-28.44 16.31,-7.93 25.79,-12.34 28.43,-13.22 2.65,-0.88 9.26,-0.22 19.84,1.99 10.59,2.2 18.97,6.61 25.14,13.22 6.17,6.61 3.97,15.21 -6.62,25.79 -6.17,6.17 -16.31,13.23 -30.42,21.16l-458.95 755.24c0.88,0 1.76,0.22 2.64,0.66 0.89,0.44 1.77,0.66 2.65,0.66 29.1,6.17 63.71,12.12 103.83,17.86 40.12,5.73 82.23,9.92 126.31,12.56 44.09,2.65 85.98,2.21 125.66,-1.32 59.95,-6.17 105.37,-12.34 136.23,-18.52 30.86,-6.17 51.15,-7.94 60.84,-5.29zm328.02 -339.92l0 0c8.82,-6.17 16.75,-6.39 23.8,-0.66 7.06,5.73 10.15,12.56 9.26,20.5 -0.88,4.4 -6.61,11.46 -17.19,21.15 -10.59,9.71 -23.37,20.06 -38.36,31.09 -14.99,11.02 -29.97,21.38 -44.96,31.08 -14.99,9.7 -26.46,16.31 -34.4,19.84 -11.46,4.41 -26.23,7.94 -44.3,10.59 -18.08,2.65 -35.5,1.76 -52.24,-2.65 -16.76,-4.41 -27.78,-14.55 -33.07,-30.42 -9.7,7.05 -18.3,13.22 -25.79,18.52 -7.5,5.29 -13.89,8.82 -19.19,10.58 -11.46,5.29 -27.34,9.04 -47.61,11.25 -20.28,2.21 -39.02,0.22 -56.22,-5.95 -17.19,-6.17 -27.11,-19.84 -29.75,-41 -1.77,-21.16 2.43,-39.9 12.56,-56.22 10.14,-16.31 20.72,-29.31 31.74,-39.01 11.03,-9.71 16.54,-14.55 16.54,-14.55 5.28,-4.41 13.88,-4.41 25.79,0 11.91,4.4 17.86,12.34 17.86,23.81 0,6.17 -3.31,13.44 -9.92,21.82 -6.62,8.38 -13.23,16.53 -19.85,24.47 -6.61,7.93 -9.7,14.77 -9.26,20.49 0.44,5.73 7.72,8.6 21.82,8.6 15.87,0 33.29,-5.06 52.24,-15.21 18.97,-10.14 35.06,-22.7 48.28,-37.69 11.47,-14.11 22.04,-26.46 31.74,-37.03 9.71,-10.59 14.55,-15.87 14.55,-15.87 5.29,-5.29 13.89,-5.51 25.8,-0.66 11.91,4.84 17.85,13 17.85,24.47 0,6.17 -3.31,13.44 -9.92,21.82 -6.61,8.37 -13.22,16.53 -19.84,24.47 -6.61,7.93 -9.7,14.76 -9.26,20.49 0.44,5.73 7.71,8.6 21.82,8.6 19.4,0 39.46,-5.51 60.18,-16.53 20.71,-11.03 39.23,-22.71 55.55,-35.06 16.31,-12.34 27.56,-20.71 33.73,-25.13zm210.3 10.59l0 0c8.82,-7.06 16.98,-7.72 24.47,-1.99 7.5,5.73 10.37,12.56 8.6,20.5 -0.88,6.17 -8.6,15.65 -23.14,28.43 -14.55,12.78 -30.87,25.57 -48.94,38.35 -18.08,12.79 -32.85,21.83 -44.31,27.12 -9.7,3.53 -22.26,6.39 -37.69,8.6 -15.43,2.21 -30.64,1.55 -45.63,-1.99 -14.99,-3.53 -27.78,-11.02 -38.36,-22.48 -10.58,6.17 -20.93,13 -31.08,20.5 -10.14,7.49 -19.18,15.21 -27.12,23.14 -3.53,4.41 -8.82,3.76 -15.87,-1.98 -7.05,-5.73 -8.82,-13.01 -5.29,-21.82 5.29,-12.34 14.11,-24.25 26.46,-35.72 12.34,-11.47 25.13,-21.6 38.36,-30.42 -7.06,-24.69 -8.16,-45.63 -3.31,-62.83 4.84,-17.19 7.27,-25.79 7.27,-25.79 5.29,-4.4 14.11,-6.61 26.46,-6.61 12.34,0 19.4,7.93 21.15,23.81 0.89,5.28 1.33,9.7 1.33,13.22 0,3.53 0.44,9.26 1.32,17.2 4.41,-3.54 11.69,-8.16 21.82,-13.89 10.15,-5.73 20.72,-11.47 31.75,-17.2 11.02,-5.72 19.62,-9.48 25.79,-11.24 4.41,-1.77 11.47,-0.44 21.16,3.97 9.7,4.4 12.78,9.7 9.26,15.87 -5.29,7.94 -12.12,14.77 -20.5,20.5 -8.37,5.73 -16.53,11.25 -24.47,16.53 -7.93,6.17 -14.32,11.25 -19.18,15.21 -4.84,3.98 -11.69,9.04 -20.49,15.21 6.17,2.65 13.66,3.98 22.48,3.98 18.52,0 35.72,-3.98 51.59,-11.91 15.87,-7.94 29.53,-16.76 41,-26.46 11.47,-9.7 19.85,-16.31 25.13,-19.84zm367.71 -10.59l0 0c8.82,-6.17 16.75,-6.39 23.8,-0.66 7.06,5.73 10.15,12.56 9.26,20.5 -0.88,4.4 -6.61,11.46 -17.19,21.15 -10.59,9.71 -23.37,20.06 -38.36,31.09 -14.99,11.02 -29.97,21.38 -44.96,31.08 -14.99,9.7 -26.46,16.31 -34.4,19.84 -11.46,4.41 -26.23,7.94 -44.3,10.59 -18.08,2.65 -35.5,1.76 -52.24,-2.65 -16.76,-4.41 -27.78,-14.55 -33.07,-30.42 -9.7,7.05 -18.3,13.22 -25.79,18.52 -7.5,5.29 -13.89,8.82 -19.19,10.58 -11.46,5.29 -27.34,9.04 -47.61,11.25 -20.28,2.21 -39.02,0.22 -56.22,-5.95 -17.19,-6.17 -27.11,-19.84 -29.75,-41 -1.77,-21.16 2.43,-39.9 12.56,-56.22 10.14,-16.31 20.72,-29.31 31.74,-39.01 11.03,-9.71 16.54,-14.55 16.54,-14.55 5.28,-4.41 13.88,-4.41 25.79,0 11.91,4.4 17.86,12.34 17.86,23.81 0,6.17 -3.31,13.44 -9.92,21.82 -6.62,8.38 -13.23,16.53 -19.85,24.47 -6.61,7.93 -9.7,14.77 -9.26,20.49 0.44,5.73 7.72,8.6 21.82,8.6 15.87,0 33.29,-5.06 52.24,-15.21 18.97,-10.14 35.06,-22.7 48.28,-37.69 11.47,-14.11 22.04,-26.46 31.74,-37.03 9.71,-10.59 14.55,-15.87 14.55,-15.87 5.29,-5.29 13.89,-5.51 25.8,-0.66 11.91,4.84 17.85,13 17.85,24.47 0,6.17 -3.31,13.44 -9.92,21.82 -6.61,8.37 -13.22,16.53 -19.84,24.47 -6.61,7.93 -9.7,14.76 -9.26,20.49 0.44,5.73 7.71,8.6 21.82,8.6 19.4,0 39.46,-5.51 60.18,-16.53 20.71,-11.03 39.23,-22.71 55.55,-35.06 16.31,-12.34 27.56,-20.71 33.73,-25.13zm333.31 6.61l0 0c8.81,-6.17 16.97,-6.39 24.46,-0.66 7.5,5.73 10.37,12.56 8.6,20.5 -0.88,4.4 -6.61,11.46 -17.19,21.16 -10.59,9.7 -23.37,20.27 -38.36,31.74 -14.99,11.47 -29.76,21.82 -44.3,31.08 -14.55,9.26 -26.24,15.65 -35.06,19.18 -11.47,5.29 -27.34,9.04 -47.61,11.25 -20.28,2.21 -39.02,0 -56.22,-6.61 -17.19,-6.61 -27.12,-20.06 -29.75,-40.34 -0.89,-9.7 -0.22,-18.96 1.98,-27.78 2.21,-8.82 5.07,-16.76 8.6,-23.81 -7.94,0.88 -16.09,1.54 -24.47,1.99 -8.38,0.44 -16.97,0.66 -25.79,0.66 -37.03,-0.89 -60.84,-7.94 -71.43,-21.16 -10.58,-13.22 -13.66,-25.58 -9.26,-37.03 3.53,-9.7 11.03,-17.64 22.49,-23.81 11.46,-6.17 24.25,-7.49 38.35,-3.97 11.47,3.53 18.3,11.46 20.5,23.8 2.21,12.34 -2.43,19.85 -13.89,22.49 0,0 5.29,0.22 15.88,0.66 10.58,0.44 23.36,0 38.35,-1.32 14.99,-1.33 29.54,-3.31 43.65,-5.95 4.41,-4.41 8.16,-7.94 11.25,-10.59 3.09,-2.65 4.62,-3.97 4.62,-3.97 5.29,-4.41 13.89,-4.41 25.8,0 11.91,4.4 17.86,12.34 17.86,23.81 0,6.17 -3.31,13.44 -9.93,21.82 -6.61,8.38 -13.22,16.53 -19.84,24.47 -6.61,7.93 -9.7,14.77 -9.26,20.49 0.44,5.73 7.72,8.6 21.82,8.6 18.52,0 38.14,-5.51 58.86,-16.53 20.72,-11.03 39.46,-22.71 56.22,-35.06 16.75,-12.34 27.78,-20.71 33.07,-25.13zm198.4 0l0 0c8.82,-6.17 16.97,-6.39 24.47,-0.66 7.49,5.73 10.36,12.56 8.59,20.5 -0.88,4.4 -6.61,11.46 -17.19,21.16 -10.59,9.7 -23.37,20.27 -38.36,31.74 -14.99,11.47 -29.75,21.82 -44.3,31.08 -14.55,9.26 -26.24,16.09 -35.06,20.5 -11.46,4.4 -27.34,7.71 -47.61,9.92 -20.28,2.21 -39.02,0.22 -56.21,-5.95 -17.2,-6.17 -27.12,-19.84 -29.76,-41 -1.77,-21.16 2.43,-39.9 12.56,-56.22 10.14,-16.31 20.72,-29.09 31.74,-38.35 11.03,-9.26 16.54,-13.89 16.54,-13.89 5.28,-5.28 13.88,-5.73 25.79,-1.32 11.91,4.4 17.86,12.34 17.86,23.81 0,6.17 -3.31,13.44 -9.92,21.82 -6.61,8.38 -13.23,16.75 -19.85,25.13 -6.61,8.38 -9.7,15.21 -9.26,20.5 0.44,5.28 7.72,7.93 21.82,7.93 18.52,0 38.14,-5.51 58.87,-16.53 20.71,-11.03 39.45,-22.71 56.21,-35.06 16.75,-12.34 27.78,-20.71 33.07,-25.13zm-62.17 -96.55l0 0c-12.34,17.63 -25.79,26.01 -40.34,25.13 -14.55,-0.88 -24.47,-6.61 -29.76,-17.2 -3.53,-7.05 -3.31,-14.1 0.67,-21.16 3.97,-7.05 8.37,-13 13.22,-17.85 4.85,-4.85 7.27,-7.28 7.27,-7.28 19.41,-9.7 35.5,-9.92 48.28,-0.66 12.78,9.26 13,22.26 0.66,39.02zm338.6 68.77l0 0c10.59,-3.53 18.3,-1.32 23.15,6.61 4.85,7.94 5.51,15.43 1.99,22.49 -2.65,3.53 -10.15,7.93 -22.49,13.22 -12.34,5.29 -27.12,10.81 -44.3,16.53 -17.2,5.73 -33.73,10.81 -49.6,15.21 -3.53,19.41 -16.32,39.24 -38.36,59.53 -22.04,20.27 -50.26,29.53 -84.65,27.78 -22.92,-0.88 -42.54,-7.94 -58.86,-21.16 -16.31,-13.22 -27.34,-29.1 -33.07,-47.62 -5.72,-18.52 -4.4,-36.59 3.98,-54.22 8.37,-17.64 25.79,-30.86 52.24,-39.68 0,0 0,0 0,0 0,0 0.44,0 1.32,0 0.89,0 5.51,0.66 13.89,1.98 8.38,1.33 13.44,6.84 15.21,16.54 1.76,5.29 0.66,10.8 -3.31,16.53 -3.98,5.73 -8.16,11.69 -12.56,17.86 -5.29,7.05 -9.04,13.89 -11.25,20.5 -2.21,6.61 -0.66,13.44 4.62,20.49 7.06,8.82 15.88,13.45 26.46,13.89 10.59,0.44 20.5,-1.99 29.76,-7.27 9.26,-5.29 15.21,-11.47 17.86,-18.52 0,0 0,-0.23 0,-0.67 0,-0.44 0,-0.66 0,-0.66 0,0 -3.76,-1.99 -11.25,-5.95 -7.5,-3.97 -15.21,-9.7 -23.15,-17.19 -7.93,-7.5 -12.56,-16.32 -13.88,-26.46 -1.33,-10.14 4.18,-20.94 16.53,-32.41 11.47,-10.58 25.58,-14.99 42.33,-13.22 11.47,1.77 22.7,6.17 33.73,13.22 11.03,7.06 19.62,16.32 25.8,27.78 21.15,-2.64 41,-7.05 59.52,-13.22 18.52,-6.17 31.3,-10.14 38.35,-11.91zm345.23 21.16l0 0c8.82,-6.17 16.75,-6.39 23.8,-0.66 7.06,5.73 10.15,12.56 9.26,20.5 -0.88,4.4 -6.61,11.46 -17.19,21.15 -10.59,9.71 -23.37,20.06 -38.36,31.09 -14.99,11.02 -29.97,21.38 -44.96,31.08 -14.99,9.7 -26.46,16.31 -34.4,19.84 -11.46,4.41 -26.23,7.94 -44.3,10.59 -18.08,2.65 -35.5,1.76 -52.24,-2.65 -16.76,-4.41 -27.78,-14.55 -33.07,-30.42 -9.7,7.05 -18.3,13.22 -25.79,18.52 -7.5,5.29 -13.89,8.82 -19.19,10.58 -11.46,5.29 -27.34,9.04 -47.61,11.25 -20.28,2.21 -39.02,0.22 -56.22,-5.95 -17.19,-6.17 -27.11,-19.84 -29.75,-41 -1.77,-21.16 2.43,-39.9 12.56,-56.22 10.14,-16.31 20.72,-29.31 31.74,-39.01 11.03,-9.71 16.54,-14.55 16.54,-14.55 5.28,-4.41 13.88,-4.41 25.79,0 11.91,4.4 17.86,12.34 17.86,23.81 0,6.17 -3.31,13.44 -9.92,21.82 -6.62,8.38 -13.23,16.53 -19.85,24.47 -6.61,7.93 -9.7,14.77 -9.26,20.49 0.44,5.73 7.72,8.6 21.82,8.6 15.87,0 33.29,-5.06 52.24,-15.21 18.97,-10.14 35.06,-22.7 48.28,-37.69 11.47,-14.11 22.04,-26.46 31.74,-37.03 9.71,-10.59 14.55,-15.87 14.55,-15.87 5.29,-5.29 13.89,-5.51 25.8,-0.66 11.91,4.84 17.85,13 17.85,24.47 0,6.17 -3.31,13.44 -9.92,21.82 -6.61,8.37 -13.22,16.53 -19.84,24.47 -6.61,7.93 -9.7,14.76 -9.26,20.49 0.44,5.73 7.71,8.6 21.82,8.6 19.4,0 39.46,-5.51 60.18,-16.53 20.71,-11.03 39.23,-22.71 55.55,-35.06 16.31,-12.34 27.56,-20.71 33.73,-25.13zm50.26 -35.72l0 0c-2.65,2.65 -4.85,5.29 -6.61,7.94 -1.77,6.17 -1.77,11.03 0,14.55 0.88,0.88 1.32,1.32 1.32,1.32 2.65,6.17 7.5,16.32 14.55,30.42 7.05,14.11 13.89,29.76 20.5,46.95 6.61,17.2 11.47,33.73 14.55,49.61 3.09,15.87 1.98,28.21 -3.32,37.03 -8.81,14.1 -24.47,24.91 -46.95,32.4 -22.48,7.5 -48.28,5.07 -77.37,-7.27 -7.05,-2.65 -13.89,-7.05 -20.5,-13.22 -6.61,-6.17 -10.36,-11.03 -11.25,-14.55 -3.53,-9.7 -2.64,-18.74 2.65,-27.12 5.29,-8.38 11.69,-15.87 19.19,-22.48 7.49,-6.61 13.44,-11.25 17.85,-13.89l0 0 19.85 -15.87 0 0 22.48 -17.2c-3.53,-7.05 -7.05,-14.32 -10.58,-21.82 -3.53,-7.49 -6.61,-14.77 -9.26,-21.82 0,0 -1.99,-4.84 -5.95,-14.55 -3.97,-9.7 -5.95,-19.84 -5.95,-30.42 -0.88,-9.7 2.87,-20.71 11.25,-33.06 8.37,-12.34 23.14,-17.64 44.3,-15.88 7.05,0.89 13.66,2.65 19.85,5.29 8.81,1.77 18.52,8.82 29.09,21.16 10.58,12.34 16.75,22.48 18.52,30.42 0.88,3.53 -3.31,7.27 -12.56,11.25 -9.26,3.97 -16.09,2.87 -20.5,-3.31 -10.58,-14.99 -18.96,-20.28 -25.13,-15.88zm-14.55 150.79l0 0c0.89,-5.29 0,-12.79 -2.65,-22.49 -5.28,4.41 -13,10.37 -23.14,17.86 -10.14,7.5 -17.86,13.45 -23.15,17.86 7.06,4.4 16.32,5.51 27.78,3.31 11.47,-2.21 18.52,-7.71 21.16,-16.53z"/>
   <path class="fil0" d="M5630.32 167.03l0 0c6.18,9.71 6.18,16.32 0,19.85 -6.17,3.53 -14.32,4.62 -24.46,3.31 -10.15,-1.32 -17.42,-5.07 -21.83,-11.25 -30.86,-41.44 -69.43,-67.24 -115.72,-77.37 -46.3,-10.14 -93.25,-9.92 -140.86,0.66 -22.05,5.29 -43.87,12.12 -65.48,20.5 -21.6,8.38 -41.66,18.3 -60.17,29.76 -12.35,7.93 -23.15,16.53 -32.41,25.79 -9.26,9.26 -17.42,20.06 -24.47,32.41 -7.94,11.46 -13.22,23.36 -15.87,35.71 -11.47,44.97 11.91,68.78 70.1,71.43 1.76,-0.89 3.97,-2.21 6.61,-3.98 6.17,-3.53 15.43,-3.31 27.78,0.67 12.34,3.97 22.04,9.48 29.09,16.53 7.06,7.05 6.62,14.11 -1.32,21.16 -0.88,0.88 -1.77,1.54 -2.65,1.99 -0.88,0.44 -1.76,1.1 -2.65,1.98 0,0 0,0 0,0 0,0 0,0 0,0 -0.88,0 -1.32,0 -1.32,0 -8.82,6.17 -17.64,11.03 -26.46,14.55 -42.33,22.92 -85.97,48.72 -130.95,77.37 -44.96,28.66 -85.97,61.06 -123.01,97.22 -37.03,36.15 -65.25,77.15 -84.64,123.01 -15.88,38.8 -18.3,75.61 -7.28,110.44 11.03,34.84 35.06,62.39 72.09,82.67 41.44,22.04 87.29,32.63 137.56,31.75 50.26,-0.89 97.43,-8.82 141.52,-23.81 54.67,-18.52 103.61,-46.73 146.82,-84.65 7.93,-7.05 18.74,-18.08 32.4,-33.07 13.67,-14.99 27.34,-32.4 41.01,-52.24 13.66,-19.84 24.69,-39.46 33.07,-58.86 8.37,-19.4 11.02,-36.59 7.93,-51.59 -3.09,-14.99 -15.21,-25.13 -36.37,-30.42 -14.99,-4.4 -23.58,-11.02 -25.79,-19.84 -2.21,-8.82 0.66,-16.54 8.6,-23.15 7.93,-6.61 18.96,-7.71 33.07,-3.31 39.67,10.59 65.69,26.9 78.03,48.94 12.34,22.04 15.43,46.95 9.26,74.74 -6.17,27.78 -18.3,55.99 -36.37,84.64 -18.08,28.66 -38.35,54.67 -60.84,78.04 -22.48,23.36 -42.99,41.66 -61.5,54.89 -37.03,26.45 -79.8,47.83 -128.3,64.15 -48.5,16.31 -98.54,25.57 -150.12,27.78 -51.59,2.2 -100.96,-4.41 -148.13,-19.85 -47.18,-15.43 -87.96,-41.22 -122.35,-77.37 -33.51,-36.15 -51.59,-72.75 -54.23,-109.78 -2.65,-37.03 5.73,-73.41 25.13,-109.12 19.41,-35.71 45.85,-70.1 79.36,-103.16 33.51,-33.07 69.44,-63.49 107.8,-91.27 38.35,-27.78 75.17,-52.24 110.44,-73.41 -18.52,-9.7 -33.07,-22.93 -43.66,-39.68 -18.52,-27.34 -25.13,-54.89 -19.84,-82.67 5.29,-27.78 17.64,-53.57 37.03,-77.37 19.4,-23.81 41,-42.77 64.81,-56.88 36.15,-21.16 76.05,-37.03 119.7,-47.61 43.65,-10.59 87.52,-14.33 131.6,-11.25 44.09,3.09 85.09,14.33 123.01,33.73 37.92,19.4 69.66,48.5 95.23,87.29zm95.24 281.73l0 0c-2.65,2.65 -4.85,5.29 -6.61,7.94 -1.77,6.17 -1.77,11.03 0,14.55 0.88,0.88 1.32,1.32 1.32,1.32 2.65,6.17 7.5,16.32 14.55,30.42 7.05,14.11 13.89,29.76 20.5,46.95 6.61,17.2 11.47,33.73 14.55,49.61 3.09,15.87 1.98,28.21 -3.32,37.03 -8.81,14.1 -24.47,24.91 -46.95,32.4 -22.48,7.5 -48.28,5.07 -77.37,-7.27 -7.05,-2.65 -13.89,-7.05 -20.5,-13.22 -6.61,-6.17 -10.36,-11.03 -11.25,-14.55 -3.53,-9.7 -2.64,-18.74 2.65,-27.12 5.29,-8.38 11.69,-15.87 19.19,-22.48 7.49,-6.61 13.44,-11.25 17.85,-13.89l0 0 19.85 -15.87 0 0 22.48 -17.2c-3.53,-7.05 -7.05,-14.32 -10.58,-21.82 -3.53,-7.49 -6.61,-14.77 -9.26,-21.82 0,0 -1.99,-4.84 -5.95,-14.55 -3.97,-9.7 -5.95,-19.84 -5.95,-30.42 -0.88,-9.7 2.87,-20.71 11.25,-33.06 8.37,-12.34 23.14,-17.64 44.3,-15.88 7.05,0.89 13.66,2.65 19.85,5.29 8.81,1.77 18.52,8.82 29.09,21.16 10.58,12.34 16.75,22.48 18.52,30.42 0.88,3.53 -3.31,7.27 -12.56,11.25 -9.26,3.97 -16.09,2.87 -20.5,-3.31 -10.58,-14.99 -18.96,-20.28 -25.13,-15.88zm-14.55 150.79l0 0c0.89,-5.29 0,-12.79 -2.65,-22.49 -5.28,4.41 -13,10.37 -23.14,17.86 -10.14,7.5 -17.86,13.45 -23.15,17.86 7.06,4.4 16.32,5.51 27.78,3.31 11.47,-2.21 18.52,-7.71 21.16,-16.53zm290.99 -108.46l0 0c8.82,-6.17 16.97,-6.39 24.47,-0.66 7.49,5.73 10.36,12.56 8.59,20.5 -0.88,4.4 -6.61,11.46 -17.19,21.16 -10.59,9.7 -23.37,20.27 -38.36,31.74 -14.99,11.47 -29.75,21.82 -44.3,31.08 -14.55,9.26 -26.24,16.09 -35.06,20.5 -11.46,4.4 -26.45,7.71 -44.96,9.92 -18.52,2.21 -36.15,0.88 -52.91,-3.97 -16.75,-4.85 -27.78,-15.65 -33.06,-32.41 -3.53,-8.82 -5.73,-20.05 -6.62,-33.73 -0.88,-13.66 4.41,-28.87 15.88,-45.63 18.52,-27.34 38.57,-42.77 60.17,-46.29 21.6,-3.53 40.35,-3.53 56.22,0 15.87,2.65 24.03,9.92 24.47,21.82 0.44,11.91 -1.99,20.06 -7.28,24.47 -4.4,3.53 -13,5.07 -25.79,4.63 -12.78,-0.44 -25.13,1.54 -37.03,5.95 -11.91,4.4 -17.86,15.43 -17.86,33.07 0,9.7 7.49,14.54 22.48,14.54 18.52,0 38.14,-5.51 58.87,-16.53 20.71,-11.03 39.23,-22.71 55.55,-35.06 16.31,-12.34 27.56,-20.71 33.73,-25.13zm392.83 -19.84c7.94,-6.17 15.66,-6.39 23.15,-0.66 7.49,5.72 10.81,12.56 9.92,20.49 -0.88,4.41 -6.61,11.47 -17.19,21.16 -10.59,9.7 -23.37,20.28 -38.36,31.75 -14.99,11.46 -29.98,21.82 -44.97,31.08 -14.98,9.26 -26.45,15.65 -34.39,19.18 -12.34,5.29 -28.65,9.04 -48.94,11.25 -20.27,2.2 -38.79,0 -55.55,-6.62 -16.75,-6.61 -26.46,-20.05 -29.09,-40.34 0,-0.88 0,-3.09 0,-6.61 -12.34,8.82 -24.47,16.98 -36.37,24.47 -11.91,7.5 -21.38,12.56 -28.44,15.21 -11.46,4.41 -26.45,7.94 -44.96,10.59 -18.52,2.64 -35.5,0.66 -50.93,-5.95 -15.43,-6.62 -24.47,-20.06 -27.12,-40.35 -1.76,-15.87 4.63,-31.3 19.18,-46.29 14.55,-14.99 32.41,-27.99 53.57,-39.01 21.16,-11.03 42.11,-18.53 62.83,-22.49 20.71,-3.97 35.92,-2.43 45.62,4.63 14.99,9.7 18.75,17.41 11.25,23.14 -7.49,5.73 -16.09,7.72 -25.79,5.95 -12.34,-2.65 -26.24,-1.1 -41.67,4.63 -15.43,5.73 -29.32,13 -41.67,21.82 -12.34,8.82 -20.49,16.97 -24.47,24.47 -3.97,7.49 -1.54,12.12 7.28,13.88 14.1,1.77 29.31,-0.44 45.63,-6.61 16.31,-6.17 32.4,-14.32 48.27,-24.47 15.88,-10.14 29.54,-19.84 41.01,-29.09 11.47,-9.26 19.4,-15.21 23.81,-17.86 -0.89,0 -0.44,-0.44 1.32,-1.33 6.17,-6.17 11.25,-10.8 15.21,-13.88 3.97,-3.09 5.95,-4.63 5.95,-4.63 5.29,-4.4 13.89,-4.4 25.79,0 11.91,4.41 17.86,12.34 17.86,23.81 0,6.17 -3.31,13.45 -9.92,21.82 -6.61,8.38 -13.22,16.54 -19.84,24.47 -6.62,7.94 -9.71,14.77 -9.26,20.5 0.44,5.73 7.71,8.6 21.82,8.6 19.4,0 39.46,-5.51 60.17,-16.54 20.72,-11.02 39.24,-22.7 55.55,-35.05 16.32,-12.34 27.56,-20.72 33.73,-25.13zm185.18 -51.59l0 0c29.98,3.53 50.48,13.88 61.5,31.08 11.03,17.2 16.31,35.5 15.87,54.89 -0.44,19.4 -3.75,33.95 -9.92,43.65 -8.82,14.11 -20.94,26.46 -36.37,37.03 -15.43,10.59 -38.13,18.52 -68.11,23.81 -12.34,2.65 -27.78,3.31 -46.29,1.99 -18.52,-1.33 -32.19,-5.07 -41.01,-11.25 -4.4,-3.53 -8.37,-7.49 -11.91,-11.91 -7.93,12.34 -15.43,25.13 -22.48,38.36 -24.69,41.44 -45.19,75.39 -61.5,101.84 -16.31,26.46 -28.87,46.73 -37.69,60.84 -8.82,17.64 -16.1,32.18 -21.82,43.65 -5.73,11.47 -8.6,17.64 -8.6,18.52 -3.53,4.41 -7.72,7.05 -12.56,7.94 -4.85,0.88 -13.89,0.88 -27.12,0 -14.11,-0.89 -22.49,-5.07 -25.13,-12.56 -2.65,-7.5 -3.98,-13.89 -3.98,-19.19 0,-0.88 5.07,-11.9 15.21,-33.06 10.15,-21.16 23.37,-47.62 39.68,-79.36 16.32,-31.75 33.73,-65.48 52.24,-101.18 18.52,-35.72 35.72,-69.22 51.59,-100.52 15.87,-31.3 29.1,-56.88 39.68,-76.71 10.59,-19.85 15.87,-29.76 15.87,-29.76 12.34,-5.29 24.69,-5.51 37.03,-0.66 12.34,4.84 18.08,11.24 17.2,19.18 0,1.77 -3.53,11.03 -10.58,27.78 13.22,-10.58 28.21,-19.4 44.96,-26.46 16.76,-7.05 34.84,-9.7 54.23,-7.93zm-27.78 134.91l0 0c12.34,-6.17 22.7,-15.21 31.08,-27.12 8.38,-11.91 13.22,-23.59 14.55,-35.05 1.32,-11.47 -2.87,-19.41 -12.56,-23.81 -12.34,-5.29 -28.66,-1.1 -48.94,12.56 -20.28,13.66 -44.97,40.34 -74.07,80.02 12.34,1.77 27.33,2.65 44.96,2.65 17.64,0 32.63,-3.09 44.97,-9.26zm350.51 -63.49l0 0c8.82,-6.17 16.97,-6.39 24.47,-0.66 7.49,5.73 10.36,12.56 8.59,20.5 -0.88,4.4 -6.61,11.46 -17.19,21.16 -10.59,9.7 -23.37,20.27 -38.36,31.74 -14.99,11.47 -29.75,21.82 -44.3,31.08 -14.55,9.26 -26.24,15.65 -35.06,19.18 -11.46,5.29 -26.45,9.04 -44.96,11.25 -18.52,2.21 -36.15,0.88 -52.91,-3.97 -16.75,-4.85 -27.78,-15.65 -33.06,-32.41 -3.54,-8.82 -5.73,-20.05 -6.62,-33.73 -0.88,-13.66 4.41,-28.87 15.88,-45.63 18.52,-28.21 39.01,-45.41 61.5,-51.59 22.48,-6.17 41.22,-5.72 56.21,1.33 14.99,6.17 22.26,14.33 21.82,24.47 -0.44,10.14 -2.43,18.74 -5.95,25.79 -4.4,7.94 -12.78,15.65 -25.13,23.15 -12.34,7.49 -30.86,14.33 -55.55,20.5 0,0 1.1,2.64 3.31,7.93 2.21,5.29 7.27,7.94 15.21,7.94 19.4,0 39.68,-5.73 60.84,-17.2 21.16,-11.47 40.12,-23.37 56.87,-35.72 16.76,-12.34 28.22,-20.71 34.4,-25.13zm1058.13 -85.97l0 0c6.17,0 12.78,2.65 19.84,7.94 7.05,5.28 11.69,10.8 13.89,16.53 2.2,5.73 -1.99,9.48 -12.56,11.25 -6.17,0.88 -12.79,1.76 -19.85,2.65 -7.05,0.88 -13.66,1.76 -19.84,2.65 -7.94,27.33 -15.88,54.44 -23.81,81.34 -7.94,26.9 -15.87,53.57 -23.81,80.02 -15.87,55.55 -31.08,111.99 -45.63,169.31 -14.55,57.31 -32.85,112.42 -54.89,165.33 -4.4,10.58 -13,15.65 -25.79,15.21 -12.78,-0.45 -24.47,-4.63 -35.06,-12.57 -10.58,-7.93 -14.99,-17.19 -13.22,-27.78 7.94,-45.85 19.62,-91.48 35.06,-136.89 15.43,-45.41 29.75,-90.17 42.99,-134.25 8.81,-31.75 17.85,-63.05 27.11,-93.91 9.26,-30.86 18.75,-61.72 28.44,-92.58 -67.02,8.82 -133.81,18.52 -200.39,29.09 -66.57,10.59 -132.92,22.05 -199.06,34.4 -45.85,65.25 -89.94,131.16 -132.26,197.73 -42.33,66.58 -84.65,133.37 -126.97,200.39 -4.41,7.93 -12.12,11.02 -23.15,9.26 -11.03,-1.77 -20.94,-6.17 -29.76,-13.23 -8.82,-7.05 -11.91,-14.99 -9.26,-23.8 19.41,-55.56 39.9,-110.89 61.5,-166 21.6,-55.11 44.31,-109.55 68.12,-163.34 -8.82,0.88 -18.08,-1.55 -27.78,-7.27 -9.71,-5.73 -15.88,-12.56 -18.53,-20.5 -2.64,-7.94 2.21,-13.22 14.55,-15.87 9.7,-2.65 19.41,-5.07 29.1,-7.28 9.7,-2.2 19.4,-4.62 29.09,-7.27 37.92,-82.89 78.04,-164.01 120.37,-243.37 4.4,-7.93 11.9,-11.46 22.48,-10.58 10.58,0.88 19.84,4.18 27.78,9.92 7.94,5.73 9.7,12.12 5.29,19.19 -16.76,34.39 -33.51,68.77 -50.27,103.16 -16.75,34.39 -32.62,69.22 -47.61,104.49 12.34,-3.53 25.13,-6.61 38.35,-9.26 13.23,-18.52 26.68,-37.25 40.34,-56.21 13.67,-18.96 27.56,-37.69 41.67,-56.21 30.86,-41.45 62.6,-82.01 95.23,-121.69 32.63,-39.68 66.14,-78.04 100.52,-115.08 25.57,-27.34 52.68,-54.22 81.35,-80.68 28.65,-26.46 62.82,-41 102.5,-43.65 35.28,-2.65 62.83,2.2 82.67,14.54 19.85,12.34 33.95,29.54 42.33,51.59 8.38,22.04 12.56,46.29 12.56,72.75 0,26.46 -2.21,53.12 -6.61,80.02 -4.41,26.9 -9.7,50.93 -15.87,72.09 -4.41,18.52 -9.04,36.81 -13.89,54.89 -4.85,18.08 -9.92,35.92 -15.21,53.56 1.77,0 3.31,0 4.63,0 1.32,0 2.42,0 3.31,0zm-650.75 212.95l0 0c16.76,-24.69 33.95,-50.27 51.59,-76.71 -3.53,0.88 -7.05,1.76 -10.58,2.65 -3.54,0.88 -7.06,1.76 -10.59,2.64 -10.58,23.81 -20.72,47.62 -30.42,71.43zm632.23 -448.39l0 0c1.76,-7.93 3.31,-18.3 4.62,-31.08 1.33,-12.78 0.66,-23.59 -1.98,-32.4 -3.54,-14.11 -11.69,-26.68 -24.47,-37.7 -12.79,-11.02 -27.12,-16.53 -43,-16.53 -12.34,-0.88 -25.13,3.09 -38.35,11.91 -13.22,8.82 -25.57,18.96 -37.03,30.42 -11.47,11.46 -21.16,21.6 -29.1,30.42 -50.26,52.02 -98.1,106.25 -143.51,162.69 -45.4,56.43 -89.28,114.19 -131.6,173.26 61.73,-12.34 123.45,-22.92 185.18,-31.74 61.72,-8.82 123.44,-15.43 185.17,-19.85 0.89,-3.53 1.99,-7.05 3.32,-10.58 1.32,-3.53 2.42,-7.05 3.31,-10.58 11.46,-35.28 23.8,-71.21 37.03,-107.8 13.22,-36.59 23.36,-73.41 30.42,-110.44zm539.64 300.24l0 0c10.59,-3.53 18.3,-1.32 23.15,6.61 4.84,7.94 5.51,15.44 1.99,22.49 -1.77,3.53 -9.04,7.93 -21.83,13.22 -12.78,5.29 -27.78,10.81 -44.96,16.54 -17.2,5.72 -33.73,10.36 -49.6,13.88 0,0 -4.85,1.1 -14.55,3.31 -9.7,2.21 -24.69,3.31 -44.97,3.31 -14.99,12.34 -30.64,24.25 -46.95,35.72 -16.32,11.47 -28.88,18.96 -37.7,22.48 -9.7,4.41 -20.71,7.5 -33.06,9.26 -18.52,3.53 -37.7,3.53 -57.54,0 -19.85,-3.53 -32.85,-14.1 -39.02,-31.74 -20.28,15.87 -35.27,26.01 -44.97,30.42 -11.46,4.4 -27.34,7.71 -47.61,9.92 -20.28,2.21 -39.02,0.22 -56.22,-5.95 -17.19,-6.17 -27.11,-19.84 -29.75,-41 -1.77,-21.16 2.43,-39.9 12.56,-56.22 10.14,-16.31 20.72,-29.31 31.74,-39.01 11.03,-9.71 16.54,-14.55 16.54,-14.55 5.28,-4.41 13.88,-4.41 25.79,0 11.91,4.4 17.86,12.34 17.86,23.81 0,6.17 -3.31,13.44 -9.92,21.82 -6.62,8.38 -13.23,16.53 -19.85,24.47 -6.61,7.93 -9.7,14.77 -9.26,20.49 0.44,5.73 7.72,8.6 21.82,8.6 15.87,0 33.29,-5.06 52.24,-15.21 18.97,-10.14 34.62,-22.7 46.96,-37.69 12.34,-14.11 23.36,-26.46 33.06,-37.03 9.71,-10.59 14.55,-15.87 14.55,-15.87 5.29,-4.41 13.23,-4.85 23.81,-1.33 10.58,3.53 17.2,9.7 19.84,18.52 0.89,1.77 1.33,3.98 1.33,6.62 0,6.17 -3.53,13.44 -10.59,21.82 -7.05,8.37 -13.88,16.53 -20.49,24.47 -6.61,7.93 -9.7,14.76 -9.26,20.49 0.44,5.73 7.71,8.6 21.82,8.6 11.47,0 23.37,-2.65 35.72,-7.93 7.05,-3.54 14.1,-7.5 21.15,-11.91 7.06,-4.41 14.11,-9.26 21.16,-14.55 0.89,-0.88 2.65,-2.65 5.29,-5.29 -7.94,-9.7 -11.91,-19.4 -11.91,-29.09 0,-14.99 8.38,-27.78 25.13,-38.36 16.76,-10.58 34.84,-13.66 54.23,-9.26 16.76,3.53 29.1,10.81 37.03,21.82 7.94,11.03 8.38,20.5 1.33,28.44 21.16,-2.65 40.56,-7.06 58.2,-13.23 17.63,-6.17 29.53,-10.14 35.71,-11.91zm361.09 1.33c7.94,-6.17 15.66,-6.39 23.15,-0.66 7.49,5.72 10.81,12.56 9.92,20.49 -0.88,4.41 -6.61,11.47 -17.19,21.16 -10.59,9.7 -23.37,20.28 -38.36,31.75 -14.99,11.46 -29.98,21.82 -44.97,31.08 -14.98,9.26 -26.45,15.65 -34.39,19.18 -12.34,5.29 -28.65,9.04 -48.94,11.25 -20.27,2.2 -38.79,0 -55.55,-6.62 -16.75,-6.61 -26.46,-20.05 -29.09,-40.34 0,-0.88 0,-3.09 0,-6.61 -12.34,8.82 -24.47,16.98 -36.37,24.47 -11.91,7.5 -21.38,12.56 -28.44,15.21 -11.46,4.41 -26.45,7.94 -44.96,10.59 -18.52,2.64 -35.5,0.66 -50.93,-5.95 -15.43,-6.62 -24.47,-20.06 -27.12,-40.35 -1.76,-15.87 4.63,-31.3 19.18,-46.29 14.55,-14.99 32.41,-27.99 53.57,-39.01 21.16,-11.03 42.11,-18.53 62.83,-22.49 20.71,-3.97 35.92,-2.43 45.62,4.63 14.99,9.7 18.75,17.41 11.25,23.14 -7.49,5.73 -16.09,7.72 -25.79,5.95 -12.34,-2.65 -26.24,-1.1 -41.67,4.63 -15.43,5.73 -29.32,13 -41.67,21.82 -12.34,8.82 -20.49,16.97 -24.47,24.47 -3.97,7.49 -1.54,12.12 7.28,13.88 14.1,1.77 29.31,-0.44 45.63,-6.61 16.31,-6.17 32.4,-14.32 48.27,-24.47 15.88,-10.14 29.54,-19.84 41.01,-29.09 11.47,-9.26 19.4,-15.21 23.81,-17.86 -0.89,0 -0.44,-0.44 1.32,-1.33 6.17,-6.17 11.25,-10.8 15.21,-13.88 3.97,-3.09 5.95,-4.63 5.95,-4.63 5.29,-4.4 13.89,-4.4 25.79,0 11.91,4.41 17.86,12.34 17.86,23.81 0,6.17 -3.31,13.45 -9.92,21.82 -6.61,8.38 -13.22,16.54 -19.84,24.47 -6.62,7.94 -9.71,14.77 -9.26,20.5 0.44,5.73 7.71,8.6 21.82,8.6 19.4,0 39.46,-5.51 60.17,-16.54 20.72,-11.02 39.24,-22.7 55.55,-35.05 16.32,-12.34 27.56,-20.72 33.73,-25.13zm190.47 19.84l0 0c8.82,-6.17 16.97,-6.39 24.47,-0.66 7.49,5.73 10.36,12.56 8.59,20.5 -0.88,4.4 -6.61,11.46 -17.19,21.16 -10.59,9.7 -23.37,20.27 -38.36,31.74 -14.99,11.47 -29.75,21.82 -44.3,31.08 -14.55,9.26 -26.24,16.09 -35.06,20.5 -11.46,4.4 -27.34,7.71 -47.61,9.92 -20.28,2.21 -39.02,0.22 -56.21,-5.95 -17.2,-6.17 -27.12,-19.84 -29.76,-41 -1.77,-21.16 2.43,-39.9 12.56,-56.22 10.14,-16.31 20.72,-29.09 31.74,-38.35 11.03,-9.26 16.54,-13.89 16.54,-13.89 5.28,-5.28 13.88,-5.73 25.79,-1.32 11.91,4.4 17.86,12.34 17.86,23.81 0,6.17 -3.31,13.44 -9.92,21.82 -6.61,8.38 -13.23,16.75 -19.85,25.13 -6.61,8.38 -9.7,15.21 -9.26,20.5 0.44,5.28 7.72,7.93 21.82,7.93 18.52,0 38.14,-5.51 58.87,-16.53 20.71,-11.03 39.45,-22.71 56.21,-35.06 16.75,-12.34 27.78,-20.71 33.07,-25.13zm-62.17 -96.55l0 0c-12.34,17.63 -25.79,26.01 -40.34,25.13 -14.55,-0.88 -24.47,-6.61 -29.76,-17.2 -3.53,-7.05 -3.31,-14.1 0.67,-21.16 3.97,-7.05 8.37,-13 13.22,-17.85 4.85,-4.85 7.27,-7.28 7.27,-7.28 19.41,-9.7 35.5,-9.92 48.28,-0.66 12.78,9.26 13,22.26 0.66,39.02zm458.97 -125.65l0 0c26.45,6.17 43.43,12.34 50.92,18.52 7.5,6.17 10.37,11.91 8.6,17.19 -1.77,5.29 -3.53,9.26 -5.29,11.91 -0.88,2.65 -13,2.21 -36.37,-1.32 -23.36,-3.53 -52.02,-7.28 -85.97,-11.25 -33.95,-3.97 -66.8,-5.95 -98.54,-5.95 -7.05,0 -14.1,0 -21.16,0 -7.05,0 -14.1,0 -21.16,0 -25.57,44.09 -52.02,89.5 -79.36,136.24 -27.34,46.73 -52.9,90.16 -76.71,130.28 -23.8,40.12 -43.21,72.97 -58.2,98.54 -14.99,25.58 -23.36,39.24 -25.13,41.01 -3.53,4.4 -10.14,7.05 -19.84,7.93 -9.71,0.89 -19.85,-1.76 -30.42,-7.93 -11.47,-6.17 -17.42,-12.34 -17.86,-18.52 -0.44,-6.17 -0.66,-9.26 -0.66,-9.26 0,0 7.05,-11.25 21.16,-33.73 14.1,-22.49 32.4,-52.24 54.88,-89.28 22.49,-37.04 47.18,-77.38 74.08,-121.03 26.89,-43.65 53.56,-86.63 80.02,-128.96 -47.62,4.4 -87.52,9.92 -119.7,16.53 -32.19,6.61 -53.13,9.04 -62.83,7.28 -12.34,-3.53 -21.82,-9.48 -28.43,-17.86 -6.61,-8.38 -7.27,-13.45 -1.99,-15.21 44.97,-18.52 88.62,-31.75 130.95,-39.68 42.33,-7.94 82.45,-12.34 120.36,-13.22 28.22,-45.85 52.24,-84.43 72.09,-115.73 19.84,-31.3 30.2,-47.84 31.08,-49.6 4.4,-4.41 12.78,-5.73 25.13,-3.98 12.34,1.77 19.41,7.94 21.16,18.52 0.88,3.53 -6.17,19.41 -21.16,47.62 -14.99,28.21 -33.95,63.04 -56.87,104.49 34.39,1.77 66.57,5.51 96.55,11.25 29.98,5.73 56.88,10.8 80.69,15.21zm-198.4 179.87l0 0c-2.65,2.65 -4.85,5.29 -6.61,7.94 -1.77,6.17 -1.77,11.03 0,14.55 0.88,0.88 1.32,1.32 1.32,1.32 2.65,6.17 7.5,16.32 14.55,30.42 7.05,14.11 13.89,29.76 20.5,46.95 6.61,17.2 11.47,33.73 14.55,49.61 3.09,15.87 1.98,28.21 -3.32,37.03 -8.81,14.1 -24.47,24.91 -46.95,32.4 -22.48,7.5 -48.28,5.07 -77.37,-7.27 -7.05,-2.65 -13.89,-7.05 -20.5,-13.22 -6.61,-6.17 -10.36,-11.03 -11.25,-14.55 -3.53,-9.7 -2.64,-18.74 2.65,-27.12 5.29,-8.38 11.69,-15.87 19.19,-22.48 7.49,-6.61 13.44,-11.25 17.85,-13.89l0 0 19.85 -15.87 0 0 22.48 -17.2c-3.53,-7.05 -7.05,-14.32 -10.58,-21.82 -3.53,-7.49 -6.61,-14.77 -9.26,-21.82 0,0 -1.99,-4.84 -5.95,-14.55 -3.97,-9.7 -5.95,-19.84 -5.95,-30.42 -0.88,-9.7 2.87,-20.71 11.25,-33.06 8.37,-12.34 23.14,-17.64 44.3,-15.88 7.05,0.89 13.66,2.65 19.85,5.29 8.81,1.77 18.52,8.82 29.09,21.16 10.58,12.34 16.75,22.48 18.52,30.42 0.88,3.53 -3.31,7.27 -12.56,11.25 -9.26,3.97 -16.09,2.87 -20.5,-3.31 -10.58,-14.99 -18.96,-20.28 -25.13,-15.88zm-14.55 150.79l0 0c0.89,-5.29 0,-12.79 -2.65,-22.49 -5.28,4.41 -13,10.37 -23.14,17.86 -10.14,7.5 -17.86,13.45 -23.15,17.86 7.06,4.4 16.32,5.51 27.78,3.31 11.47,-2.21 18.52,-7.71 21.16,-16.53z"/>
  </g>
 </g>
</svg>
