<?xml version="1.0" encoding="utf-8"?>
<!-- Generator: Adobe Illustrator 24.3.0, SVG Export Plug-In . SVG Version: 6.00 Build 0)  -->
<svg version="1.1" id="Layer_1" xmlns="http://www.w3.org/2000/svg" xmlns:xlink="http://www.w3.org/1999/xlink" x="0px" y="0px"
	 viewBox="0 0 100 100" style="enable-background:new 0 0 100 100;" xml:space="preserve">
<style type="text/css">
	.st0{fill-rule:evenodd;clip-rule:evenodd;fill:#A48C6B;}
	.st1{fill-rule:evenodd;clip-rule:evenodd;fill:#FFFFFF;}
	.st2{fill:#FFFFFF;}
</style>
<g>
	<path class="st0" d="M31.4,100l3.1,0c2-0.1,3.9-0.8,5.3-1.7c1.9-1.3,2.7-3.6,4.7-5.9c0.4-0.4,0.5-0.6,0.8-1
		c0.4-0.4,0.5-0.5,0.8-0.8l3.5-3.4c1.4-1.1,2.8-1.9,3.8-3.2c1-1.4,1.7-2.9,2.8-4.3l6.9-7c0.8-0.7,1.1-1,1.8-1.8
		c0.6-0.7,1-1.3,1.5-1.9c0.6-0.7,1-1.2,1.7-1.9c0.6-0.6,1.3-1,1.9-1.6c1.8-1.8,1.9-2,3.3-3.7c0.5-0.7,1.2-1,1.9-1.6
		c2.3-2-0.7-3.3-2.3-3.1c-1.5,0.2-4.1,3.3-5.7,4.6c-0.6,0.5-1.6,1-2.1,1.5c-1.2,0.9-3,3.1-5.8,4.5c0.3-1.1,0.8-1.9,1.3-2.6
		c1.4-2.1,1.6-3.3,2.6-5.1c0.5-0.8,1.2-1.2,1-2.5c-6.2-2.9-9.3,8.9-12.7,11.7c-2.3,2-2.6,3.9-3.6,4.6c-4.4,3-2.2,2.9-5.6,2.7
		c-1.2-0.1-2.4-0.5-3.4-0.9c-1.8-0.5-1.7,0-2.6-1.5c-1.7-2.9-0.6-3.7,0.2-6.3c0.7-2.4,0.4-4.9-0.4-7c-0.7-1.9-2.1-4.2-4.9-3.4
		c-2.2,0.6-0.6,2.8-1,6.7c-1,9.1-3.2,6.7-4.4,12.1l-1.4,6.9c-0.6,4.1,0.8,5.1,0.9,7.2c0.2,3-1.5,4.7,0.7,6.9
		C27.2,98.4,28.9,99.8,31.4,100"/>
	<path class="st0" d="M46.7,73.1c1.1-0.6,0.9-1.2,2.5-3.1c0.6-0.7,1.8-1.6-0.2-3.5c-1-1-1.6-1.7-2.4-3.4c-0.6-1.4-0.6-3.9-1-4.6
		c-0.4-0.8-2.7-0.5-3,2c-0.6,5,1.3,6.3,2.5,8.7C45.8,70.3,45.7,72.2,46.7,73.1"/>
	<path class="st0" d="M62.3,64l2.9-2.4c3-2.2,2.1-1.7,4.4-3.8c0.4-0.4,0.2-0.1,0.5-0.6C65.3,57.1,63.8,60.5,62.3,64"/>
	<path class="st0" d="M12.7,43.1l74.6,0c-0.1-8.9-2.8-15.8-7.6-22.3c-0.4-0.5-0.7-0.8-1.1-1.3c-2-2.3-3.9-4.3-6.5-6.1
		c-0.9-0.6-2-1.4-3.1-2C65.7,9.6,61.8,8,58.1,7.2c-1.7-0.3-0.2-0.7-1.7-3.4c-2.7-5-9.8-5.2-12.7-0.1c-0.3,0.5-0.5,1.1-0.7,1.8
		c-0.6,2.5,0.8,0.9-4.8,2.7c-2.6,0.9-4.8,1.9-6.9,3.1c-3,1.7-6.1,4.2-8.4,6.7C16.4,25,12.8,32.6,12.7,43.1"/>
	<path class="st0" d="M91.7,46.3H8.3c-1.1,0-2,0.3-1.9,1.5c0.1,0.8,3.5,4.9,4.2,5.8c0.7,0.9,0.9,0.9,2.4,0.8l73.6,0
		c1.5,0,2,0.2,2.7-0.7c0.5-0.7,0.9-1.2,1.4-1.8C92,50.2,95.8,46.3,91.7,46.3"/>
	<path class="st1" d="M23.1,40.4c0.2-1.1,0.2-2.9,0.4-4.2c0.7-6,2.6-12.2,5.6-17.3c0.6-1,1.2-2,1.7-2.8l1.8-2.5
		c0-0.1,0.3,0.1-0.1-0.3L30.1,16c-2.3,2.8-4.3,5.5-5.9,9c-1.1,2.4-2,4.5-2.8,7.2c-0.4,1.5-1.8,6.8-1.6,8.2L23.1,40.4z"/>
	<path class="st1" d="M45.4,6.6c3.4-0.3,5.8-0.3,9.2,0c-0.1-2.2-2.2-4-4.6-4C47.6,2.6,45.6,4.4,45.4,6.6"/>
	<path class="st2" d="M57.4,36.6V22.3h3.4v6.1c0.3-0.7,0.7-1.2,1.3-1.5c0.6-0.3,1.2-0.5,1.9-0.5c0.7,0,1.3,0.1,1.8,0.4
		c0.5,0.3,0.9,0.7,1.2,1.2c0.3,0.5,0.4,1.2,0.4,2v6.7h-3.4v-5.8c0-0.7-0.1-1.2-0.4-1.5c-0.3-0.3-0.6-0.4-1-0.4
		c-0.3,0-0.6,0.1-0.9,0.2c-0.3,0.2-0.5,0.4-0.7,0.8c-0.2,0.3-0.2,0.8-0.2,1.4v5.3H57.4z M46.9,31.3h3.7v-4c0-0.3,0-0.5,0-0.8
		c0-0.3,0-0.6,0-0.9h0c-0.1,0.3-0.3,0.6-0.5,0.9c-0.2,0.3-0.4,0.6-0.5,0.8l-2.4,3.4c-0.1,0.1-0.1,0.2-0.2,0.3
		C47,31.1,47,31.2,46.9,31.3z M50.6,36.6v-2.9h-6.5v-2.2c0.1-0.2,0.3-0.5,0.5-0.8c0.2-0.3,0.4-0.7,0.7-1.1l4.3-6.3h4v8h2v2.4h-2v2.9
		H50.6z M32.7,36.6v-2.2c1.1-0.7,2.1-1.4,2.9-2c0.8-0.6,1.5-1.2,2-1.7c0.5-0.6,0.9-1.1,1.1-1.6c0.2-0.5,0.4-1,0.4-1.4
		c0-0.5-0.2-0.9-0.5-1.3c-0.3-0.3-0.7-0.5-1.3-0.5c-0.6,0-1.1,0.2-1.5,0.7c-0.3,0.5-0.5,1.1-0.6,2l-3-0.9c0-1,0.3-1.8,0.7-2.5
		c0.4-0.7,1.1-1.2,1.8-1.5c0.8-0.3,1.7-0.5,2.7-0.5c0.9,0,1.6,0.1,2.3,0.4c0.6,0.2,1.2,0.6,1.6,1c0.4,0.4,0.7,0.9,0.9,1.4
		c0.2,0.5,0.3,1,0.3,1.5c0,0.9-0.2,1.7-0.7,2.4c-0.4,0.7-1.1,1.5-1.9,2.2c-0.8,0.7-1.9,1.4-3,2.1v0c0.2,0,0.5,0,0.8,0
		c0.3,0,0.6,0,1,0c0.3,0,0.6,0,0.9,0h3.1v2.6H32.7z"/>
</g>
</svg>
