<?xml version="1.0" encoding="utf-8"?>
<!-- Generator: Adobe Illustrator 24.3.0, SVG Export Plug-In . SVG Version: 6.00 Build 0)  -->
<svg version="1.1" id="Layer_1" xmlns="http://www.w3.org/2000/svg" xmlns:xlink="http://www.w3.org/1999/xlink" x="0px" y="0px"
	 viewBox="0 0 188.4 345.9" style="enable-background:new 0 0 188.4 345.9;" xml:space="preserve">
<style type="text/css">
	.st0{clip-path:url(#SVGID_2_);}
	.st1{fill-rule:evenodd;clip-rule:evenodd;fill:#A48C6B;}
</style>
<g>
	<defs>
		<rect id="SVGID_1_" width="188.4" height="345.9"/>
	</defs>
	<clipPath id="SVGID_2_">
		<use xlink:href="#SVGID_1_"  style="overflow:visible;"/>
	</clipPath>
	<g class="st0">
		<path class="st1" d="M48.3,176.7l0-30.1l-22.1,0l0,8.6c6.9,0.1,5.6-0.5,5.6,8c0,3.8,0.6,4.8-0.5,7.8c0,0.1-0.2,0.1-0.2,0.1
			c-0.1,0-0.2,0.1-0.3,0.1c-1.5,0.4-11.6,0.1-12.6-0.1c-0.4-2.2-0.2-6.3-0.2-8.8c0-7.2-1.4-7.2,5.5-7.1l0-8.6l-22.1,0
			c0.1,8.6,0,17.2,0,25.7c0,6.3-0.4,14.3,8.6,16.9c3.5,1,20.4,0.5,25.3,0.5C43.6,189.6,48.3,184.8,48.3,176.7"/>
		<path class="st1" d="M83.5,21.3l-1.6-1l-1.1,1.6c-0.7-0.4-1-0.5-1.7-0.8l-0.8,1.7L76.4,22l-0.8,1.9L74,23.4l-0.7,1.8l-2.1-0.4
			l-0.1,2l-2-0.2c0,2.8,0.7,1.9-2,2l0.3,2l-1.9,0.1c0,3.1,0.6,1.3-1.6,2.7l0.4,1.6l-1.7,0.7l0.7,1.9l-1.7,0.8l0.8,1.6L60.8,41
			c0.5,1.6,0.2,0.8,1.1,2.1l-1.6,1.1l1.3,1.3l-1.4,1.8l1.4,0.9c-0.5,0.7-0.8,1-1.2,1.7c0.5,0.4,1.1,0.9,1.4,1.2l-1.1,1.5l1.7,0.8
			l-1,2l1.8,0.7l-0.7,1.7l1.8,0.7l-0.5,2l1.9,0.4l-0.4,1.7l2,0.5l-0.3,2l2.1,0l-0.1,2c3.2-0.1,1.7-0.7,2.4,1.8l2-0.4l0.4,2l1.9-0.6
			l0.5,1.9l2-0.8l0.6,1.8l1.7-0.9l1.1,1.7l1.7-1.1l1.2,1.5l1.2-1.2l1.6,1.3l1.1-1.3c1,0.7,0.5,0.6,1.7,1.2l1.2-1.4l1.5,1.1l1-1.7
			l2.1,1l0.5-1.9l1.7,0.7l0.8-1.8l2.1,0.7l0.2-2l2,0.4l0.3-1.9l2.1,0.2c-0.1-2.6-0.6-2.1,2-2l-0.3-2.2l2-0.1l-0.3-1.9l1.9-0.6
			l-0.5-1.8l1.8-0.7l-0.7-1.7l1.7-0.7l-0.9-2l1.7-0.7l-1-1.7l1.5-0.9c-0.6-1.8,0.2-0.8-1.2-1.9l1.3-1.2l-1.1-1.3
			c0-0.1-0.1-0.2-0.2-0.3c0.5-0.7,0.7-0.8,1.2-1.8c-0.3-0.1-0.6-0.2-0.8-0.3c-0.7-0.5-0.3-0.2-0.6-0.6l1.1-1.7l-1.8-0.7
			c0.5-0.9,0.5-0.7,0.8-1.6l-1.7-1.2l0.7-1.5l-1.9-0.8l0.5-1.7l-1.9-0.7l0.3-1.7l-2-0.4l0.3-1.9l-2.1-0.2l0.1-2
			c-1.9,0.2-1.7,0.4-2.5-1.4c0-0.1-0.1-0.3-0.1-0.4l-1.6,0.4l-0.3-2L99,24l-0.7-1.9l-1.8,0.7L96,21c-1.2,0.4-0.9,0.5-2.1,0.9
			l-0.7-1.6l-1.7,1l-1.1-1.4l-1.6,1.1c-0.1,0-0.2,0.1-0.3,0.2l-0.9-1.4l-1.9,1.5l-1-1.2L83.5,21.3z M80,28.3
			c1.4-0.9,3.3-1.2,5.1-1.4c0,1.9,0.4,8.4-0.4,9.6c-2,1.3-1.8-1.6-2.8-2.6c0.2,1.3,0.9,2.4,0.6,3.5c-1.5,0.7-2.8-1.4-3.9-2.5
			c-1.3-1.3-2.5-2.3-3.6-3.8l4.1-2.4l0.7,1c0,0.1,0.1,0.2,0.1,0.3c0.6,1.2,1.1,3.2,2,4C81.7,31.9,80.4,30.1,80,28.3z M93.9,31
			c0.7-0.1,0.7-1.1,0.8-2c-0.2,0.2-0.2-0.1-0.6,1C93.6,31.2,93.9,30.2,93.9,31z M92.3,34.3c-0.3,0.9-0.9,3.2-2.1,2.1
			c-0.9-0.8-0.5-8.4-0.5-9.6c1,0.1,2.8,0.4,3.6,0.7c1.5,0.6,0.9,0.6,1.1,0.8c1.6,1.2,0.8-0.9,5.2,2.7L93,37.4l-1.3-0.3l2.1-6.1
			L92.3,34.3z M86.2,40.3c-0.8-3,1.5-3.8,2.7-1.3C88.3,40.7,87.9,40.8,86.2,40.3z M83.1,40.2c0.2,1,0.2,1.5-0.2,2.4
			c-1.6,0.4-0.8,0.5-2.2,0C79.6,40.5,80.9,39.6,83.1,40.2z M91.7,40.1c3.3-1.8,3.9,4.8-0.2,2.1L91.7,40.1z M70.8,40.5
			c0.8,0.3,1.3,0.5,2,0.8c1.4,0.6,2.7,1.3,4.2,1.4c-0.1-0.1-0.2-0.1-0.2-0.2l-7.7-3.1L70.8,40.5z M67.5,44.5c0-1.8,1.9-8.8,4.4-9.9
			l6.3,6.4l-1.5,3.5L67.5,44.5z M100.1,41.3c-0.5,0.3-0.6,0.5-0.7,0.5c1.1-0.2,1.1-0.1,2.2-0.7l1.5-0.9L100.1,41.3z M99.4,41.8
			c-1.1,0.1-2.8,1.2-2.5-0.6c0.1-0.7,1.5-1.7,2-2.3c1.5-1.5,2.9-3,4.3-4.4c0.8,1.4,1.9,2.1,2.5,4.2c-0.7,0.6-0.8,0.4-1.4,0.8
			l2.1-0.1l1,5.2l-9.8-1c0.4-1,0-0.3,0.9-1L99.4,41.8z M78.7,45.9c1.6-1.5,3.1,0.8,2,2C79.4,49.3,76.9,47.6,78.7,45.9z M94.3,45.9
			c1.5-1.5,3.2,0.8,2,2C95,49.3,92.5,47.6,94.3,45.9z M86,42.6c5.5-2.1,8.4,6.4,3.1,8.5c-2.9,1.1-5.3-0.5-6-2.6
			C82.1,45.1,83.8,43.5,86,42.6z M101.1,52.2c-2.1-0.9-3.8-0.8-3.2-2.9l9.3,0c0.2,1.7-0.6,3.4-1,4.9
			C104.6,53.7,102.9,52.9,101.1,52.2z M76.9,49.5c0.5,2,0.8,1.3-1.2,2.2l-7.2,2.8c-0.4-1.7-1.2-3.3-0.9-5.2L76.9,49.5z M69,54.9
			c1.6-0.4,3.4-1.4,5.1-2.1c9.8-4.2-0.9,4.3-2.5,6.4C70.6,58.4,69.5,56.7,69,54.9z M80.9,51.3c2.2-1.7,3.3,1.5,2,2.4
			C80.9,55,79.5,52.3,80.9,51.3z M99.8,55.9c-8.3-8.3,2.1-2.7,6.3-1.2l-2.4,4.6C101.8,58.4,101.1,57.2,99.8,55.9z M92,53.7
			c-0.9-1.6-0.1-3.6,1.8-2.6C94.9,51.7,95.1,54.5,92,53.7z M88.9,54.7c-1.1,3.5-4.8,0.6-1.8-1.4C88.3,53.4,88.4,53.7,88.9,54.7z
			 M95.3,65.3c-0.5-2.2-3.6-7.3-3.1-8.8c1.5-0.7,1.2-0.4,2.3,0.6c0.7,0.7,1.1,1.2,1.8,1.8c1.9,1.9,2.9,2.3,3.4,4.2L95.3,65.3z
			 M81.7,56.1c1.1,0.5,0.6,0.1,1.4,0.9l-3.4,8.3c-1.6-0.5-2.8-1.2-4.2-2.4l-0.4-0.4L81.7,56.1z M85,67l-4.9-1.1
			c0.6-2.2,5.1-15.4,4.9-4.9C85.1,63,85.1,65,85,67z M89.9,67.1c-0.1-1.2-0.8-9.2,0.7-9.8c1.5-0.6,0.9-0.1,2.4,3.5
			c0.7,1.7,1.5,3.2,1.9,5.1L89.9,67.1z"/>
		<path class="st1" d="M24,0.4l-0.3,1.8C26,3.6,31.2,3.4,33.3,4l0,4.6c-5.4,0.9-10.7,0.6-16.5,1.9c-8.9,1.9-10,3.7-14,4.8l-3.4-6.9
			l9.3,0C8.3,6.5,7.9,6.3,6.2,5.5C3,4-6.3,2.4-8.1,3.9c-1.1,0.9-0.7,2.9-0.3,4.2l5.7,0.3l4.2,7.9c-3.5,1.8-7.5,6.1-9.5,9.4
			c-3.1,5.3-3.6,7.7-4.8,14.4c-7.1,1.3-11.7,6-11.3,12.9c0.8,15.6,24.5,15.4,24.6-0.4c0-3.7-1.3-6.6-3.4-8.6c-3.5-3.3-3.5-2.7-7-3.9
			c-0.1,0-0.2-0.1-0.3-0.1l-0.7-0.3c1.9-22.7,24.8-29.8,44-29.4l0.1,3.2c-8.2,1.4-12.2,2.9-16.6,7.4c-14.7,15.3-4,40.8,17.1,41
			c13.2,0.1,24-10.4,24.4-23.4c0.3-13.7-9.9-24.3-23.3-24.8l0-7.2c0-4.2,0.5-1.1,1.2-3.5c-0.9-1.2-0.7-0.1-1.3-1.8
			C31.2,1.8,35,2.5,29.5,1c-0.7-0.2-1.8-0.4-2.7-0.5c-3.3-0.6-1.5-0.2-2.5-0.1C24.2,0.4,24.1,0.4,24,0.4 M31.3,17.1
			c0.3,2.7,0.6,5.4,0.9,8.1c0.2,1.5,0.3,2.9,0.5,4.4c0.2,1.6,0.4,1.9,0.1,3l-6.1-14.9C28.2,17.1,29.9,16.4,31.3,17.1z M37.6,16.6
			l4.6,1.3L36,32.4c-0.4,0.6,0,0.2-0.7,0.7L37.6,16.6z M21.6,20.4c1.1-0.8,2.6-1.8,4.2-2.2l6,15.3c-1.3-0.5-1.9-1.9-2.8-3.1
			c-0.9-1.2-1.7-2.2-2.6-3.4C25,25,22.6,22.2,21.6,20.4z M43.1,18.2l3.8,2.5c-0.4,1.1-1.7,2.3-2.5,3.4c-1.6,2-5.9,8.6-8,9.5
			L43.1,18.2z M17.6,24.4c0.8-1.5,1.8-2.6,3.6-3.4c0.6,1.2,1.6,2.3,2.5,3.5l7.1,9.8c-1.5-0.5-5.4-3.8-6.8-4.9L17.6,24.4z M37.7,34.5
			c0.7-2.1,9-12,10.1-13.1c1.4,0.8,2.3,1.8,3.2,3.2l-6.5,5C42.6,31,39.8,33.6,37.7,34.5z M14.5,29.2c0.6-2,1.4-2.7,2.1-4.2
			c1.8,0.8,5.3,4,6.9,5.2c1.4,0.9,5.6,4.1,6.2,5.4L14.5,29.2z M38.5,35.6c0.6-1.2,0-0.2,0.8-1.1c0.1-0.1,0.7-0.6,0.9-0.7l11.7-8.3
			l2,4.1L38.5,35.6z M13,34.5c-0.1-1.6,0.4-3.4,1.2-4.6c2.5,0.7,5.1,2.1,7.5,3.2c1.6,0.7,6.3,2.2,7.4,3.7L13,34.5z M39.2,36.7
			c1.3-1.1,12.9-5.6,15.3-6.3l1,4.6C52.7,35.3,40.8,37.2,39.2,36.7z M12.6,35.3c2.4,0.2,15.1,1.9,16.3,2.6
			c-1.5,0.9-13.6,1.9-16.4,2.2L12.6,35.3z M55.7,36l-0.1,4.4c-2,0.3-15.2-1.6-16.4-2.6L55.7,36z M35.8,39.1
			c-2.4,1.7-4.3-0.2-3.3-2.2C33.3,35.4,36.4,35.6,35.8,39.1z M25.4,39.4c3.6-0.5,2.9-0.5,3.8,0.1l-15.4,6l-0.9-4.6L25.4,39.4z
			 M39.1,39.5c1.1-0.5,6.4,0.6,8,0.8c2.8,0.4,5.5,0.8,8.4,1.2l-1.2,4.6L39.1,39.5z M29.7,40.3c-0.9,1.8-4.8,3.9-6.5,5.3l-6.5,4.8
			l-0.6-0.7c-0.1-0.1-0.1-0.2-0.2-0.2l-1.6-3.1L29.7,40.3z M51.3,50.8c-0.6-0.5-1-0.6-1.7-1.1c-0.6-0.5-0.9-0.8-1.5-1.3l-6.5-5.1
			c-1.6-1.2-2.5-1.6-3.2-2.9c1.8,0.5,14.3,5.8,15.2,6.6C52.9,48.9,52.4,49.5,51.3,50.8z M17.2,50.8c2.9-1.4,8.3-6.1,11.7-8.4
			c1.1-0.7,0.5-0.7,1.7-0.9c-2.2,3.2-8.7,10.9-9.6,13C18.8,54,17.9,52.9,17.2,50.8z M47.3,54.8l-9.7-13.2c1.9,0.5,10.2,8.4,13.1,9.8
			C49.9,52.8,48.5,54,47.3,54.8z M-11.1,42.4l1.3,0.2c0.3,1.1-0.8,4.5-1.5,5.6L-11.1,42.4z M42.7,57.7c-0.8-1-5.7-13.4-6.1-15.2
			c0.9,0.2,4.5,5.2,5.2,6.2l4.9,6.9L42.7,57.7z M21.2,55.1c0.7-0.8,1.6-2.2,2.5-3.3l8-9.4l-6.7,15.1C23.1,56.7,22.5,56.3,21.2,55.1z
			 M-14.9,42.8c0.9,1.1,1.4,4.2,1.8,5.7c-0.8-0.3-2.7-3.9-3.1-5.2L-14.9,42.8z M37.2,59.3c-0.6-2.6-2.2-14.6-1.5-16.4l6,15.4
			L37.2,59.3z M-17,43.9c0.7,1.9,2.4,3.6,2.7,5.3l-4.3-4.2L-17,43.9z M26.2,57.9c0.8-2.6,2.2-5.2,3.2-7.7l2.9-6.4
			c0.5-0.7,0.1-0.2,0.8-0.8l-2.3,16.2C28.9,59,27.4,58.6,26.2,57.9z M-19.3,45.6c1,0.6,4,3.3,4.2,4.5l-5.2-2.7
			C-19.7,45.9-20.2,46.8-19.3,45.6z M-4.1,45.6c0.7,0.7,0.5,0.6,1,1.3c-1.2,1-3.7,2.2-5.3,3L-4.1,45.6z M-7.1,43.5
			C-7.5,45-8.3,45.3-8.6,47c1.7-0.9,0.7-1.6,2.4-3.1l1.2,1.1c-1.3,1.4-2.8,3-4.2,4.2c0.3-1.5,0.5-0.4,0.6-2.2
			c-0.6,0.3-0.2,0-0.9,0.7l-0.8,0.9c0.3-1.3,1-4.1,1.6-6L-7.1,43.5z M-20.9,47.8c1.5,0.3,4.4,2.2,5.4,3.2l-6-1.4L-20.9,47.8z
			 M-7.9,51c0.4-0.4,0.1-0.2,0.6-0.6l4.7-2.6l0.5,1.5C-3.3,50-6.7,50.7-7.9,51z M-21.7,50.2l5.8,1.9l-5.9-0.2L-21.7,50.2z
			 M-7.5,51.9c1.1-0.7,4.7-1.6,5.9-1.4l0.1,1.6L-7.5,51.9z M-21.7,52.8c1.8,0,4.7-0.3,5.9,0.4l-5.9,1.5L-21.7,52.8z M-9.9,52.7
			c-1.3,2.4-3.8,2-3.6-0.4C-13.3,50.1-10.5,49.7-9.9,52.7z M-7.5,53.1c1.2-0.7,4.3-0.3,6-0.2l-0.1,1.9L-7.5,53.1z M-15.5,54
			c-0.8,0.9-4,2.9-5.5,3.2l-0.5-1.7L-15.5,54z M-1.9,55.3l-0.5,1.9c-1.2-0.4-2.2-1.1-3.1-1.6l-2.4-1.7C-6.7,54.2-3.9,55-1.9,55.3z
			 M-14.9,54.9c-0.6,1.1-0.2,0.5-1.2,1.4l-3.2,2.9c-1.1-1.2-0.5-0.3-0.9-1.5L-14.9,54.9z M-4.2,59.2L-8.3,55l5.2,2.6
			C-4.3,60.6-3.7,58.8-4.2,59.2z M-14.3,55.7c0,0.9-2.1,4.6-3,5.2l-1.1-1L-14.3,55.7z M-16.3,61.4c0.6-1,2.1-4.5,3.2-5l-1.6,5.8
			L-16.3,61.4z M-8.1,58.6c-0.2-1.4-0.6-1.7-1-2.9l4.3,4.2L-6.3,61l-1.3-2.7c-1.1,1.8-0.9-0.7,0.6,3.3l-1.7,0.6l-1.5-5.9
			C-9,57.4-9.1,58-8.1,58.6z M34.3,43l1.9,16.5l-4.7-0.2L34.3,43z M-13.8,62.5c0.1-1.6,0.9-4.8,1.7-5.9l0,6.1L-13.8,62.5z
			 M-11.3,56.5c0.2,0.3,0.3,0.2,0.5,0.8c0.2,0.4,0-0.1,0.2,0.6l1.1,4.6l-1.8,0.2L-11.3,56.5z"/>
		<path class="st1" d="M70.7,149.9c-1.4-1.2-1.1-2.3-1.9-3.5c-3.3,2.9-2.2,4.3-2.5,11.1c-0.2,4.2,1.1,8.1,1.3,12.4
			c0.3,4.3,0,8.9-0.6,13.2c-0.4,3.4-1.6,8.5-1.8,11.5l30.2,0.1c-0.3-6.8-3-12.8-2.3-24.7c0.3-4.2,1.5-8.4,1.4-12.4
			c-0.4-10.2,0.5-7.9-2.6-11c-0.7,1-0.4,1.9-1.6,3c1-4.2,1.2-5.5-1.7-7.9c-2.2-1.9-5.5-2.5-8.7-2.5c-3.3,0.1-6.6,1.1-8.5,2.7
			C68.8,144.1,69.9,146.8,70.7,149.9 M74.5,147.1c0.1-0.1,0.2-0.1,0.3-0.2l0.6-0.3c3.9-1.7,1-0.2,4.9-2.8c1.2,0.6,1.4,1.2,2.9,2
			c1.4,0.7,2,0.5,3.1,1.4c-1.1,1.2-2,2-3.3,3.4c-0.9,1-0.7,0.9-1.3,1.9c-0.2,0.4-0.4,0.7-0.6,1l-0.8,0.9c-1.2-1.6-1.3-2.2-2.7-3.8
			C76.6,149.3,75.5,148.2,74.5,147.1z M70.7,149.9c0.1,0.1,0.2,0.1,0.2,0.2l2,2c6.6,6.9,8,7.1,14.1,0.9l3.3-3.5
			c-0.8,2.4-7.8,8.4-9.6,8.5C77.6,158.2,71.1,151.1,70.7,149.9z"/>
		<path class="st1" d="M137.2,129.8c0.2,1.5,0.5,1.6,1.4,2.5c-1.5,0.7-1.2,0.3-2.5,1.4l2.7,0.9l-0.8,1c2.4-0.2,1.3,0,1.9,0.4
			c-0.3,2.7-2.6,9.6,3.4,4.9c0.1-0.1,0.2-0.1,0.3-0.2c-0.9,10.7-9.5,15.7,1.7,24.7c3.8,3,3,5.6,2.9,11.9l-18.6,0l0.1-3.2
			c-3.6,1.8-9.3,3.7-10.3,4.3c1.4,0.9,6.1,2.1,9.4,3.9l0.5,0.3c0,0,0.2,0.1,0.2,0.1l0-3.2l21.6-0.1l0,30l3.2,0l0.2-29.9l18.2-0.1
			l3.3,3.8l12.5,0c-1-2.2-2.8-3.1-4.1-4.9l4.1-4.8l-12.1,0c-1.7,0.7-2.3,2.5-3.7,3.5c-3.1,0.9-11.3,0.2-15.2,0.3l-0.1-6.7
			c4.7-1.9,4.9-5.3,6.6-7.5c1,1.4,0.3,1.9,0.8,2.8c1.6-1.9,2.2-2.8,1.7-6.3c1.9,1,2.2,2.7,1.8,5.5c3.2-2.5,2.5-4.9,1.5-9.1
			c2.9,0.9,2.5,1.9,3.1,4.9c0.6-1.2,1.2-2.6,1-4.2c-0.2-1.6-1-2.1-1.7-2.8l-0.7-0.7c-0.1-0.1-0.2-0.2-0.2-0.2
			c3.8-0.3,4.3,0.4,5.4,3.3c2.5-4.8-5.7-5.8-6.1-6c4.4-1.1,6.7-0.2,10.1,1.4c-1.2-4.3-5.4-4.8-10.3-4c2.1-4.4,9.3-2.1,12.7,0
			l0.4-0.3c-1.5-2.1-1.9-3.9-5-4.9c-3.3-1.1-6,0.3-8.6,1.4c1-1.8,5.2-5.3,8.8-5.1c4.3,0.3,6.1,3.7,8,5.9c-0.7-2.5-2.5-5.3-3.7-7
			c-1.2-1.7-4.1-3.6-7.5-2.7c-3,0.7-4.7,3.1-6.2,4.6c-6.7,6.4-10.3,18.8-15.5,6.2c-1.7-4.2-2.5-7.8-5-11.4c-1.2-1.8-1.2-1.3-3-2.4
			c0.5-3.8,0.7-4.7-2.6-4.6C139.8,127.5,139.2,128,137.2,129.8 M169.6,144C170,143.6,169.4,144.2,169.6,144z M150.2,177.2
			c0-1.2-0.3-6,0.1-6.9c0.3-0.6,0.2-0.7,1.3-1c1.7-0.4,3,0.4,4.1,0.9l-0.2,7L150.2,177.2z"/>
		<path class="st1" d="M52.3,102.3c-3.7,1.8-2.2,9.4-2.2,10.5c0.1,2.2-0.9-0.2,0.1,7c12.2,4.8,34.4,6.1,49,4.1c5.1-0.7,7-1.7,10.9-3
			c0.5-4.3,0.4-5.3-1.6-7.9c-1.8,0.2-0.6,0-2.1,0.9l0.4-0.4c0.1-0.1,0.3-0.4,0.4-0.5c0.6-1,0.1,0.6,0.6-1.3
			c-1.4-0.5-2.2-1.2-4.2-1.4c-5.1-0.6-3.1,1.1-7.3-0.7c-8.5-3.6-2.6-0.4-5.6-3.6c-1.6,0.2-0.9,0.8-2.1,0.4c-1.6-0.5-0.4-0.4-1.2-2.3
			c-5.2,0.4-3,0.7-4.2-2.7l-2.8,0l-0.2-1.5c-0.5-2.6-2.5,0-3.2-2.4c-0.4-1.4,0.7-3-2.8-2.2c-0.1,0-0.2,0.1-0.3,0.1l-3.2,0.9l-1.5-3
			l3.7-0.2c0.2,0.6,0.2,0.7,0.6,1.1c0.1,0.1,0.1,0.2,0.2,0.2l0.7,0.7c-0.4-0.9-0.8-1.3-0.9-2c-0.1-0.6,0.9-1.1-0.5-2
			c-0.1,0-0.2-0.1-0.3-0.2c-0.7-0.4-1.5,0.1-2.5-3.1c-10.4,1.3-9.7,2.3-20.8,0.3c0.4,2.8,1.5,5.4,2,10.5L52.3,102.3z M66.3,89.2
			l3.6-0.7l1.1,2.4l-3.1,0.5L66.3,89.2z M65.9,91.8c-1.3,1.3-1.6,0.7-1.4,2.6c0.9,0.2,0.8,0,1.5,0c1,0,0.4-0.1,0.9,0.2
			c-1.6,1.2-1.9,1.2-3.6-0.1l0.3-2.5L65.9,91.8z M68,98.7c1-1,5.4-2.6,7.1-2.6c0.9,0,0.9,0.2,1,0.2c-0.5,1.1,0.2,0.4-1.7,0.9
			C71,97.9,69.1,99.5,68,98.7z M72.3,98.7c2.6-1.6,3.9-1.3,4.9,0.5l-3.2,1.6L72.3,98.7z M66.6,99.9c-0.6-1.8,0.4-3,2.3-2.6
			c-1.3,0.9-1.5,0.6-1.5,2.3c1.2,0.4,1.8,0.1,2.5-0.2C69.3,100.6,68.5,101.6,66.6,99.9z M73.7,103.6c-2.8,4.1-5.9-1.8-1.4-2.3
			c-0.9,1.2-1.1,0.5-1.2,2.2C72.4,104.5,72.2,104.2,73.7,103.6z M77.2,104.5c-1-0.8-1.1-0.6-1.8-1.8c1.4-1.2,3.4-1.8,4.8-1.2
			c-0.3,1,0,0.3-0.5,1L77.2,104.5z M79.4,105.9c0.4-0.8-0.1-0.2,0.7-1c2.3-2.2,3.5-0.7,4.4,0.2c-0.5,0.6,0,0.1-0.6,0.8l-1.6,1.6
			L79.4,105.9z M78.2,107c-1.6,5.3-6.5-1.7-1.8-1.7c-0.9,0.7-0.9,0.8-0.9,2.2C76.9,108.3,77.4,107.5,78.2,107z M88.5,106.9l-0.8,2
			c-1.3,0.2-1.7-0.2-3-0.6C86.4,105.6,87.6,106.7,88.5,106.9z M96.6,110.2l-1.1,1.9c-1.8-0.7-2.9-1.8-5.7-2.2
			C90.8,107.1,90.6,108.4,96.6,110.2z M82.5,108.4c0.7-0.9,2.9-4,4.4-3.2c-1.3,1.8-2.2,0.7-4.5,5.1l-1.1-1.8
			c-0.3,1.2-0.3,1.6,0.4,2.4c1.7,0,1.1-0.7,2.2-1.2l-0.6,1.9c-3.8,0.7-4.3-1.9-1.9-3.4C82.3,108.5,81.4,108.6,82.5,108.4z M97,110.5
			c0.1-0.1,0.2,0.1,0.2,0.3c0,0,0.1,0.1,0.1,0.1C97.2,110.8,96.3,111.7,97,110.5z M87.5,113.6c-1.7-1.1-1.7-1.7-1.1-3.6
			c1.1,1.4,0.4,1.4,1.1,2.6c1.9,0,1.3,0,2-1.5C90.1,112.7,89.1,113.4,87.5,113.6z M106.3,113.9c-0.1,0.1-0.2,0.1-0.2,0.2l-5.4,2.2
			c-2.1,0.5-4.6,0.9-6.8,1.2c-6.1,0.6-39.1,1.3-43.7-4.3c0.9,0.3,0.2,0,1.2,0.4c3.6,1.5,6.9,2.3,10.8,2.6
			c-0.2-5.9-2.7-10.4-7.8-12.8l-2.1-1.1c3.1,0.2,6.1,3.2,7.4,5c2.7,3.4,1.8,5.9,3.4,9.1c5.8,1.3,26.7,1.8,32.3,0.3
			c0-1.5,0.2-3.7,1.1-4.9c0.4-0.5,0.3-0.3,0.6-0.6c-0.6,2.1-1.2,2.8-1.2,5.4C101.2,116.3,103.2,114.7,106.3,113.9z"/>
		<path class="st1" d="M17.1,83.2c-4.9-1.6-9.3-0.7-10.4,4c-3.4-0.7-4.2-0.1-5.3,2.4c-1.1,2.5-3.2,1.4-3.8,4.9c-0.9,4.7,3,5.6,4,6.5
			c0.9,0.8,1.2,3.1,4.2,1.9c1.2,1.3,3,5.5,7.6,3.4c3.5-1.6,1.4,0.2,5.9,0.2c0.9,2.3,2,3.7,4.9,4c4.2,0.3,4.3-2.7,5.8-3.4
			c0.9-0.4,1.3,0.2,3.1-0.7c3.5-1.9,6.1,2.1,7.7-5.5c8.8,0,8.3-10.4,0.3-10.5c-1.8-0.4,0.1-2.5-4.1-2.4c-0.4-5.3-4.6-4.8-6.1-6
			c-0.9-0.7-0.9-1.1-2.4-2C23.9,77.4,18.4,79.8,17.1,83.2"/>
		<path class="st1" d="M121.5,229.3c-5.1-1-3.9,1.6-6.3,2.7c-2.4,1.1-4.5,2.1-4.7,5.4c-0.7,8.4,9.3,6.9,13.1,7c0-2.1,0.6-3.6,1-5.2
			c0.6,1.1-0.2,1.8-0.4,3c-0.2,1.4,0,2.8,0.4,4c2.5,6.5,11.7,4.5,22,4.5c6.3,0,11.2,1.1,14.1-3.6c1.7-2.8,1.6-7.6-3-10
			c-0.6-0.3-0.2,0-0.8-0.4c-1.9-1.2-0.3-2.9-2.6-5.8c-0.9-1.2-2.3-2.6-4.4-3.3c-2.1-0.7-4.3-0.6-6.1,0.2c-3.7,1.6-1.3-0.6-5.9-0.2
			c-1.4-2.7-4.3-5.2-8.9-4.7C124,223.6,123.7,226.4,121.5,229.3 M125.1,239.5c0.5-1.6,1.8-2.3,3.1-2.9c3.1-1.4,1.2-0.1,2.9-3.1
			c0.7-1.2,1.7-2.2,3.3-2.7c1.8-0.6,3.5,0,5.1,0.3c0.8-1.4,1-1.9,2.4-2.4c-0.1,0.1-0.1,0.1-0.2,0.2c-0.1,0.3-1.3,1.1-2.2,2.9
			c-4.8-1.7-8.5-0.2-8.9,4.5c-1.9,0.1-2.9,0.7-4.4,2L125.1,239.5z"/>
		<path class="st1" d="M120.4,88.1c-1-0.1-1.3-0.2-2.2,0c-1.6,0.5-0.8,0.6-1.5,1.2c-1.6,1.3-2.4,0.4-3.4,2.2
			c-1.8,3.2,0.4,6.2,3.1,6.5c3.5,0.5,17.9,0.3,21.1-0.7c-1.5,2.1-7.3,1.1-11.5,1.3c-0.7,7.2,2.8,11.5,6.2,14.4
			c5,4.2,10,4.1,16.7,2.4l-3.9-3.2c-1.9-1.8-2.1-1-5.2-1.8l13.3,0c4.8,0,9.6,0.5,9.6-4.8c0-2.6-1.1-3.4-2.6-4.2
			c-2.2-1.3-0.5-2.3-2.6-4.5c-3.1-3.3-7.4-2.5-9.3,0.9c-7-1.6-4.5,1.7-6.9,3.2c-0.7,0.4-3.6,1.1-3.6,4.7c0,2.6,1.4,3.2,2.3,4.4
			c-1.9-0.7-3.6-3.6-2.4-6.3c0.8-1.7,1.5-1.2,1.8-2.9c0.3-1.5,0.1-3,0.5-4.7c1.2-4.7,5.1-9.7,9-10.7c-1-1.1-2-1.3-3.6-1.6
			c-3.9-0.7-8.5-0.1-11.7,2.4c-0.1,0-0.2,0.1-0.2,0.2c1.6,1.7,1.2,1.7,3.1,3.1c0.5,0.4,0.5,0.3,0.7,0.5c-4-0.7-1.1-1.9-3.9-2.9
			c-1.5-0.6-1.2,0.2-2.5-0.7c-0.7-0.5-0.6-0.9-1.9-1.7C125.2,82.6,121.1,84.6,120.4,88.1 M137.1,90.2c2.8,1.2,2.7,5.1,1.3,6.6
			c-0.9,1,0,0.2-0.9,0.7l0.5-0.7c0.2-0.3,0.1,0,0.5-0.8c0.3-0.6,0.5-1.1,0.4-2.1C138.8,91.8,137.9,91.4,137.1,90.2z"/>
		<path class="st1" d="M-10.9,229.5c0.4,1.7,0.5,3.2,0.8,4.7c0.1,0.2,1.6,3.4,1.8,4c3.2-0.6,8-2.6,11.3-2.7l-2.9,1.2
			c1.4,1.9,5,4.5,8.4,5.6c5.8,2,12,1.6,17.7-0.7l10.7-2.4c2.7-0.3,4.8-0.2,6,1.1c-3.2-0.7-3.3-1-7.1-0.6c1.3,1.4,6.2,4,8.5,2.1
			c1.1-0.9,0.4,0.1,0.8-1.1c-2.2-3.4-5.4-2.1-9.8-2.4c1.1-0.7,3.5-0.6,5.4-0.7l-2.3-1.3c-4.2-1.8-5.5-3.3-6.6-3.8
			c-2.5-1.1-9.7,0.3-12.9,0.2c1.9-0.8,6.3-0.7,8.8-0.7c5.2,0,4.3-0.1,2.6-4.7c-2.6-7.2-2.1-9.6-11.5-7.9
			C8.5,221.3-2.7,225.1-10.9,229.5 M-4.6,230.7c2.2-0.7,4.8-2.2,7.2-3.2c8.1-3.2,16.2-4.9,25.1-5.4l1.5,5.6
			c-11.6,0.5-22.5,2.1-32.7,5.8L-4.6,230.7z M-6.2,234.2C-11.8,234.9-4.2,228.9-6.2,234.2z M3.1,235.5c1.8-1.1,13-2.9,16-2.8
			C19.1,232.7,3.7,235.5,3.1,235.5z M35.5,238.3l-6.5,2.4C30.4,239.6,33.7,238.4,35.5,238.3z M43.1,240.3c0.8,0.3,0.6-0.2,1.2,1.2
			L43.1,240.3z"/>
		<path class="st1" d="M137.7,265.6c-5.1,1.5-11.5,1.4-16.1-0.5c-1,7.7-1.2,15.4-1.3,23.2c0,8.6,4.1,6.7,17.6,6.9
			c3.8,0.1,7.9-0.4,8.3-3.8c0.4-3.6-3.9-4.5-6.3-5.8C133.7,282.1,136.8,272.8,137.7,265.6 M132.3,280.2c-0.8,0.9,0.2,0.2,0.2,0.3
			c0,0-0.1,0-0.1-0.1C132.4,280.3,132.4,280.1,132.3,280.2z M126.7,278.7c0.8-0.5,0.6,0.1,1.3-0.1c0.8-0.2-0.5,0.6,0.4-0.2l0.4-0.6
			c2.3,3.2-0.1-0.7,2.1,0.9c-0.6,1.4-1.4,1.8-1.5,3.6c1.8-0.6,1.1-1.3,2.4-3.1c1.5,0.8-0.2,0.4,1.8,1.5c0,0.1-0.1,0.5-0.2,0.6
			c-0.1,1.9,0.7-0.3,0.6,1.7c-1.5,0.2-2.9-0.2-3.8,0.6c1.3,0.8,2.2,0.2,3.9,0.4c-0.3,1-0.3,0.5-0.4,0.8l-0.2,0.8
			c-0.3,0.9,0.6-0.1-0.3,0.8l-0.7,0.4c0,0-0.1,0.1-0.1,0.2c-0.4,0.6,0.1,0.5-0.6,0.9c-1.2-1.5-0.7-2.2-2.5-3.2
			c0.3,2.1,1,1.9,1.6,3.8c-1.7,0.9-0.3-0.1-1.2,0.1l-0.3,0.1c0,0-0.1,0.1-0.2,0.1c-0.9,0.3,1.2,0.3-0.5,0.1
			c-1.8-0.2,1.7,0.6-0.5-0.2l-0.5-0.2c-1-0.1,0.8,0.9-1.1,0c0.4-1.5,0.4-0.9,0.9-1.9c0.3-0.5,0.3-0.5,0.4-1c0.1-0.8,0-0.5-0.1-0.8
			c-1.1,0.9-1.3,1.9-2.1,3.1c-1.2-0.6,0,0-0.8-0.9l-0.5-0.6c0,0-0.1-0.1-0.1-0.2l-0.1-0.9c0,0,0-0.1,0-0.2l-0.8-1.2l4-0.2
			c-1.3-1.3-0.6-0.5-3.9-0.6c0.1-2.2,0.3-0.2,0.6-1.2l-0.2-1.3c3.4,0.1-0.8-0.1,1.9-1.3l2,3.1c0.1-0.2,0.9,0.2-0.1-1.7
			C127.4,279.9,127,279.5,126.7,278.7z"/>
		<path class="st1" d="M59.5,196.4l4.4-2.5l-0.8-1.8l-3.2,1.1c1.4-1.7,2.4-0.8,3.3-2.4c1.1-2.7,0.2-7.7,0.1-10.9
			c-0.4-11,3.5-18.3,2.4-31.5c-9.4,0.3-10.7,13.8-11.3,21.1c-0.5,5.3-0.9,10.7-0.5,16c0.6,6.8,1,7.2,3.6,8.4
			C59.2,194.6,58.3,194.9,59.5,196.4 M59.9,193c-0.1,0.2-0.1,0.4-0.6,0.6c-0.5,0.2-0.4,0.1-0.9,0.3L59.9,193z"/>
		<path class="st1" d="M98.2,191.9l-1.4,2c1,1.2,3,2,4.5,2.6c0.8-1.6,1.5-1.7,0.2-3.1c2.8,0.6,3.6,0.3,4.3-2.4
			c1.8-6.4,1-15.5,0.4-22c-0.9-9-2.5-20-11.4-20.7c0.3,7.8,0.3,14.8,2,22.3c1.2,5.1,0.4,11,0.2,16.5c-0.1,1.8-0.2,3,0.9,4.4
			L98.2,191.9z M98.2,191.9l3.3,1.6c-0.9-0.2-1-0.2-1.9-0.6L98.2,191.9z"/>
		<path class="st1" d="M66.1,232c2.7,0.7,21.9,0.7,24.7,0c0.8-2.2,1.3-10-0.4-12.2c-2.5-3.2-6.9-2.2-11.7-2.2c-4.6,0-9.4-0.9-12,2
			C64.8,221.8,65.2,229.8,66.1,232"/>
		<path class="st1" d="M80.7,289.6l1.3-1.1c0.5-0.3,1-0.6,1.4-0.8c-5.9,0.9-11.4,7.8-11.8,14.7c-0.4,7.7,5.1,14.8,10.9,16l-1.6-1.4
			c0,0-0.1-0.1-0.2-0.2c2.9,0.8,8.7,5.3,17.1,0.8c4.1-2.2,8.4-7.1,8.6-13.9c0.2-6.8-3.9-12-7.8-14.3C89.7,284,83.9,288.7,80.7,289.6
			 M102.7,305.9c-3.4,16.5-29,11-25-5.8C81.5,284.4,106.2,288.8,102.7,305.9z M80.7,289.6l-1.2,1.2c-6.9,5.6-8.3,17.3,0.5,25.1
			l0.8,0.8c-7-2.4-11.1-18.5-1.8-26.1L80.7,289.6z"/>
		<path class="st1" d="M15.4,305.2l6.4,0.1c0.6-1.1,0-0.2,0.5-1.2c0.1-0.1,0.2-0.5,0.3-0.6c0-0.1,0.1-0.2,0.2-0.3
			c0-0.1,0.1-0.2,0.2-0.3c0-0.1,0.1-0.2,0.2-0.3l0.1,5.1c4.7,1.6,5.3,2.5,6.8,3c-1-3.6-3.3-8.2-7-8.2c1.3-6.9,3.9-14.5,5.7-21.4
			c2-7.9,4.1-7.7-1.7-13.5c-1.5-1.5-2.6-2.9-3.7-3.5L15.4,305.2z"/>
		<path class="st1" d="M-3.7,86.3c-3.4-0.2-2.4,0.5-3.6,2.3c-9,0.4-8.8,10.4,0,10.5c0.5,7.1,5.2,4.3,7.1,5.2
			c1.7,0.8,0.9,1.2,3.7,0.7c1,3.7,4.3,4.1,8.1,3l-1-0.4c-0.3-0.1-0.7-0.2-1-0.3c-2.2-0.7-2.8-1.1-3.9-3.4c-5.1,0.1-2.7-1.3-5.7-3
			c-1.8-1-3.4-2.6-3.2-5.8c0.2-3.4,2.5-3.6,3.7-5.3c1.7-2.5,1.5-3.8,5.7-3.5c2.8-6.8,9.8-4,10.5-4.3c0.1,0,0.2-0.1,0.2-0.1l0.4-0.3
			c-0.1,0-0.2-0.1-0.2-0.1c-0.4,1.1-4.9-6.7-11.7-3.5c-1.3,0.6-1.7,1.3-2.4,2C0.6,82.2-2.9,80.2-3.7,86.3"/>
		<path class="st1" d="M37.7,329.9c1.9-11.3-6.5-20.1-15.6-21.7c-10.6-1.9-20.2,5.2-22,15.4c-2.2,11.7,6.1,20.7,15.6,22.2
			C27.2,347.8,36.1,339.6,37.7,329.9 M15.8,310.5c10-1.9,18.1,5.3,19.5,13.5c1.7,10.1-5.5,18.1-13.7,19.5
			C-0.1,347.2-6,314.6,15.8,310.5z"/>
		<path class="st1" d="M15.1,302c0.9-4.5,3.5-14.8,2.7-18.9c-1.2-6.1-2.2-13.1-3.7-19.1l-6.3,6.6c-2.1,2.4-0.7,4,1.1,10.2
			C9.4,282.5,14,300.5,15.1,302"/>
		<path class="st1" d="M1,179l-0.1-3.7c-7.5-1.5-9.4,2.6-9.4-10.2c0-2.9-0.6-6.9,1.1-8.9c2.1-2.3,5.1-1,8.3-1.7l0-3.7
			c-4.1-1-8.8,0.1-11,2.3c-2.8,2.8-2.4,6.8-2.4,11.6C-12.5,172.9-12.8,180.6,1,179"/>
		<path class="st1" d="M133.4,71.1c-1-2.7-0.2-7.4-0.4-10.4l0.7,0.4l1,0.1l0-0.4h4.3c1.5-9-1-7.2-9.9-7.6l-10.9,0.1
			c2.1,0.8,6,0.2,8.5,0.2l0,2.7l-8.7,0l0.1-2.7c-2.6,0.8-1.8,5.3-1.6,8c0.2,2.9,0.8,6.6,1.2,9.6L133.4,71.1z M129,53.4l8.3,0.2
			l0.3,2.6l-8.7,0L129,53.4z M118.2,56.9c2.1-0.3,6.8-0.5,8.5,0.1c-0.3,2.7,0.3,0.4-1.7,1.6l-0.5,0.3c-2.5,1.8,1.6-0.5-0.7,0.6
			l-5.7-0.1L118.2,56.9z M130.1,58.4c-1.2-0.8-0.9,1.2-1.1-1.4c1.1-0.4,3-0.2,4.5-0.2c4.6,0,4.2-0.8,4.2,2.8l-6.2,0
			c-0.1-0.1-0.1-0.2-0.2-0.3L130.1,58.4z M117.9,61.2l3.7,0l0.1,2.6l-3.4-0.2L117.9,61.2z M123,61.1l3.2,0.2l0.1,2.4l-3.3,0.1
			L123,61.1z M129.4,61.2l3.2-0.1l0,2.8l-3.2-0.2L129.4,61.2z M118.3,64.4c0.5,0,1.7-0.1,2,0c2.1,0.2,0.7-0.3,1.4,0.7l0,1.6
			l-3.1-0.1L118.3,64.4z M123,64.3l2.9,0.2c1.2,1.6-0.3,1.2,2.8,1.2c1.5-0.5-1.2-1.2,3.9-1.4l0.1,2.5l-9.7-0.1L123,64.3z
			 M118.6,67.3l3.1,0l0,2.6l-2.6-0.1L118.6,67.3z M123,67.2l9.7,0.1l0,2.7l-2-0.1l-5.6,0L123,70L123,67.2z"/>
		<path class="st1" d="M47.8,245.9c0.7,0.5-0.8,0.5,1.7,0.5c0.4,0,1.2-0.3,1.7-0.4c1.2-0.5,2.1-1.3,2.8-1.4c0.1,0,6.1,2.1,12.1-3.7
			c2-1.9,2.9-6.4,1.2-7.9c-0.7-0.6-1.8-0.7-2.3-2.8c-0.9,0.5-0.6,0.3-1.4,1c-2.4,2.3-3,3.8-7.5,6.5c-2.8,1.7-2.9,1.5-3.1,5.1
			C52.8,245.8,50,244.3,47.8,245.9"/>
		<path class="st1" d="M89,233.5c0.1,4.7-0.4,7.1,6.5,10.3c6.4,3,3.6-0.9,9.6,2c1.3,0.6,2.6,0.9,3.6,0.1l-2.5-0.9
			c-1.1-0.3-1.7-0.7-2.6-1c1-6.4-0.9-4-8.2-10.6c-1.3-1.2-1.8-2.2-3.3-3.4C90.4,234.1,91,231.7,89,233.5"/>
		<path class="st1" d="M91.6,280.4c1-1.7,7.1-13.9,7.5-15.7l-5.4,0l-3.7,12.5c-0.8-1.9-2.6-9.8-3.5-12.5l-5.4,0
			c0.5,1.8,4.9,10.3,6.4,13.3C88.6,280.2,89.5,280.9,91.6,280.4 M89.1,280c0.1-1.1,0.1-1.8,0.8-2.8C89.9,277.9,89.8,279.8,89.1,280z
			"/>
		<polygon class="st1" points="68.6,238.3 70.3,238.2 84.7,238.3 88.3,238.3 88.4,233 68.5,233 		"/>
		<path class="st1" d="M66.6,198.1c2.5,0.5,26.1,0.5,27.7-0.2l0.2-2.6l-28.3,0c0,0.3,0,1.1,0,1.4C66.5,198.8,65.4,195.4,66.6,198.1"
			/>
		<path class="st1" d="M23.7,158.3c-7.3,2.2-3.7,12.4,3.1,9.8C32.7,165.8,30.1,156.3,23.7,158.3 M25.3,164.5
			c1.7-1.4,1.2-1.4,3.3-2.4c0.4,4.3-7.4,4.4-7.2-1.2C23.3,162.1,24.5,162,25.3,164.5z"/>
		<path class="st1" d="M86.9,296.3l0,1.6l2.3,0.3l0,14.4l3,0l0-19c-2.7-0.1-1.5-0.3-2.7,1.1C88.1,296.3,88.4,295.3,86.9,296.3"/>
		<polygon class="st1" points="13.6,192.9 36.2,192.9 36.4,190.3 13.5,190.3 		"/>
		<polygon class="st1" points="16.3,271.6 21.1,271.6 22.6,264 14.9,263.9 		"/>
		<path class="st1" d="M8,310.7c1.4-1.6,5-2.4,6.4-3.2l-0.1-5.1c-4.5,0.7-6.8,7.7-6.7,7.8L8,310.7z"/>
		<path class="st1" d="M133.4,71.1l4.3,0l1.3-10.4h-4.3l0,0.4l3.1,0.1l-0.3,2.6l-3.4,0c1.2,0.8,1.8,0.5,3.3,0.6l-0.2,2.3
			c-2.5,0-1.9-0.2-3,0.5l2.8,0l-0.2,2.7L134,70l-0.2-9l-0.7-0.4C133.3,63.6,132.4,68.3,133.4,71.1"/>
		<path class="st1" d="M123,264.7c0.4,0.4,0,0.3,1,0.7c0.3,0.1,1.2,0.3,1.6,0.4c1.2,0.2,2.7,0.3,3.9,0.3c2.1,0.1,5.1,0.2,6.7-1
			C134.4,263.1,124.6,263.1,123,264.7"/>
		<path class="st1" d="M37.4,119.3c-3.4,1.6-1,6.3,2.1,5.1C42.6,123.2,41,117.7,37.4,119.3"/>
		<path class="st1" d="M6.5,120.5c-4.6-1.7-6.2,2.2-4.1,4.2c1,1,2.8,0.9,3.8,0C7.4,123.4,6.9,121.7,6.5,120.5"/>
		<path class="st1" d="M6.5,131.3c-0.5,1.6-0.5,1.9,0,3.6C12.8,136.8,11.1,128.9,6.5,131.3"/>
		<path class="st1" d="M-2.3,109.2c-1,4.4,2.6,4.8,3.8,3C2.9,109.8-0.1,107.5-2.3,109.2"/>
		<path class="st1" d="M14.9,113.7c1.4,0.7,2.1,1,3.5,0c1.1-1.4,0.7-2,0.1-3.5C15.1,109.4,14.2,110.3,14.9,113.7"/>
		<path class="st1" d="M33.6,110.3c-0.9,0.7-1.6,1.9-0.5,3.2c0.6,0.7,2.1,1,3.1,0.2C38.2,112.1,36.2,108.2,33.6,110.3"/>
		<path class="st1" d="M11.7,124.1c-0.9,3.9,2.2,4.5,3.5,2.7C16.8,124.7,13.8,122.5,11.7,124.1"/>
		<path class="st1" d="M26.1,117.2c3.3,1,4.8-1.4,3.1-3.1C27.5,112.3,25,113.7,26.1,117.2"/>
		<path class="st1" d="M8,113.4c-2.8,1.2-1.4,4.8,1.3,3.9C11.9,116.4,10.1,112.5,8,113.4"/>
		<path class="st1" d="M20.5,123.7c-1.9,4.9,4.2,5,3.3,0.6C23.1,123.8,21.7,123,20.5,123.7"/>
		<path class="st1" d="M24.7,154.4c1.3-0.5,0.9,1.6,0.9-4.1c0-4.7,0.4-3.9-0.9-4.2c-0.7,0.8-0.5,4.6-0.5,6.3L24.7,154.4z"/>
		<path class="st1" d="M41.1,131.4c-0.7,4.3,2.6,2.9,3,1.9C44.9,131.4,42.5,130.1,41.1,131.4"/>
		<path class="st1" d="M91.6,286.2l1.9,0.5c0.4-2.9,0.5-4.6-1.9-5L91.6,286.2z"/>
		<path class="st1" d="M87.1,286.6l1.2-0.2c0.7-1.3,0.5-3.4,0.3-4.8C86.1,282.7,86.2,285,87.1,286.6"/>
		<path class="st1" d="M90.3,284.5c0.8-0.5,0.8,0.4,0.8-1.8c0-2,0-1.4-1.2-1.7c-0.3,0.4-0.7-0.7-0.7,1.7
			C89.2,285.3,89.4,284.1,90.3,284.5"/>
		<path class="st1" d="M46.8,124.5c-3.7-1.5-2,3.8,0,1.9c0.3-0.3,0.3,0.5,0.4-0.9C47.2,123.7,47.1,125,46.8,124.5"/>
		<path class="st1" d="M30.6,125.3c-0.4,0.7-0.4-0.9-0.4,0.9c0,1.4,0.2,0.7,0.3,1C33.7,128.5,33.3,124.2,30.6,125.3"/>
		<path class="st1" d="M41.3,114.5l1,0.5c1.3-0.5,0.7-0.2,1.4-1.1C43,111.8,40.6,111.5,41.3,114.5"/>
		<path class="st1" d="M24.1,134.4c0.6,0.4-0.9,0.5,1,0.4c1.4-0.1,0.6-0.1,0.9-0.3C27.2,131.5,23,131.5,24.1,134.4"/>
	</g>
</g>
</svg>
