<?xml version="1.0" encoding="utf-8"?>
<!-- Generator: Adobe Illustrator 24.3.0, SVG Export Plug-In . SVG Version: 6.00 Build 0)  -->
<svg version="1.1" id="Layer_1" xmlns="http://www.w3.org/2000/svg" xmlns:xlink="http://www.w3.org/1999/xlink" x="0px" y="0px"
	 viewBox="0 0 424.7 410.5" style="enable-background:new 0 0 424.7 410.5;" xml:space="preserve">
<style type="text/css">
	.st0{fill-rule:evenodd;clip-rule:evenodd;fill:#FFFFFF;}
	.st1{fill:#FFFFFF;}
</style>
<g id="Layer_x0020_1">
	<g id="_1870299745088">
		<g>
			<path class="st0" d="M214.2,257.6c-19.9,0-34.2-4.1-51-12.4c-1.7-0.9-4.6-2.1-5.8-3.4c2.4-2.7,8.3-5.2,13.1-5.8
				c17.2-2.3,24.3,12.1,45.2,11.4c11.8-0.4,19-6,27.8-10c4.6-2.1,9.7-3.6,15.6-2.9c4.5,0.5,11.2,3.2,13.1,5.7
				c-2.1,1.9-9.1,5.5-12,6.8C246.2,253.7,230.7,257.6,214.2,257.6L214.2,257.6z M134,222.4c4.8-0.9,12.7-6,17.9-8.2
				c14.7-6,28.5,2.8,41.1,7.1c7.3,2.5,14.1,3.6,22.6,3.3c18.4-0.5,26.7-8,39.8-12.1c13.5-4.3,19.8-0.1,30,5.4
				c4.5,2.4,7.5,2.9,8.9,3.6c-3,4.6-12,11.6-17.2,15.5c-4-2.8-7.4-5.5-13.6-7c-19.9-4.8-30.2,12-48.2,12.3
				c-19.9,0.4-28.3-16.1-49.1-10.6c-7.8,2.1-9.2,4.4-13.4,7C150.1,237.8,135.2,225.7,134,222.4L134,222.4z M399.2,187.6
				c15-2.4,19.8,20.7,3.3,23.3C385.9,213.6,383.4,190.2,399.2,187.6z M22.1,187.6c7.1-1.2,12.7,4,13.8,9.8
				c1.4,7.4-3.6,13.2-9.9,13.7C8.8,212.6,6.6,190.3,22.1,187.6L22.1,187.6z M391.3,214.1c2.4,0.8,3.2,1.6,6.2,1.9
				c2.6,0.3,5.3,0.1,7.6-0.4c15-3.8,16.2-22.2,6.7-29.2c-7.8-5.8-17-5.3-23.3,1.2c-2.4,2.4-4.7,6.1-5,10.9
				c-0.5,8.1,3.1,9.8,3.7,12.5c-2.9,2-5.2,3.9-10.2,4.1c-4.4,0.2-8.2-1.4-11.2-3.1c-6.2-3.4-11.7-7.6-20.7-8
				c-18.2-0.8-27.5,13.9-44,13.3c-17.1-0.6-22.4-16-44.9-10.3c-7.5,1.9-13.5,5.5-20.4,8.2c-32.8,13-49.6-5.7-69.1-7.7
				c-20.7-2.1-26.7,12.1-44.6,11.9c-17.3-0.3-24.5-15.3-42-15.4c-9.8,0-14.6,4-21.1,7.6c-7.3,4-18.2,4-21.6-1.1
				c2.2-3.8,4.3-6.4,3.6-12.7c-1.4-13.5-17.5-20.4-28.4-11.3c-9.8,8.2-6.8,25.9,7.3,29c7.8,1.7,11-1.1,13.8-1.6
				c4.7,5.2,15.7,7,24,3.7c7.6-3,12.5-9,22.7-8.8c8.5,0.2,16.2,5.8,22.1,9.4c11.2,6.7,14.9,5.7,25.8,5.8
				c3.7,5.8,17.4,16.8,25.1,21.4c28.4,17.1,61.9,22.2,94.3,11.9c18.2-5.8,37.7-17.5,49.7-31.7c3.7-4.4,1.4-2.9,8.2-3.6
				c18-1.8,31-21.7,52.1-9c4.3,2.6,10,6.3,16.3,6.9c5.1,0.5,10.2-0.8,14.2-3.5C389.5,215.8,390.3,214.7,391.3,214.1L391.3,214.1z"/>
			<path class="st0" d="M171.4,156.8c2.7,3.2,6.1,6.2,9,9.5c5.7,6.4,12.3,13,18.1,19.4c2,2.2,7.9,7.9,9,9.9
				c-8-3-13.6-11.5-25.8-10.4c-11,1-16.4,11.2-26.4,9.8c-2.5-0.3-4.5-1.5-6.1-2.7c-3.8-2.8-3.3-3.8-2.1-5.3l19.9-25.3
				C168,160.4,169.9,157.4,171.4,156.8L171.4,156.8z M221.8,195.2c1-1.6,2.9-3.4,4.3-5l13.7-15.2c3.3-3.3,6.1-6.7,9.2-10l6.9-7.4
				c0.9-1.1,1.4-1.9,2.6-2.4c1.5,1,11.4,13.1,13,14.9l12.5,15.3c-1.1,4.9-7.9,8.3-14.4,7.4c-5.5-0.8-10.3-4.7-15.6-6.5
				c-9.8-3.4-17.3,0.4-25.1,5.3C227.4,192.3,223.7,194.8,221.8,195.2L221.8,195.2z M214.5,195.3c-1.5-1-5.7-6.1-7.4-8
				c-4-4.5-32.1-33.5-32.6-34.8l9.7-11.8c2.9-3.4,28.1-32.8,30.3-34.7c5,4.1,28.4,31.4,35.4,38.7c1.7,1.7,3.1,3.9,5.1,5.6
				c-0.6,1.9-7.6,8.6-10,11.3L214.5,195.3L214.5,195.3z M257.5,81.3l9.5,7.4c17.5,15.7,25.8,37.5,25.4,61.9
				c-0.2,14.2-2.9,18-5.9,29.1c-1.3-0.6-2.3-2.3-3.3-3.5l-21.2-25c0.7-1.8,8.1-9,10.2-11.3c0.8-0.9,2.9-2.5,1.6-4.5
				c-2.5-3.7-7.2,3.1-8.3,4.2c-1.1,1.2-6.5,6.8-7.1,7.1L220.4,105c-1.1-1.2-4.3-5.5-6.4-5.1c-2,0.4-29.8,33.2-32.4,36.3
				c-1.7,2-3.4,4-5.2,6.2c-1.8,2.1-3.9,4.4-5.2,6.5c-1.6-0.6-2.5-2-4.2-3.7c-1.4-1.4-2.5-2.6-3.8-4c-1.3-1.4-2.4-2.4-3.7-3.8
				c-1.1-1.1-3-3-4.8-1.1c-2.2,2.4,2.1,5.5,5.2,8.8c2.3,2.4,5.6,5.3,7.5,7.8c-0.8,1.8-20.2,24.8-23.7,30.4c-1.2-0.9-1.7-3-2.2-4.3
				c-0.6-1.7-1.1-3-1.6-4.6c-1-3.2-1.7-6.3-2.5-9.9c-2.4-10.8-1-19.3-1.8-23.4c-0.5-2.6,0.6-11.8,1.4-12.9l-1.8,0l-0.2,3.6
				c-1-0.3-1.6-0.8-2-1.6l0,3.3c-0.4-0.4-0.5-0.3-0.6-1.6c-0.2,2.2,0.1,0.3-0.5,1c0.5,1.3,0.3,0.5-0.3,0.9
				c-0.8,9.9-1.6,14.6-0.2,25.3c1.1,8,2.9,15.1,5.5,22.1c2.9,7.6,5.7,13.2,11,16.4c7.2,4.3,14.2,3,21.1-1.3
				c5.3-3.2,11.6-8.5,20.1-5.2c6.7,2.6,11,7.4,17.7,9.9c18,6.7,26.4-12.8,41.9-11c7.5,0.9,11.9,6.2,19.9,7.5c9.4,1.6,15.7-3,19-8.1
				c7-10.9,10.5-31.3,9.9-45c-1-23-9.9-43.2-25-57.6c-2.2-2.1-12.3-10.7-15.8-11.7c-1.1,0-0.5,0.3-0.8-0.4c-0.3,0.6,0,0.7,0.1,0.8
				c0.3,0.2,0.2-0.9,0.3,0.2c0,0.3,1.1,0.2-0.7,0.4c-0.8,0.1,0,0.1-0.6,0c-0.7-0.1-0.5-0.1-0.8-0.3l-0.5,1.4
				c0.5-0.6,0.2-0.8,1.8-0.3l0.5,0.2c1.7,0.8,0.4,0.8,1.9,1.1c-0.1,0.1-0.2,0-0.2,0.1l-0.8,0.3c0,0-0.1,0.1-0.2,0.1l-1.4,0.2
				c-3,0-0.3-1.4-2.3-0.3c1.6,0.2,2.6,1.1,2.8,1.1c1.3,0.2-0.3,0.2,0.3-0.1c2.3-1.3-2.2,0.6,0.5-0.4
				C256.3,80.8,256.8,80.1,257.5,81.3L257.5,81.3z M255.5,74.5c-1.7,0.2-0.7,0.2-0.8-0.4c-1.1,0.5,0,0.1-0.6,1.2
				c0.1-0.1,0.5-0.3,0.7-0.4c0.8-0.6,0.2,0,0.6-0.5L255.5,74.5z"/>
			<path class="st0" d="M109,179c-0.3-2.7-1.5-6.1-2.1-9.2c-6.9-36.4,4.2-70.6,29.1-96.7c21.3-22.2,53.5-34.6,85.3-32.9
				c21,1.1,43.6,9.1,59.5,22c1.1,0.9,1.8,1.7,3.1,2.1c-0.2,0.7-0.3,0.5,0.3,0.3c-0.2,0.7-0.3,0.5,0.4,0.3c-0.3,0.7-0.3,0.6,0.4,0.3
				c-0.3,0.6-0.3,0.4,0.5,0.5c0-0.8,0.2-0.7-0.5-0.5c0.2-0.7,0.3-0.6-0.4-0.3c0.3-0.7,0.3-0.5-0.4-0.3c0.2-0.7,0.3-0.5-0.3-0.3
				l0.9,0.2c0.5-0.7,0-0.1,0.1-1c0.1-1.1,0.9,0.1,0.4-1.7c0.7,0.6,0.4,0.5,1.3,1l0.2-0.5c0.3-1.1-0.2,0.4,0.1-0.4
				c0.2,0.2,0.7,0.9,0.7,1l-0.2,0.8c0-0.1-0.1,0.2-0.1,0.2c1.5,0.1,1.7,0.5,3.1,0.7l-1.6-1.3c-1-1,0.8,1.4-0.3-0.6
				c-0.7-1.1-1.5-1.5-2.5-1.5l-0.1-0.6c0-0.2,0.1-0.1,0-0.4l-2-1.4c0.9,0.3,0.9,0.6,1.8,1.3c0.1,0.1,0.3,0.2,0.4,0.3
				c0.1,0,0.1,0.1,0.2,0.1l1,0.9c0.8,0.8,2.3,2.3,3.3,2.6c0.4,0.7-0.4,0.4,0.9,0.7c-0.1,0.5-0.2,0.4,0.3,0.3
				c-0.1,0.6-0.2,0.5,0.4,0.3c-0.1,0.6-0.3,0.5,0.3,0.3c-0.1,0.6-0.2,0.5,0.3,0.3c-0.1,0.6-0.2,0.5,0.4,0.3
				c-0.2,0.6-0.3,0.5,0.3,0.3c-0.2,0.6-0.3,0.5,0.3,0.3c-0.2,0.6-0.3,0.5,0.3,0.3c-0.2,0.6-0.3,0.5,0.3,0.3
				c-0.2,0.6-0.3,0.5,0.3,0.3c-0.2,0.6-0.3,0.5,0.3,0.3c-0.2,0.6-0.3,0.5,0.3,0.3c-0.2,0.6-0.3,0.5,0.3,0.4
				c-0.2,0.6-0.3,0.5,0.3,0.3c0.3,1,0.8,1.3,1.5,2.1c0.2,0.3,0.5,0.6,0.8,0.9c0.8,0.7,0.2,0.3,1,0.6c-0.2,0.6-0.3,0.5,0.3,0.4
				c-0.1,0.6-0.2,0.4,0.3,0.3c-0.1,0.5-0.2,0.4,0.3,0.3c0.2,1.7-0.1,0.6,0.7,0.9c-0.2,0.6-0.3,0.5,0.3,0.3c-0.2,0.6-0.3,0.5,0.3,0.3
				c0.1,0.4,0.1,0.4,0.3,0.6c0,0,0.2,0.2,0.2,0.1c0-0.1,0.1,0.1,0.2,0.1c-0.2,0.6-0.3,0.5,0.3,0.4c-0.2,0.6-0.3,0.5,0.3,0.4
				c-0.2,0.6-0.2,0.4,0.4,0.4c-0.1-0.6,0.1-0.6-0.4-0.4c0.1-0.6,0.3-0.5-0.3-0.4c0.2-0.6,0.3-0.5-0.3-0.4c-0.2-0.9,0-0.6-0.7-0.9
				c0.1-0.6,0.3-0.5-0.3-0.3c0.2-0.6,0.3-0.5-0.3-0.3c-0.2-0.9,0.1-0.6-0.7-0.9c0.1-0.5,0.2-0.5-0.3-0.3c0.1-0.6,0.2-0.4-0.3-0.3
				c0.1-0.6,0.3-0.5-0.3-0.4c-0.3-0.9-2.2-3.1-3.3-3.6c0.2-0.6,0.3-0.5-0.3-0.3c0.2-0.6,0.3-0.5-0.3-0.4c0.1-0.6,0.3-0.5-0.3-0.3
				c0.2-0.6,0.3-0.5-0.3-0.3c0.2-0.6,0.3-0.5-0.3-0.3c0.2-0.6,0.3-0.5-0.3-0.3c0.2-0.6,0.3-0.5-0.3-0.3c0.2-0.6,0.3-0.5-0.3-0.3
				c0.2-0.6,0.3-0.4-0.3-0.3c0.2-0.6,0.3-0.5-0.4-0.3c0.1-0.5,0.2-0.4-0.3-0.3c0.1-0.6,0.2-0.5-0.3-0.3c0.2-0.6,0.2-0.5-0.4-0.3
				c0.1-0.5,0.2-0.4-0.3-0.3c-0.3-0.8,0-0.5-0.9-0.7c-0.2-0.7,0.1-0.5-1.3-1.6l-4.3-3.5c-0.1,0-0.1-0.1-0.2-0.2
				c-4.7-4.4-15.6-10.6-21.8-13.4C225.3,28.5,185,32.8,153,52.9c-36.3,22.8-56.9,63.6-52.7,107.5c0.3,3.2,2.1,15.9,3.8,19.2
				c0.1-1.6-0.1-0.6,0.5-1l0.4,1.7c0.3-0.8,0.3-1.2-0.2-1.9c-0.7-1.3-0.3-0.5-0.9,0.4l0.2-2.1c0,0.1,0.1,0.1,0.2,0.2
				c0,0.1,0.3,0.3,0.4,0.3c0.4,0.3,0.2,0.3,0.7,0.4c0-2.8-1-5.6,0.4-7.5c-0.1,1.4-0.2,0.8-0.3,2.3c0,1.2,0.1,1.8,0.3,2.6
				c0.6-1.3,0-0.2,0.1-1.1l0.7,0c0.6,1.2,0.6,0.6,0.8,1.6C107.6,177,107.7,177.6,109,179L109,179z"/>
			<path class="st0" d="M320.8,195.6c-2.6,7.9-15.2,4.9-12.5-3.6C310.9,183.8,323.4,187.7,320.8,195.6z M283.9,64.3
				c0.6-0.2,0.5-0.4,0.3,0.3c0.7-0.2,0.7-0.4,0.4,0.3c0.7-0.3,0.6-0.4,0.4,0.3c0.7-0.3,0.5-0.3,0.5,0.5c0.3,0.7,3.9,3.7,4.8,4.6
				c11.7,11.6,21.3,26.9,26.5,43.2c6.9,21.8,7.7,46.8,0.2,68.9c-3.8,0.2-5.1-0.3-8.3,1.5c-7.9,4.5-7.5,16.7,0.4,20.3
				c6.4,2.9,12.9-0.4,15.3-4.2c3.4-5.6,1.3-12.5-2.6-15.1c0.3-2.9,4.4-12.8,5.4-28.6c1.5-24.8-4.4-48.4-17.1-68.9
				c-1.3-2-5.6-8.8-7.1-9.9c-0.7,0-0.6,0.2-0.4-0.4c-0.6,0.1-0.5,0.2-0.3-0.4c-0.6,0.2-0.5,0.3-0.3-0.4c-0.1,0-0.2-0.2-0.2-0.1
				c0,0.1-0.2-0.1-0.2-0.1c-0.2-0.2-0.2-0.2-0.3-0.6c-0.6,0.1-0.5,0.2-0.3-0.3c-0.6,0.1-0.5,0.2-0.3-0.3c-0.9-0.4-0.5,0.8-0.7-0.9
				c-0.5,0.1-0.4,0.2-0.3-0.3c-0.6,0.1-0.5,0.2-0.3-0.3c-0.6,0.1-0.5,0.2-0.3-0.4c-0.8-0.3-0.2,0.1-1-0.6c-0.2-0.2-0.5-0.6-0.8-0.9
				c-0.7-0.8-1.2-1.1-1.5-2.1c-0.6,0.1-0.5,0.3-0.3-0.3c-0.6,0.1-0.5,0.3-0.3-0.4c-0.6,0.2-0.5,0.3-0.3-0.3
				c-0.6,0.2-0.5,0.3-0.3-0.3c-0.6,0.2-0.5,0.3-0.3-0.3c-0.6,0.2-0.5,0.3-0.3-0.3c-0.6,0.2-0.5,0.3-0.3-0.3
				c-0.6,0.2-0.5,0.3-0.3-0.3c-0.6,0.2-0.5,0.3-0.3-0.3c-0.6,0.1-0.5,0.3-0.4-0.3c-0.6,0.2-0.5,0.3-0.3-0.3
				c-0.6,0.1-0.5,0.2-0.3-0.3c-0.6,0.1-0.5,0.3-0.4-0.3c-0.5,0.1-0.4,0.2-0.3-0.3c-1.3-0.3-0.5,0-0.9-0.7c-0.9-0.3-2.5-1.8-3.3-2.6
				l-1-0.9c-0.1,0-0.1-0.1-0.2-0.1c-0.1-0.1-0.3-0.2-0.4-0.3c-0.9-0.8-0.9-1-1.8-1.3l2,1.4c0.1,0.4,0,0.3,0,0.4l0.1,0.6
				c1,0,1.9,0.4,2.5,1.5c1.2,2-0.7-0.4,0.3,0.6l1.6,1.3c-1.4-0.1-1.6-0.6-3.1-0.7c0-0.1,0.1-0.3,0.1-0.2l0.2-0.8
				c0-0.1-0.5-0.7-0.7-1c-0.2,0.9,0.2-0.7-0.1,0.4l-0.2,0.5c-0.9-0.5-0.6-0.4-1.3-1c0.6,1.8-0.3,0.7-0.4,1.7c-0.1,0.9,0.4,0.2-0.1,1
				L283.9,64.3L283.9,64.3z"/>
			<path class="st0" d="M255.9,74.8c0.3,0.7-0.3,0.4,0.8,0.4C256.4,74.6,257.1,74.6,255.9,74.8c0.3-0.7,0.3-0.4-0.6-0.4
				c-0.4,0.5,0.2-0.1-0.6,0.5c-0.2,0.1-0.5,0.3-0.7,0.4c0.6-1.1-0.5-0.7,0.6-1.2c0.1,0.6-0.9,0.6,0.8,0.4c-0.3-0.5,0.6-0.7-0.8-0.4
				c-0.6-1-3.1-2-4.2-2.4c-24.7-10.8-53.3-8.8-76.7,3c-17.2,8.7-28.7,22.1-36.4,38.8c-1.6,3.4-6,15.1-5.4,19.3
				c-0.4,0.1-0.3-0.7-0.3,0.9c0.6-0.4,0.8,0.4,0.3-0.9c0.5-0.7,0.3,1.2,0.5-1c0,1.3,0.2,1.2,0.6,1.6l0-3.3c0.4,0.9,1,1.4,2,1.6
				l0.2-3.6l1.8,0c-0.8,1.1-1.9,10.3-1.4,12.9c0.1-0.1,0.1-0.3,0.1-0.2l0.4-2.3c1-12.6,5.6-25.1,12.8-35.2c4-5.6,6.6-9,11.9-13.5
				c15.9-13.5,33.1-20.4,56.7-20.3c7.7,0,15.4,1.4,22.1,3.5c4.4,1.4,7.5,2.7,11.4,4.6l2.6,1.3c0.1,0,0.1,0.1,0.2,0.1
				c0.1,0,0.1,0.1,0.2,0.1c1.7,0.9,2,1.4,3.6,2c-0.7-1.2-1.3-0.5-0.9-2.1c-2.7,1,1.8-1-0.5,0.4c-0.6,0.3,1,0.3-0.3,0.1
				c-0.2,0-1.3-0.9-2.8-1.1c2-1.1-0.8,0.3,2.3,0.3l1.4-0.2c0,0,0.1-0.1,0.2-0.1l0.8-0.3c0-0.1,0.2,0,0.2-0.1
				c-1.6-0.3-0.3-0.4-1.9-1.1l-0.5-0.2c-1.6-0.5-1.3-0.3-1.8,0.3l0.5-1.4c0.4,0.2,0.1,0.2,0.8,0.3c0.5,0.1-0.2,0.1,0.6,0
				c1.8-0.2,0.7-0.1,0.7-0.4c-0.1-1,0,0.1-0.3-0.2C255.9,75.5,255.6,75.4,255.9,74.8L255.9,74.8z"/>
			<path class="st0" d="M201.8,159.1c0.7-1.2,11.7-13.5,12.7-14.2c2.1,1.9,9.7,10.9,12.6,13.9c-2,2.3-4,5.1-6.1,7.7l-6.1,7.5
				C213.9,173.2,202.3,160.1,201.8,159.1L201.8,159.1z M198.3,155.2c-3.3-1.7-8.1-11.7-11.7-8.7c-1.4,1.2-0.9,2.9,0.1,4l17.8,19.6
				c1.8,1.9,3.3,3.9,5,5.8c1.1,1.2,1.6,1.8,2.6,3c4.1,5.1,6.8-1.8,13.4-10.1c3.3-4.1,6.5-7.7,9.8-11.7c3.2-4,10.5-10.6,6.1-12.4
				c-3.9-1.5-8.1,8.9-11.3,10c-1.8-2.8-5.3-5.8-7.6-8.7c-1.4-1.6-6.2-7.7-8.5-7.4C211.8,139,200.9,153,198.3,155.2L198.3,155.2z"/>
			<path class="st0" d="M110,187.6c8.2-2.2,11.5,10.6,2.8,12.4C103.6,201.8,101.8,189.8,110,187.6z M104.1,179.6l1.1,4.7
				c-4.1,2-7.3,9.2-4.2,15c6.1,11.3,25.2,5.1,21.6-8.5c-1.7-6.3-6.6-8.3-12.6-8.5l-1-3.4c-1.2-1.3-1.4-1.9-1.6-3.4
				c-0.2-0.9-0.2-0.3-0.8-1.6l-0.7,0c-0.1,1,0.5-0.1-0.1,1.1c-0.2-0.9-0.4-1.5-0.3-2.6c0.1-1.5,0.2-1,0.3-2.3
				c-1.4,1.9-0.4,4.7-0.4,7.5c-0.6-0.2-0.3-0.1-0.7-0.4c-0.1,0-0.3-0.2-0.4-0.3c0-0.1-0.1-0.1-0.2-0.2l-0.2,2.1
				c0.5-0.9,0.2-1.7,0.9-0.4c0.4,0.8,0.5,1.1,0.2,1.9l-0.4-1.7C104,179,104.2,177.9,104.1,179.6L104.1,179.6z"/>
			<path class="st0" d="M292.9,21.9c-1,0.4-9,9.4-10.2,11c-2.4,2.9-7,6.5-6.6,9c0.2,1.4,1.6,2.4,3.4,1.9
				c1.2-0.4,13.2-14.4,15.2-16.5C298.4,23.2,295.2,21.1,292.9,21.9L292.9,21.9z"/>
			<path class="st0" d="M90.5,147.5c0.3-0.5,1.9-5.1-3.9-3.9l-14.9,2.1c-2.3,0.2-5.7-0.2-6.7,1.4c-1.9,3.1,1.4,4,4,3.9
				C72.8,150.7,89.4,149.3,90.5,147.5L90.5,147.5z"/>
			<path class="st0" d="M211.7,0.2c-1.3,0.5-1.6,0.6-1.8,2.3l0.3,19.6c0,2.6,0.3,5.5,3.5,4.4c2.2-0.7,1.5-3.8,1.5-6.4
				c0-2.7-0.1-5.4-0.1-8.1C215,8.5,216.3-1.5,211.7,0.2z"/>
			<path class="st0" d="M363.5,151c1.9-4.8-7.3-3.8-10.5-3.9c-3.1-0.1-12.6-0.7-13.7,1.3c-1.5,2.5,0.6,4,3,3.9c5.5-0.1,9.3-0.3,15,0
				C359.9,152.4,362.6,153.2,363.5,151L363.5,151z"/>
			<path class="st0" d="M134,19.1c-4.3,1.9,0.9,6.3,4.8,10.9c1.5,1.8,2.8,3.3,4.3,5.1c1.2,1.4,3,4.8,5.6,3.9
				c3.3-1.1,0.7-4.3-0.7-5.8l-8.8-10.4C138.1,21.6,136.1,18.2,134,19.1z"/>
			<path class="st0" d="M83.1,73.8c-2.3,0.9-2.7,3.7,0.5,4.9L95.9,84c0.4,0.2,8.1,5.1,7.6-0.4c-0.2-2.2-5.2-4-8.1-5.4
				C93.6,77.3,85,73,83.1,73.8z"/>
			<path class="st0" d="M339.9,79.6c-3.8,1.7-7,3.7-11.2,5.5c-1.7,0.7-5.1,1.6-5.9,2.6c-1.4,2,0.2,4.5,3.1,3.8
				c3-0.8,15.7-6.4,17-8.1C344.4,81.4,342.7,78.4,339.9,79.6z"/>
			<path class="st0" d="M306.4,54.9c-2.4,0.9-1.8,6.5,2.2,5.2C311.5,59.2,310.4,53.4,306.4,54.9z"/>
			<path class="st0" d="M173.4,115.9c-2.9,0.9-2.1,6.5,2,5.1C178.1,120,177,114.7,173.4,115.9z"/>
			<path class="st0" d="M116.4,58.9c-3.5,1.3-2,6,1.3,5C120.9,63,120.4,57.5,116.4,58.9z"/>
			<path class="st0" d="M175.2,22.3c-3.5,1.4-1,6,2.1,5.1C180.5,26.5,178.4,21.1,175.2,22.3z"/>
			<path class="st0" d="M348.5,191c1.8-3.4-3.7-5.1-5-2.2C342,192,347,193.9,348.5,191z"/>
			<path class="st0" d="M344.5,118.7c1.4-3.1-3.7-4.9-5.1-2.1C337.8,120.1,343.1,121.8,344.5,118.7z"/>
			<path class="st0" d="M131,95.9c-4.3,1.4-1.9,6.1,1.2,5C135.5,99.7,134,95,131,95.9z"/>
			<path class="st0" d="M278.6,150.2c-3.3,1.4-1.3,6.2,2,4.7C283.5,153.6,282.2,148.7,278.6,150.2z"/>
			<path class="st0" d="M297.4,98.3c-1,0.5-2.2,1.3-1.4,3.2c0.5,1.2,2,1.9,3.7,1.3C302.6,101.7,300.9,96.7,297.4,98.3z"/>
			<path class="st0" d="M212.7,48.8c-3,1.5-0.8,6.4,2.6,4.6C217.6,52.2,216.3,47.1,212.7,48.8z"/>
			<path class="st0" d="M272.1,219.9c-3,1.3-0.8,6.2,2.7,4.3C277.2,222.9,275.8,218.2,272.1,219.9z"/>
			<path class="st0" d="M259.2,176c0.3,3.2,5.5,2.9,5-0.9C263.8,171.9,258.8,172.2,259.2,176z"/>
			<path class="st0" d="M211.6,213.8c0.7,2.7,5.8,2.1,5-1.6C215.9,209.3,210.5,209.8,211.6,213.8z"/>
			<path class="st0" d="M166.6,176.5c-3,1.2-1.4,5.9,2.2,4.6C171.6,180.1,170.3,175,166.6,176.5z"/>
			<path class="st0" d="M217.2,155.8c1.5-3.3-3.5-4.9-4.7-2.4C210.9,157,215.8,158.7,217.2,155.8z"/>
			<path class="st0" d="M85.5,118.7c0.5,3,5.5,2.8,5.1-1C90.2,114.5,85,115.4,85.5,118.7z"/>
			<path class="st0" d="M212.4,81.7c-0.9,0.6-2.1,1.4-1.2,3.5c0.5,1,2,1.9,3.6,1C217.4,84.8,215.5,79.7,212.4,81.7z"/>
			<path class="st0" d="M250.2,21.5c-1.1,0.7-2,1.3-1.3,3.2c0.5,1.2,2.2,1.9,3.8,1.1C255.4,24.6,253.4,19.6,250.2,21.5z"/>
			<path class="st0" d="M251.2,114.3c-3,1.1-1.5,6,1.8,4.8C255.8,118.1,254.7,113.1,251.2,114.3z"/>
			<path class="st0" d="M212.2,235.6c0.7,2.6,5.8,2.1,5-1.6C216.6,231.1,211.3,231.9,212.2,235.6z"/>
			<path class="st0" d="M147.6,154c-3.1,2.7,0,5.6,2.5,4.2C152.9,156.7,150.5,151.5,147.6,154z"/>
			<path class="st0" d="M156.8,221.5c-0.9,0.6-2,1.2-1.2,3.1c0.5,1.2,2.1,2,3.7,1.2C162,224.3,159.7,219.4,156.8,221.5z"/>
			<path class="st0" d="M213.3,123.4c-2.9,2.1,0,5.9,2.6,4.3C218.5,126.1,216.3,121.2,213.3,123.4z"/>
			<path class="st0" d="M76.6,188.7c0.2,3,5.1,3.2,5-0.3C81.6,185.1,76.4,185.4,76.6,188.7z"/>
		</g>
		<path class="st1" d="M85.5,407.2H78v-12.8h1.5v11.4h6L85.5,407.2L85.5,407.2z M98.6,394.4h1.5v8.5c0,0.8-0.1,1.4-0.3,2
			c-0.2,0.6-0.5,1-0.9,1.4c-0.4,0.4-0.8,0.6-1.3,0.8c-0.5,0.2-1.1,0.3-1.7,0.3c-1.5,0-2.6-0.3-3.4-1c-0.8-0.7-1.1-1.7-1.1-3.1v-8.8
			h1.5v8.1c0,0.6,0.1,1.2,0.2,1.6c0.1,0.4,0.3,0.8,0.6,1.1c0.3,0.3,0.6,0.5,1,0.6c0.4,0.1,0.8,0.2,1.3,0.2c1,0,1.7-0.3,2.1-0.8
			c0.4-0.5,0.6-1.4,0.6-2.7V394.4L98.6,394.4z M110.2,400.7l-3.9-6.3h1.8l2.6,4.3l0.5,1l0.4-1l2.7-4.3h1.7l-4,6.1l4.2,6.6h-1.8
			l-2.9-4.6l-0.5-1.1l-0.5,1.1l-3,4.6H106C106,407.2,110.2,400.7,110.2,400.7z M129.6,394.4h1.5v8.5c0,0.8-0.1,1.4-0.3,2
			c-0.2,0.6-0.5,1-0.9,1.4c-0.4,0.4-0.8,0.6-1.3,0.8c-0.5,0.2-1.1,0.3-1.7,0.3c-1.5,0-2.6-0.3-3.4-1c-0.8-0.7-1.1-1.7-1.1-3.1v-8.8
			h1.5v8.1c0,0.6,0.1,1.2,0.2,1.6c0.1,0.4,0.3,0.8,0.6,1.1c0.3,0.3,0.6,0.5,1,0.6c0.4,0.1,0.8,0.2,1.3,0.2c1,0,1.7-0.3,2.1-0.8
			c0.4-0.5,0.6-1.4,0.6-2.7V394.4L129.6,394.4z M138,394.5c0.5-0.1,1-0.2,1.6-0.2c0.6,0,1.2-0.1,1.6-0.1c0.6,0,1.1,0.1,1.6,0.2
			c0.5,0.1,0.9,0.3,1.3,0.6c0.4,0.3,0.7,0.6,0.9,1.1c0.2,0.4,0.3,1,0.3,1.6c0,1-0.3,1.8-0.8,2.4c-0.5,0.6-1.2,1-2.1,1.2l0.9,0.7
			l3.2,5.1h-1.8l-3.5-5.5l-1.8-0.3v5.8H138L138,394.5L138,394.5z M141.3,395.6c-0.2,0-0.3,0-0.5,0c-0.2,0-0.3,0-0.5,0
			c-0.2,0-0.3,0-0.4,0c-0.1,0-0.3,0-0.3,0.1v4.7h1.4c0.8,0,1.5-0.2,2.1-0.6c0.5-0.4,0.8-1.1,0.8-1.9c0-0.7-0.2-1.2-0.7-1.6
			C142.7,395.8,142.1,395.6,141.3,395.6L141.3,395.6z M154.5,402.1l-4.2-7.7h1.8l3,5.6l0.3,1.1h0l0.3-1.1l2.9-5.5h1.6l-4.2,7.7v5.1
			h-1.5V402.1L154.5,402.1z M181.7,397.3c0,0.3,0,0.6-0.1,0.9c-0.1,0.3-0.2,0.6-0.4,0.9c-0.2,0.3-0.4,0.5-0.7,0.7
			c-0.3,0.2-0.7,0.4-1.1,0.5v0.1c0.4,0.1,0.7,0.2,1,0.3c0.3,0.1,0.6,0.3,0.9,0.6c0.3,0.3,0.5,0.6,0.6,0.9c0.2,0.4,0.2,0.8,0.2,1.3
			c0,0.7-0.1,1.2-0.4,1.7c-0.3,0.5-0.6,0.9-1.1,1.2c-0.4,0.3-1,0.5-1.5,0.7c-0.6,0.1-1.2,0.2-1.8,0.2c-0.2,0-0.4,0-0.7,0
			c-0.3,0-0.6,0-0.9,0c-0.3,0-0.6,0-0.9-0.1c-0.3,0-0.6-0.1-0.8-0.1v-12.6c0.5-0.1,1-0.1,1.6-0.2c0.6,0,1.2-0.1,1.9-0.1
			c0.5,0,1,0,1.5,0.1c0.5,0.1,0.9,0.2,1.3,0.5c0.4,0.2,0.7,0.5,1,0.9C181.6,396.2,181.7,396.7,181.7,397.3L181.7,397.3z M177.5,406
			c0.4,0,0.8,0,1.1-0.1c0.4-0.1,0.7-0.2,1-0.4c0.3-0.2,0.5-0.4,0.7-0.7c0.2-0.3,0.2-0.6,0.2-1c0-0.5-0.1-0.9-0.3-1.2
			c-0.2-0.3-0.5-0.5-0.8-0.7c-0.3-0.2-0.7-0.3-1.1-0.3c-0.4-0.1-0.8-0.1-1.2-0.1h-1.6v4.6c0.1,0,0.2,0,0.4,0.1c0.2,0,0.3,0,0.5,0
			c0.2,0,0.4,0,0.6,0C177.2,406,177.4,406,177.5,406L177.5,406z M176.5,400c0.2,0,0.5,0,0.7,0c0.3,0,0.5,0,0.7-0.1
			c0.3-0.1,0.6-0.2,0.8-0.4c0.3-0.1,0.5-0.3,0.7-0.5c0.2-0.2,0.4-0.4,0.5-0.7c0.1-0.2,0.2-0.5,0.2-0.8c0-0.4-0.1-0.7-0.2-1
			c-0.2-0.3-0.4-0.5-0.6-0.6c-0.3-0.2-0.5-0.3-0.9-0.3c-0.3-0.1-0.7-0.1-1-0.1c-0.4,0-0.8,0-1.1,0c-0.3,0-0.6,0-0.8,0.1v4.3
			L176.5,400L176.5,400z M188.1,400.8c0-2.1,0.5-3.8,1.4-4.9c0.9-1.1,2.2-1.7,3.8-1.7c0.9,0,1.7,0.2,2.3,0.5
			c0.7,0.3,1.2,0.8,1.6,1.3c0.4,0.6,0.8,1.3,1,2.1c0.2,0.8,0.3,1.7,0.3,2.7c0,2.1-0.5,3.8-1.4,4.9c-0.9,1.1-2.2,1.7-3.9,1.7
			c-0.9,0-1.7-0.2-2.3-0.5c-0.7-0.3-1.2-0.8-1.6-1.3c-0.4-0.6-0.8-1.3-1-2.1C188.2,402.7,188.1,401.8,188.1,400.8z M189.7,400.8
			c0,0.7,0.1,1.4,0.2,2c0.1,0.6,0.4,1.2,0.6,1.7c0.3,0.5,0.7,0.9,1.1,1.1c0.5,0.3,1,0.4,1.6,0.4c1.1,0,2-0.4,2.7-1.3
			c0.6-0.9,1-2.2,1-4c0-0.7-0.1-1.4-0.2-2c-0.1-0.6-0.4-1.2-0.7-1.7c-0.3-0.5-0.7-0.9-1.1-1.1c-0.5-0.3-1-0.4-1.6-0.4
			c-1.1,0-2,0.4-2.6,1.3C190,397.7,189.7,399,189.7,400.8L189.7,400.8z M212.3,394.4h1.5v8.5c0,0.8-0.1,1.4-0.3,2
			c-0.2,0.6-0.5,1-0.9,1.4c-0.4,0.4-0.8,0.6-1.3,0.8c-0.5,0.2-1.1,0.3-1.7,0.3c-1.5,0-2.6-0.3-3.4-1c-0.8-0.7-1.1-1.7-1.1-3.1v-8.8
			h1.5v8.1c0,0.6,0.1,1.2,0.2,1.6c0.1,0.4,0.3,0.8,0.6,1.1c0.3,0.3,0.6,0.5,1,0.6c0.4,0.1,0.8,0.2,1.3,0.2c1,0,1.7-0.3,2.1-0.8
			c0.4-0.5,0.6-1.4,0.6-2.7L212.3,394.4L212.3,394.4z M229,395.8h-4v11.4h-1.5v-11.4h-4v-1.4h9.5C229,394.4,229,395.8,229,395.8z
			 M235.1,394.4h1.5v12.8h-1.5V394.4z M255.3,410.3c-0.3,0.1-0.6,0.1-0.9,0.2c-0.3,0-0.6,0-0.8,0c-0.6,0-1.2-0.1-1.8-0.2
			c-0.6-0.1-1.1-0.3-1.7-0.4c-0.5-0.2-1.1-0.3-1.6-0.4c-0.5-0.1-1-0.2-1.4-0.2c-0.3,0-0.6,0-0.8,0.1v-1.3c0.2,0,0.3-0.1,0.5-0.1
			c0.2,0,0.3,0,0.5,0c0.5,0,1,0.1,1.5,0.2c0.5,0.1,1,0.3,1.5,0.4c0.5,0.2,1.1,0.3,1.6,0.4c0.5,0.1,1.1,0.2,1.7,0.2
			c0.5,0,1.1-0.1,1.6-0.2L255.3,410.3L255.3,410.3z M243.4,400.8c0-2.1,0.4-3.8,1.4-4.9c0.9-1.1,2.2-1.7,3.8-1.7
			c0.9,0,1.7,0.2,2.3,0.5c0.7,0.3,1.2,0.8,1.6,1.3c0.4,0.6,0.8,1.3,1,2.1c0.2,0.8,0.3,1.7,0.3,2.7c0,2.1-0.5,3.8-1.4,4.9
			c-0.9,1.1-2.2,1.7-3.9,1.7c-0.9,0-1.7-0.2-2.3-0.5c-0.7-0.3-1.2-0.8-1.6-1.3c-0.4-0.6-0.8-1.3-1-2.1
			C243.5,402.7,243.4,401.8,243.4,400.8L243.4,400.8z M245,400.8c0,0.7,0.1,1.4,0.2,2c0.1,0.6,0.4,1.2,0.6,1.7
			c0.3,0.5,0.7,0.9,1.1,1.1c0.5,0.3,1,0.4,1.6,0.4c1.1,0,2-0.4,2.7-1.3c0.6-0.9,1-2.2,1-4c0-0.7-0.1-1.4-0.2-2
			c-0.1-0.6-0.4-1.2-0.7-1.7c-0.3-0.5-0.7-0.9-1.1-1.1c-0.5-0.3-1-0.4-1.6-0.4c-1.1,0-2,0.4-2.6,1.3C245.4,397.7,245,399,245,400.8
			L245,400.8z M267.7,394.4h1.5v8.5c0,0.8-0.1,1.4-0.3,2c-0.2,0.6-0.5,1-0.9,1.4c-0.4,0.4-0.8,0.6-1.3,0.8c-0.5,0.2-1.1,0.3-1.7,0.3
			c-1.5,0-2.6-0.3-3.4-1c-0.8-0.7-1.1-1.7-1.1-3.1v-8.8h1.5v8.1c0,0.6,0.1,1.2,0.2,1.6c0.1,0.4,0.3,0.8,0.6,1.1
			c0.3,0.3,0.6,0.5,1,0.6c0.4,0.1,0.8,0.2,1.3,0.2c1,0,1.7-0.3,2.1-0.8c0.4-0.5,0.6-1.4,0.6-2.7V394.4L267.7,394.4z M276.1,394.4
			h6.9v1.4h-5.4v4.2h5v1.3h-5v4.5h5.5v1.4h-7V394.4L276.1,394.4z M304.3,403.9c0-0.5-0.2-0.9-0.5-1.2c-0.3-0.3-0.7-0.6-1.1-0.9
			c-0.5-0.2-1-0.5-1.5-0.7c-0.5-0.2-1-0.5-1.5-0.8c-0.5-0.3-0.8-0.7-1.1-1.1c-0.3-0.5-0.5-1-0.5-1.7c0-1,0.3-1.8,1-2.4
			c0.7-0.6,1.7-0.9,3-0.9c0.7,0,1.4,0.1,2,0.2c0.6,0.1,1.1,0.3,1.4,0.4l-0.5,1.4c-0.3-0.1-0.7-0.3-1.2-0.4c-0.5-0.1-1.2-0.2-1.8-0.2
			c-0.8,0-1.4,0.2-1.8,0.5c-0.4,0.4-0.6,0.8-0.6,1.3c0,0.5,0.2,0.9,0.5,1.2c0.3,0.3,0.7,0.6,1.1,0.8c0.5,0.2,1,0.5,1.5,0.7
			c0.5,0.2,1,0.5,1.5,0.8c0.5,0.3,0.8,0.7,1.1,1.2c0.3,0.4,0.5,1,0.5,1.7c0,0.5-0.1,1-0.3,1.5c-0.2,0.4-0.5,0.8-0.9,1.1
			c-0.4,0.3-0.8,0.6-1.4,0.7c-0.5,0.2-1.1,0.3-1.8,0.3c-0.9,0-1.7-0.1-2.3-0.2c-0.6-0.1-1.1-0.3-1.4-0.5l0.5-1.4
			c0.3,0.2,0.7,0.3,1.2,0.5c0.5,0.1,1.2,0.2,1.8,0.2c0.4,0,0.8,0,1.1-0.1c0.4-0.1,0.7-0.2,0.9-0.4c0.3-0.2,0.5-0.4,0.6-0.7
			C304.2,404.6,304.3,404.3,304.3,403.9L304.3,403.9z M320.4,395.8h-4v11.4h-1.5v-11.4h-4v-1.4h9.5V395.8z M331,403.6h-4.7l-1.3,3.5
			h-1.5l4.8-13h0.7l4.8,13h-1.6L331,403.6L331,403.6z M326.8,402.3h3.7l-1.4-3.9l-0.5-1.9h0l-0.5,2L326.8,402.3L326.8,402.3z
			 M341.1,402.1l-4.2-7.7h1.8l3,5.6l0.3,1.1h0l0.3-1.1l2.9-5.5h1.6l-4.2,7.7v5.1h-1.5V402.1L341.1,402.1z"/>
		<path class="st1" d="M32.6,273.8c0.8-4.4,1.9-11.1,3.5-20c0.7-5.2,4.1-7.8,10.4-7.6c3.8,0.1,7.3,1.2,10.5,3.4
			c1.5,1.6,1.8,3.9,0.8,6.7c-5.4,10.9-8.3,24.2-8.7,40c12.5-0.9,18.5-1.3,18-1.3c6.8,0.2,10.2,2.2,10.1,6c0,0.8-0.2,1.6-0.5,2.6
			c-1.4,4.2-5.7,6.6-12.8,7.4c-2.5,0.3-8.7,0.4-18.5,0.1c-0.3,1.4-0.5,3.6-0.6,6.5c-0.2,6.3,0.4,19.4,1.6,39.2
			c1,18.5,1.3,29.6,0.9,33.3c-0.4,4.5-2.7,6.6-7.1,6.5c-4.1-0.1-6.8-2.3-8.1-6.5c-1.1-3.3-2-16.6-2.7-39.8
			c-0.6-22.2-1.9-35.2-3.9-39.1c-5.5,3.9-10.8,5.8-16.1,5.7c-2.4-0.1-4.4-0.8-6.2-2.1C1,313.1-0.1,311.2,0,309
			c0.1-2.8,1.8-5.2,5.3-7.3c1.7-0.7,5.9-1.8,12.5-3.2c5.1-0.9,8.6-2.4,10.4-4.5c1.8-2.1,2.9-5.2,3.4-9.4
			C31.9,280.9,32.2,277.3,32.6,273.8L32.6,273.8z M81.4,307.5c0.1-8.9,2.9-16.3,8.4-22.1c5.5-5.8,12.5-8.6,20.9-8.4
			c8.9,0.2,16.7,3.8,23.5,10.7c6.7,6.9,9.9,14.9,9.5,24c-1.3,3.6-6.3,7.9-15.1,12.8c-10.9,6.2-17,9.8-18.2,11
			c-2.3,1-3.4,2.1-3.4,3.3c-0.1,2.1,1.3,4,4.2,5.7c2.8,1.7,5.4,2.6,7.6,2.7c4.3,0.1,10.6-1.8,18.9-5.8c2.4,1.9,3.6,4.4,3.6,7.6
			c-0.1,2.5-0.9,4.8-2.5,6.8c-1.6,2.1-3.7,3.3-6.2,3.6c-8.4,1.1-13.8,1.6-16,1.6c-4.5-0.1-8.4-1-11.9-2.7
			C89.1,350.8,81.4,333.9,81.4,307.5L81.4,307.5z M102.6,318.1c11.7-0.2,18.9-4.2,21.6-11.9c0.6-1,0.8-2.1,0.9-3.1
			c0.1-2.8-1.3-5-4.2-6.8c-2.8-1.8-6-2.7-9.6-2.8c-2.6-0.1-4.9,0.4-6.7,1.4c-3.9,1.9-5.9,6-6,12.3
			C98.3,314.1,99.7,317.8,102.6,318.1L102.6,318.1z M229.5,371c-1.1-0.8-2.2-2.3-3.3-4.5c-1-1.9-2-2.8-2.9-2.8
			c-6.9-1.4-13.9-2.7-21-4.1c-7.7-2.2-13.1-6.1-16.2-11.8c-2-2.8-3-6.5-2.9-11.1c0.2-6.7,1.9-12.2,5.3-16.4
			c8.1-10.4,19.8-15.5,35-15.1c6.6,0.2,9.7,0.4,9.4,0.8c1.1-1.5,1.7-3.7,1.7-6.6c0.1-3.3-0.9-5.3-2.8-5.8c-2-0.5-3.9-0.8-5.9-0.8
			c-3.4-0.1-7.2,0.6-11.4,2.1c-4.2,1.5-8.2,2.9-12.2,4.2c-0.7,0.2-1.3,0.4-1.8,0.3c-2.1-0.1-3.8-1.6-5-4.7c-1-2.4-1.5-5-1.4-7.7
			c0-1.7,0.3-2.7,0.7-3.1c8.8-5.7,18.7-8.4,29.5-8.1c11.4,0.3,19,4.5,22.7,12.8c2,4.5,2.9,9.4,2.8,14.6c-0.1,4.3-1.1,10.4-3,18.2
			c-2.2,8.6-3.5,14.9-4,18.8c-0.9,9.8-1.7,16.5-2.5,20c-1.8,8-4.4,11.9-7.8,11.8C231.7,372.1,230.6,371.8,229.5,371L229.5,371z
			 M226.5,347c0.4-1.8,1.4-5.1,2.8-9.8c1.3-3.6,1.9-6.6,2-9c0.1-2.8-0.5-5.5-1.6-8.3c-6.7,1.3-13.4,2.5-20,3.6
			c-7.8,2-11.8,6.5-12.2,13.5c-0.2,3,2.6,5.6,8.5,7.9c5.1,2.1,10.2,3.2,15.3,3.3C224.4,348.3,226.1,347.9,226.5,347L226.5,347z
			 M222.5,332.5c0,1.7-0.7,3.6-1.9,5.7c-1.2,2.1-2.5,3.1-3.8,3.1c-2.1-0.1-3.7-1-4.9-2.9c-1.2-1.9-1.6-3.6-1.3-5.2
			c0.6-2.7,2.9-4.1,6.8-4C220.8,329.3,222.6,330.4,222.5,332.5L222.5,332.5z M253.6,303.8c0.3-12.6,4.8-18.8,13.5-18.6
			c1.6,0,3.3,0.3,5.1,0.9c3.6,1.1,5.4,3.7,5.3,7.6c0,1.3-0.3,3.4-0.8,6.3c-0.5,2.9-0.8,5-0.8,6.3c-0.1,2.6,0.4,4.7,1.4,6.3
			c2.7-2.3,5.6-6.3,8.8-12c3.7-6.5,6.4-10.7,8.2-12.6c3.2-3.9,7-5.7,11.2-5.6c2.1,0.1,4.4,0.6,6.8,1.7l3.8,3.8
			c0.5,2.1,0.9,6,1.3,11.6c0.4,4.7,1.1,8.4,2.1,11.1c4.6-4.9,9.1-9.7,13.6-14.6c5.9-5.2,11.5-7.8,16.7-7.7c2.5,0.1,5,0.6,7.4,1.6
			c1.9,1.4,3.1,3.6,3.4,6.8c0.1,2.6,0.1,5.3,0.2,8.1c1.2,10.7,1.7,20.2,1.4,28.6c-0.4,15.1-3.1,28.7-8.1,40.8c-1.3,4-4.7,6-10.2,5.9
			c-3-0.1-5.9-0.9-8.6-2.6c-0.5,0-0.9-0.7-1.1-2.2c-0.2-1.7-0.1-3.2,0.3-4.5c4.2-10.5,6.5-22.3,6.8-35.3c0.2-7.3-0.3-15.1-1.4-23.3
			c0-0.9-0.2-1.4-0.8-1.4c-1.6,0-3,1-4.2,3.2c-7,10.7-13.5,23.9-19.5,39.5c-1,1.9-2.8,3.7-5.5,5.2c-2.7,1.5-5.4,2.2-8,2.2
			c-3.1-0.1-5.4-1.4-6.8-4c-1.4-2.6-2-5.7-1.9-9.2c0.1-2.4,0.5-6.1,1.5-11.2c0.9-5.1,1.4-9,1.5-11.6c0.1-3.3-0.3-6.2-1.2-8.9
			c-2.2,3.6-5.7,10.5-10.6,20.6c-4,8.6-7.7,15.2-10.9,19.8c-2.2,2.8-5.4,4.2-9.6,4.1c-4.3-0.1-7.1-1.7-8.2-4.8
			c-1.2-3.1-1.9-6.9-2.2-11.4c-0.2-3.3-0.1-7.5,0.1-12.6c0.5-7.7,0.7-12.1,0.7-13c0-1.7-0.1-4.2-0.3-7.6
			C253.6,307.8,253.5,305.3,253.6,303.8L253.6,303.8z M389.3,343c-10.6-6.4-15.7-16.3-15.4-29.7c0.1-3.4,0.6-6.7,1.6-10
			c1.3-4.2,3.6-8.5,6.8-13c3.8-5,5.9-8,6.3-8.9c2.1-4.4,5.6-6.6,10.6-6.4c5.9,0.1,11,2.7,15.2,7.7c4.2,5,7.3,11.5,9.3,19.7
			c0.7,3,1,6,1,8.9c-0.3,10.2-5.4,20.4-15.5,30.5c-2.4,2.4-6.1,3.6-11.1,3.5C394.5,345.1,391.6,344.4,389.3,343L389.3,343z
			 M396,323.7c1,0.3,2,0.4,2.9,0.5c5.9,0.1,8.9-3.4,9.1-10.6c0.2-6.2-2-11.9-6.5-17.1c-0.4-0.3-0.8-0.4-1.4-0.4
			c-2.1-0.1-4.7,1.9-7.9,6c-3.2,4.1-4.8,8.1-4.9,12C387.3,319,390.2,322.2,396,323.7L396,323.7z M390.1,356.4
			c1.9,1.5,2.8,4.3,2.7,8.5c-0.1,4.7-1.6,7.8-4.6,9.3c-1.5,0.9-3,1.3-4.6,1.3c-2.4-0.1-4.4-1.2-6-3.4c-1.7-2.2-2.6-4.7-3-7.5
			c-0.3-3.4,0.6-6,2.8-7.8c1.7-1.5,4-2.3,6.8-2.2C386.6,354.8,388.6,355.3,390.1,356.4L390.1,356.4z M415.8,357.4
			c1.7,1.3,2.6,4,2.5,8.2c-0.1,4.7-1.6,7.8-4.6,9.3c-1.5,0.9-3,1.3-4.6,1.3c-2.4-0.1-4.3-1.2-5.9-3.4c-1.6-2.2-2.5-4.7-2.9-7.5
			c-0.3-3.3,0.5-5.9,2.6-7.8c1.7-1.5,4-2.3,6.7-2.2C412,355.4,414,356.1,415.8,357.4L415.8,357.4z"/>
	</g>
</g>
</svg>
