<?xml version="1.0" encoding="utf-8"?>
<!-- Generator: Adobe Illustrator 24.3.0, SVG Export Plug-In . SVG Version: 6.00 Build 0)  -->
<svg version="1.1" id="Layer_1" xmlns="http://www.w3.org/2000/svg" xmlns:xlink="http://www.w3.org/1999/xlink" x="0px" y="0px"
	 viewBox="0 0 576 576" style="enable-background:new 0 0 576 576;" xml:space="preserve">
<style type="text/css">
	.st0{fill-rule:evenodd;clip-rule:evenodd;fill:url(#SVGID_1_);}
	.st1{fill-rule:evenodd;clip-rule:evenodd;fill:url(#SVGID_2_);}
	.st2{fill-rule:evenodd;clip-rule:evenodd;fill:url(#SVGID_3_);}
	.st3{fill-rule:evenodd;clip-rule:evenodd;fill:url(#SVGID_4_);}
	.st4{fill-rule:evenodd;clip-rule:evenodd;fill:url(#SVGID_5_);}
	.st5{fill-rule:evenodd;clip-rule:evenodd;fill:url(#SVGID_6_);}
	.st6{fill-rule:evenodd;clip-rule:evenodd;fill:url(#SVGID_7_);}
	.st7{fill-rule:evenodd;clip-rule:evenodd;fill:url(#SVGID_8_);}
	.st8{fill-rule:evenodd;clip-rule:evenodd;fill:url(#SVGID_9_);}
	.st9{fill-rule:evenodd;clip-rule:evenodd;fill:url(#SVGID_10_);}
	.st10{fill-rule:evenodd;clip-rule:evenodd;fill:url(#SVGID_11_);}
	.st11{fill-rule:evenodd;clip-rule:evenodd;fill:url(#SVGID_12_);}
	.st12{fill-rule:evenodd;clip-rule:evenodd;fill:url(#SVGID_13_);}
	.st13{fill-rule:evenodd;clip-rule:evenodd;fill:url(#SVGID_14_);}
	.st14{fill-rule:evenodd;clip-rule:evenodd;fill:url(#SVGID_15_);}
	.st15{fill-rule:evenodd;clip-rule:evenodd;fill:url(#SVGID_16_);}
	.st16{fill-rule:evenodd;clip-rule:evenodd;fill:url(#SVGID_17_);}
	.st17{fill-rule:evenodd;clip-rule:evenodd;fill:url(#SVGID_18_);}
	.st18{fill-rule:evenodd;clip-rule:evenodd;fill:url(#SVGID_19_);}
	.st19{fill-rule:evenodd;clip-rule:evenodd;fill:url(#SVGID_20_);}
	.st20{fill-rule:evenodd;clip-rule:evenodd;fill:url(#SVGID_21_);}
	.st21{fill-rule:evenodd;clip-rule:evenodd;fill:url(#SVGID_22_);}
	.st22{fill-rule:evenodd;clip-rule:evenodd;fill:url(#SVGID_23_);}
	.st23{fill-rule:evenodd;clip-rule:evenodd;fill:url(#SVGID_24_);}
	.st24{fill-rule:evenodd;clip-rule:evenodd;fill:url(#SVGID_25_);}
	.st25{fill-rule:evenodd;clip-rule:evenodd;fill:url(#SVGID_26_);}
	.st26{fill-rule:evenodd;clip-rule:evenodd;fill:url(#SVGID_27_);}
	.st27{fill-rule:evenodd;clip-rule:evenodd;fill:url(#SVGID_28_);}
	.st28{fill-rule:evenodd;clip-rule:evenodd;fill:url(#SVGID_29_);}
	.st29{fill-rule:evenodd;clip-rule:evenodd;fill:url(#SVGID_30_);}
	.st30{fill-rule:evenodd;clip-rule:evenodd;fill:url(#SVGID_31_);}
	.st31{fill-rule:evenodd;clip-rule:evenodd;fill:url(#SVGID_32_);}
	.st32{fill-rule:evenodd;clip-rule:evenodd;fill:url(#SVGID_33_);}
	.st33{fill-rule:evenodd;clip-rule:evenodd;fill:url(#SVGID_34_);}
	.st34{fill-rule:evenodd;clip-rule:evenodd;fill:url(#SVGID_35_);}
	.st35{fill-rule:evenodd;clip-rule:evenodd;fill:url(#SVGID_36_);}
	.st36{fill-rule:evenodd;clip-rule:evenodd;fill:url(#SVGID_37_);}
	.st37{fill-rule:evenodd;clip-rule:evenodd;fill:url(#SVGID_38_);}
	.st38{fill:#4D4D4D;}
	.st39{fill:url(#SVGID_39_);}
</style>
<g id="Layer_x0020_1">
	<g id="_1870299745088">
		<g>
			
				<linearGradient id="SVGID_1_" gradientUnits="userSpaceOnUse" x1="33168.457" y1="-28642.0645" x2="34880.5977" y2="-35031.9727" gradientTransform="matrix(2.835132e-02 0 0 -2.835132e-02 -691.8138 -675.4835)">
				<stop  offset="0" style="stop-color:#A48C6B"/>
				<stop  offset="1" style="stop-color:#6E5336"/>
			</linearGradient>
			<path class="st0" d="M289.5,340.8c-19.9,0-34.2-4.1-51-12.4c-1.7-0.9-4.6-2.1-5.8-3.4c2.4-2.7,8.3-5.2,13.1-5.8
				c17.2-2.3,24.3,12.1,45.2,11.4c11.8-0.4,19-6,27.8-10c4.6-2.1,9.7-3.6,15.6-2.9c4.5,0.5,11.2,3.2,13.1,5.7
				c-2.1,1.9-9.1,5.5-12,6.8C321.5,336.9,306,340.8,289.5,340.8L289.5,340.8z M209.2,305.6c4.8-0.9,12.7-6,17.9-8.2
				c14.7-6,28.5,2.8,41.1,7.1c7.3,2.5,14.1,3.6,22.6,3.3c18.4-0.5,26.7-8,39.8-12.1c13.5-4.3,19.8-0.1,30,5.4
				c4.5,2.4,7.5,2.9,8.9,3.6c-3,4.6-12,11.6-17.2,15.5c-4-2.8-7.4-5.5-13.6-7c-19.9-4.8-30.2,12-48.2,12.3
				c-19.9,0.4-28.3-16.1-49.1-10.6c-7.8,2.1-9.2,4.4-13.4,7C225.4,321,210.4,308.9,209.2,305.6L209.2,305.6z M474.5,270.8
				c15-2.4,19.8,20.7,3.3,23.3C461.2,296.8,458.7,273.4,474.5,270.8z M97.3,270.8c7.1-1.2,12.7,4,13.8,9.8
				c1.4,7.4-3.6,13.2-9.9,13.7C84.1,295.8,81.9,273.5,97.3,270.8L97.3,270.8z M466.6,297.3c2.4,0.8,3.2,1.6,6.2,1.9
				c2.6,0.3,5.3,0.1,7.6-0.4c15-3.8,16.2-22.2,6.7-29.2c-7.8-5.8-17-5.3-23.3,1.2c-2.4,2.4-4.7,6.1-5,10.9
				c-0.5,8.1,3.1,9.8,3.7,12.5c-2.9,2-5.2,3.9-10.2,4.1c-4.4,0.2-8.2-1.4-11.2-3.1c-6.2-3.4-11.7-7.6-20.7-8
				c-18.2-0.8-27.5,13.9-44,13.3c-17.1-0.6-22.4-16-44.9-10.3c-7.5,1.9-13.5,5.5-20.4,8.2c-32.8,13-49.6-5.7-69.1-7.7
				c-20.7-2.1-26.7,12.1-44.6,11.9c-17.3-0.3-24.5-15.3-42-15.4c-9.8,0-14.6,4-21.1,7.6c-7.3,4-18.2,4-21.6-1.1
				c2.2-3.8,4.3-6.4,3.6-12.7c-1.4-13.5-17.5-20.4-28.4-11.3c-9.8,8.2-6.8,25.9,7.3,29c7.8,1.7,11-1.1,13.8-1.6
				c4.7,5.2,15.7,7,24,3.7c7.6-3,12.5-9,22.7-8.8c8.5,0.2,16.2,5.8,22.1,9.4c11.2,6.7,14.9,5.7,25.8,5.8
				c3.7,5.8,17.4,16.8,25.1,21.4c28.4,17.1,61.9,22.2,94.3,11.9c18.2-5.8,37.7-17.5,49.7-31.7c3.7-4.4,1.4-2.9,8.2-3.6
				c18-1.8,31-21.7,52.1-9c4.3,2.6,10,6.3,16.3,6.9c5.1,0.5,10.2-0.8,14.2-3.5C464.7,298.9,465.5,297.9,466.6,297.3L466.6,297.3z"/>
			
				<linearGradient id="SVGID_2_" gradientUnits="userSpaceOnUse" x1="33678.5039" y1="-28505.3223" x2="35390.6953" y2="-34895.2773" gradientTransform="matrix(2.835132e-02 0 0 -2.835132e-02 -691.8138 -675.4835)">
				<stop  offset="0" style="stop-color:#A48C6B"/>
				<stop  offset="1" style="stop-color:#6E5336"/>
			</linearGradient>
			<path class="st1" d="M246.6,240c2.7,3.2,6.1,6.2,9,9.5c5.7,6.4,12.3,13,18.1,19.4c2,2.2,7.9,7.9,9,9.9c-8-3-13.6-11.5-25.8-10.4
				c-11,1-16.4,11.2-26.4,9.8c-2.5-0.3-4.5-1.5-6.1-2.7c-3.8-2.8-3.3-3.8-2.1-5.3l19.9-25.3C243.3,243.6,245.2,240.6,246.6,240
				L246.6,240z M297.1,278.4c1-1.6,2.9-3.4,4.3-5l13.7-15.2c3.3-3.3,6.1-6.7,9.2-10l6.9-7.4c0.9-1.1,1.4-1.9,2.6-2.4
				c1.5,1,11.4,13.1,13,14.9l12.5,15.3c-1.1,4.9-7.9,8.3-14.4,7.4c-5.5-0.8-10.3-4.7-15.6-6.5c-9.8-3.4-17.3,0.4-25.1,5.3
				C302.7,275.5,298.9,278,297.1,278.4L297.1,278.4z M289.8,278.5c-1.5-1-5.7-6.1-7.4-8c-4-4.5-32.1-33.5-32.6-34.8l9.7-11.8
				c2.9-3.4,28.1-32.8,30.3-34.7c5,4.1,28.4,31.4,35.4,38.7c1.7,1.7,3.1,3.9,5.1,5.6c-0.6,1.9-7.6,8.6-10,11.3L289.8,278.5
				L289.8,278.5z M332.8,164.5l9.5,7.4c17.5,15.7,25.8,37.5,25.4,61.9c-0.2,14.2-2.9,18-5.9,29.1c-1.3-0.6-2.3-2.3-3.3-3.5l-21.2-25
				c0.7-1.8,8.1-9,10.2-11.3c0.8-0.9,2.9-2.5,1.6-4.5c-2.5-3.7-7.2,3.1-8.3,4.2c-1.1,1.2-6.5,6.8-7.1,7.1l-38.1-41.9
				c-1.1-1.2-4.3-5.5-6.4-5.1c-2,0.4-29.8,33.2-32.4,36.3c-1.7,2-3.4,4-5.2,6.2c-1.8,2.1-3.9,4.4-5.2,6.5c-1.6-0.6-2.5-2-4.2-3.7
				c-1.4-1.4-2.5-2.6-3.8-4c-1.3-1.4-2.4-2.4-3.7-3.8c-1.1-1.1-3-3-4.8-1.1c-2.2,2.4,2.1,5.5,5.2,8.8c2.3,2.4,5.6,5.3,7.5,7.8
				c-0.8,1.8-20.2,24.8-23.7,30.4c-1.2-0.9-1.7-3-2.2-4.3c-0.6-1.7-1.1-3-1.6-4.6c-1-3.2-1.7-6.3-2.5-9.9c-2.4-10.8-1-19.3-1.8-23.4
				c-0.5-2.6,0.6-11.8,1.4-12.9l-1.8,0l-0.2,3.6c-1-0.3-1.6-0.8-2-1.6l0,3.3c-0.4-0.4-0.5-0.3-0.6-1.6c-0.2,2.2,0.1,0.3-0.5,1
				c0.5,1.3,0.3,0.5-0.3,0.9c-0.8,9.9-1.6,14.6-0.2,25.3c1.1,8,2.9,15.1,5.5,22.1c2.9,7.6,5.7,13.2,11,16.4c7.2,4.3,14.2,3,21.1-1.3
				c5.3-3.2,11.6-8.5,20.1-5.2c6.7,2.6,11,7.4,17.7,9.9c18,6.7,26.4-12.8,41.9-11c7.5,0.9,11.9,6.2,19.9,7.5c9.4,1.6,15.7-3,19-8.1
				c7-10.9,10.5-31.3,9.9-45c-1-23-9.9-43.2-25-57.6c-2.2-2.1-12.3-10.7-15.8-11.7c-1.1,0-0.5,0.3-0.8-0.4c-0.3,0.6,0,0.7,0.1,0.8
				c0.3,0.2,0.2-0.9,0.3,0.2c0,0.3,1.1,0.2-0.7,0.4c-0.8,0.1,0,0.1-0.6,0c-0.7-0.1-0.5-0.1-0.8-0.3l-0.5,1.4
				c0.5-0.6,0.2-0.8,1.8-0.3l0.5,0.2c1.7,0.8,0.4,0.8,1.9,1.1c-0.1,0.1-0.2,0-0.2,0.1l-0.8,0.3c0,0-0.1,0.1-0.2,0.1l-1.4,0.2
				c-3,0-0.3-1.4-2.3-0.3c1.6,0.2,2.6,1.1,2.8,1.1c1.3,0.2-0.3,0.2,0.3-0.1c2.3-1.3-2.2,0.6,0.5-0.4
				C331.5,164,332.1,163.3,332.8,164.5L332.8,164.5z M330.7,157.7c-1.7,0.2-0.7,0.2-0.8-0.4c-1.1,0.5,0,0.1-0.6,1.2
				c0.1-0.1,0.5-0.3,0.7-0.4c0.8-0.6,0.2,0,0.6-0.5L330.7,157.7z"/>
			
				<linearGradient id="SVGID_3_" gradientUnits="userSpaceOnUse" x1="33499.5547" y1="-28553.2715" x2="35211.7422" y2="-34943.2539" gradientTransform="matrix(2.835132e-02 0 0 -2.835132e-02 -691.8138 -675.4835)">
				<stop  offset="0" style="stop-color:#A48C6B"/>
				<stop  offset="1" style="stop-color:#6E5336"/>
			</linearGradient>
			<path class="st2" d="M184.3,262.1c-0.3-2.7-1.5-6.1-2.1-9.2c-6.9-36.4,4.2-70.6,29.1-96.7c21.3-22.2,53.5-34.6,85.3-32.9
				c21,1.1,43.6,9.1,59.5,22c1.1,0.9,1.8,1.7,3.1,2.1c-0.2,0.7-0.3,0.5,0.3,0.3c-0.2,0.7-0.3,0.5,0.4,0.3c-0.3,0.7-0.3,0.6,0.4,0.3
				c-0.3,0.6-0.3,0.4,0.5,0.5c0-0.8,0.2-0.7-0.5-0.5c0.2-0.7,0.3-0.6-0.4-0.3c0.3-0.7,0.3-0.5-0.4-0.3c0.2-0.7,0.3-0.5-0.3-0.3
				l0.9,0.2c0.5-0.7,0-0.1,0.1-1c0.1-1.1,0.9,0.1,0.4-1.7c0.7,0.6,0.4,0.5,1.3,1l0.2-0.5c0.3-1.1-0.2,0.4,0.1-0.4
				c0.2,0.2,0.7,0.9,0.7,1l-0.2,0.8c0-0.1-0.1,0.2-0.1,0.2c1.5,0.1,1.7,0.5,3.1,0.7l-1.6-1.3c-1-1,0.8,1.4-0.3-0.6
				c-0.7-1.1-1.5-1.5-2.5-1.5l-0.1-0.6c0-0.2,0.1-0.1,0-0.4l-2-1.4c0.9,0.3,0.9,0.6,1.8,1.3c0.1,0.1,0.3,0.2,0.4,0.3
				c0.1,0,0.1,0.1,0.2,0.1l1,0.9c0.8,0.8,2.3,2.3,3.3,2.6c0.4,0.7-0.4,0.4,0.9,0.7c-0.1,0.5-0.2,0.4,0.3,0.3
				c-0.1,0.6-0.2,0.5,0.4,0.3c-0.1,0.6-0.3,0.5,0.3,0.3c-0.1,0.6-0.2,0.5,0.3,0.3c-0.1,0.6-0.2,0.5,0.4,0.3
				c-0.2,0.6-0.3,0.5,0.3,0.3c-0.2,0.6-0.3,0.5,0.3,0.3c-0.2,0.6-0.3,0.5,0.3,0.3c-0.2,0.6-0.3,0.5,0.3,0.3
				c-0.2,0.6-0.3,0.5,0.3,0.3c-0.2,0.6-0.3,0.5,0.3,0.3c-0.2,0.6-0.3,0.5,0.3,0.3c-0.2,0.6-0.3,0.5,0.3,0.4
				c-0.2,0.6-0.3,0.5,0.3,0.3c0.3,1,0.8,1.3,1.5,2.1c0.2,0.3,0.5,0.6,0.8,0.9c0.8,0.7,0.2,0.3,1,0.6c-0.2,0.6-0.3,0.5,0.3,0.4
				c-0.1,0.6-0.2,0.4,0.3,0.3c-0.1,0.5-0.2,0.4,0.3,0.3c0.2,1.7-0.1,0.6,0.7,0.9c-0.2,0.6-0.3,0.5,0.3,0.3c-0.2,0.6-0.3,0.5,0.3,0.3
				c0.1,0.4,0.1,0.4,0.3,0.6c0,0,0.2,0.2,0.2,0.1c0-0.1,0.1,0.1,0.2,0.1c-0.2,0.6-0.3,0.5,0.3,0.4c-0.2,0.6-0.3,0.5,0.3,0.4
				c-0.2,0.6-0.2,0.4,0.4,0.4c-0.1-0.6,0.1-0.6-0.4-0.4c0.1-0.6,0.3-0.5-0.3-0.4c0.2-0.6,0.3-0.5-0.3-0.4c-0.2-0.9,0-0.6-0.7-0.9
				c0.1-0.6,0.3-0.5-0.3-0.3c0.2-0.6,0.3-0.5-0.3-0.3c-0.2-0.9,0.1-0.6-0.7-0.9c0.1-0.5,0.2-0.5-0.3-0.3c0.1-0.6,0.2-0.4-0.3-0.3
				c0.1-0.6,0.3-0.5-0.3-0.4c-0.3-0.9-2.2-3.1-3.3-3.6c0.2-0.6,0.3-0.5-0.3-0.3c0.2-0.6,0.3-0.5-0.3-0.4c0.1-0.6,0.3-0.5-0.3-0.3
				c0.2-0.6,0.3-0.5-0.3-0.3c0.2-0.6,0.3-0.5-0.3-0.3c0.2-0.6,0.3-0.5-0.3-0.3c0.2-0.6,0.3-0.5-0.3-0.3c0.2-0.6,0.3-0.5-0.3-0.3
				c0.2-0.6,0.3-0.4-0.3-0.3c0.2-0.6,0.3-0.5-0.4-0.3c0.1-0.5,0.2-0.4-0.3-0.3c0.1-0.6,0.2-0.5-0.3-0.3c0.2-0.6,0.2-0.5-0.4-0.3
				c0.1-0.5,0.2-0.4-0.3-0.3c-0.3-0.8,0-0.5-0.9-0.7c-0.2-0.7,0.1-0.5-1.3-1.6l-4.3-3.5c-0.1,0-0.1-0.1-0.2-0.2
				c-4.7-4.4-15.6-10.6-21.8-13.4c-37.4-16.6-77.7-12.4-109.7,7.8c-36.3,22.8-56.9,63.6-52.7,107.5c0.3,3.2,2.1,15.9,3.8,19.2
				c0.1-1.6-0.1-0.6,0.5-1l0.4,1.7c0.3-0.8,0.3-1.2-0.2-1.9c-0.7-1.3-0.3-0.5-0.9,0.4l0.2-2.1c0,0.1,0.1,0.1,0.2,0.2
				c0,0.1,0.3,0.3,0.4,0.3c0.4,0.3,0.2,0.3,0.7,0.4c0-2.8-1-5.6,0.4-7.5c-0.1,1.4-0.2,0.8-0.3,2.3c0,1.2,0.1,1.8,0.3,2.6
				c0.6-1.3,0-0.2,0.1-1.1l0.7,0c0.6,1.2,0.6,0.6,0.8,1.6C182.9,260.2,183,260.8,184.3,262.1L184.3,262.1z"/>
			
				<linearGradient id="SVGID_4_" gradientUnits="userSpaceOnUse" x1="36860.2188" y1="-27652.7754" x2="38572.4336" y2="-34042.7539" gradientTransform="matrix(2.835132e-02 0 0 -2.835132e-02 -691.8138 -675.4835)">
				<stop  offset="0" style="stop-color:#A48C6B"/>
				<stop  offset="1" style="stop-color:#6E5336"/>
			</linearGradient>
			<path class="st3" d="M396.1,278.8c-2.6,7.9-15.2,4.9-12.5-3.6C386.2,267,398.7,270.9,396.1,278.8z M359.2,147.5
				c0.6-0.2,0.5-0.4,0.3,0.3c0.7-0.2,0.7-0.4,0.4,0.3c0.7-0.3,0.6-0.4,0.4,0.3c0.7-0.3,0.5-0.3,0.5,0.5c0.3,0.7,3.9,3.7,4.8,4.6
				c11.7,11.6,21.3,26.9,26.5,43.2c6.9,21.8,7.7,46.8,0.2,68.9c-3.8,0.2-5.1-0.3-8.3,1.5c-7.9,4.5-7.5,16.7,0.4,20.3
				c6.4,2.9,12.9-0.4,15.3-4.2c3.4-5.6,1.3-12.5-2.6-15.1c0.3-2.9,4.4-12.8,5.4-28.6c1.5-24.8-4.4-48.4-17.1-68.9
				c-1.3-2-5.6-8.8-7.1-9.9c-0.7,0-0.6,0.2-0.4-0.4c-0.6,0.1-0.5,0.2-0.3-0.4c-0.6,0.2-0.5,0.3-0.3-0.4c-0.1,0-0.2-0.2-0.2-0.1
				c0,0.1-0.2-0.1-0.2-0.1c-0.2-0.2-0.2-0.2-0.3-0.6c-0.6,0.1-0.5,0.2-0.3-0.3c-0.6,0.1-0.5,0.2-0.3-0.3c-0.9-0.4-0.5,0.8-0.7-0.9
				c-0.5,0.1-0.4,0.2-0.3-0.3c-0.6,0.1-0.5,0.2-0.3-0.3c-0.6,0.1-0.5,0.2-0.3-0.4c-0.8-0.3-0.2,0.1-1-0.6c-0.2-0.2-0.5-0.6-0.8-0.9
				c-0.7-0.8-1.2-1.1-1.5-2.1c-0.6,0.1-0.5,0.3-0.3-0.3c-0.6,0.1-0.5,0.3-0.3-0.4c-0.6,0.2-0.5,0.3-0.3-0.3
				c-0.6,0.2-0.5,0.3-0.3-0.3c-0.6,0.2-0.5,0.3-0.3-0.3c-0.6,0.2-0.5,0.3-0.3-0.3c-0.6,0.2-0.5,0.3-0.3-0.3
				c-0.6,0.2-0.5,0.3-0.3-0.3c-0.6,0.2-0.5,0.3-0.3-0.3c-0.6,0.1-0.5,0.3-0.4-0.3c-0.6,0.2-0.5,0.3-0.3-0.3
				c-0.6,0.1-0.5,0.2-0.3-0.3c-0.6,0.1-0.5,0.3-0.4-0.3c-0.5,0.1-0.4,0.2-0.3-0.3c-1.3-0.3-0.5,0-0.9-0.7c-0.9-0.3-2.5-1.8-3.3-2.6
				l-1-0.9c-0.1,0-0.1-0.1-0.2-0.1c-0.1-0.1-0.3-0.2-0.4-0.3c-0.9-0.8-0.9-1-1.8-1.3l2,1.4c0.1,0.4,0,0.3,0,0.4l0.1,0.6
				c1,0,1.9,0.4,2.5,1.5c1.2,2-0.7-0.4,0.3,0.6l1.6,1.3c-1.4-0.1-1.6-0.6-3.1-0.7c0-0.1,0.1-0.3,0.1-0.2l0.2-0.8
				c0-0.1-0.5-0.7-0.7-1c-0.2,0.9,0.2-0.7-0.1,0.4l-0.2,0.5c-0.9-0.5-0.6-0.4-1.3-1c0.6,1.8-0.3,0.7-0.4,1.7c-0.1,0.9,0.4,0.2-0.1,1
				L359.2,147.5L359.2,147.5z"/>
			
				<linearGradient id="SVGID_5_" gradientUnits="userSpaceOnUse" x1="33411.6992" y1="-28576.8125" x2="35123.8867" y2="-34966.793" gradientTransform="matrix(2.835132e-02 0 0 -2.835132e-02 -691.8138 -675.4835)">
				<stop  offset="0" style="stop-color:#A48C6B"/>
				<stop  offset="1" style="stop-color:#6E5336"/>
			</linearGradient>
			<path class="st4" d="M331.2,158c0.3,0.7-0.3,0.4,0.8,0.4C331.6,157.8,332.4,157.8,331.2,158c0.3-0.7,0.3-0.4-0.6-0.4
				c-0.4,0.5,0.2-0.1-0.6,0.5c-0.2,0.1-0.5,0.3-0.7,0.4c0.6-1.1-0.5-0.7,0.6-1.2c0.1,0.6-0.9,0.6,0.8,0.4c-0.3-0.5,0.6-0.7-0.8-0.4
				c-0.6-1-3.1-2-4.2-2.4c-24.7-10.8-53.3-8.8-76.7,3c-17.2,8.7-28.7,22.1-36.4,38.8c-1.6,3.4-6,15.1-5.4,19.3
				c-0.4,0.1-0.3-0.7-0.3,0.9c0.6-0.4,0.8,0.4,0.3-0.9c0.5-0.7,0.3,1.2,0.5-1c0,1.3,0.2,1.2,0.6,1.6l0-3.3c0.4,0.9,1,1.4,2,1.6
				l0.2-3.6l1.8,0c-0.8,1.1-1.9,10.3-1.4,12.9c0.1-0.1,0.1-0.3,0.1-0.2l0.4-2.3c1-12.6,5.6-25.1,12.8-35.2c4-5.6,6.6-9,11.9-13.5
				c15.9-13.5,33.1-20.4,56.7-20.3c7.7,0,15.4,1.4,22.1,3.5c4.4,1.4,7.5,2.7,11.4,4.6l2.6,1.3c0.1,0,0.1,0.1,0.2,0.1
				c0.1,0,0.1,0.1,0.2,0.1c1.7,0.9,2,1.4,3.6,2c-0.7-1.2-1.3-0.5-0.9-2.1c-2.7,1,1.8-1-0.5,0.4c-0.6,0.3,1,0.3-0.3,0.1
				c-0.2,0-1.3-0.9-2.8-1.1c2-1.1-0.8,0.3,2.3,0.3l1.4-0.2c0,0,0.1-0.1,0.2-0.1l0.8-0.3c0-0.1,0.2,0,0.2-0.1
				c-1.6-0.3-0.3-0.4-1.9-1.1l-0.5-0.2c-1.6-0.5-1.3-0.3-1.8,0.3l0.5-1.4c0.4,0.2,0.1,0.2,0.8,0.3c0.5,0.1-0.2,0.1,0.6,0
				c1.8-0.2,0.7-0.1,0.7-0.4c-0.1-1,0,0.1-0.3-0.2C331.2,158.7,330.9,158.6,331.2,158L331.2,158z"/>
			
				<linearGradient id="SVGID_6_" gradientUnits="userSpaceOnUse" x1="33687.4062" y1="-28503.0176" x2="35399.543" y2="-34892.875" gradientTransform="matrix(2.835132e-02 0 0 -2.835132e-02 -691.8138 -675.4835)">
				<stop  offset="0" style="stop-color:#A48C6B"/>
				<stop  offset="1" style="stop-color:#6E5336"/>
			</linearGradient>
			<path class="st5" d="M277.1,242.3c0.7-1.2,11.7-13.5,12.7-14.2c2.1,1.9,9.7,10.9,12.6,13.9c-2,2.3-4,5.1-6.1,7.7l-6.1,7.5
				C289.2,256.4,277.5,243.3,277.1,242.3L277.1,242.3z M273.5,238.4c-3.3-1.7-8.1-11.7-11.7-8.7c-1.4,1.2-0.9,2.9,0.1,4l17.8,19.6
				c1.8,1.9,3.3,3.9,5,5.8c1.1,1.2,1.6,1.8,2.6,3c4.1,5.1,6.8-1.8,13.4-10.1c3.3-4.1,6.5-7.7,9.8-11.7c3.2-4,10.5-10.6,6.1-12.4
				c-3.9-1.5-8.1,8.9-11.3,10c-1.8-2.8-5.3-5.8-7.6-8.7c-1.4-1.6-6.2-7.7-8.5-7.4C287.1,222.2,276.2,236.2,273.5,238.4L273.5,238.4z
				"/>
			
				<linearGradient id="SVGID_7_" gradientUnits="userSpaceOnUse" x1="29891.4453" y1="-29520.0781" x2="31603.6582" y2="-35910.0078" gradientTransform="matrix(2.835132e-02 0 0 -2.835132e-02 -691.8138 -675.4835)">
				<stop  offset="0" style="stop-color:#A48C6B"/>
				<stop  offset="1" style="stop-color:#6E5336"/>
			</linearGradient>
			<path class="st6" d="M185.3,270.8c8.2-2.2,11.5,10.6,2.8,12.4C178.9,285,177.1,273,185.3,270.8z M179.4,262.8l1.1,4.7
				c-4.1,2-7.3,9.2-4.2,15c6.1,11.3,25.2,5.1,21.6-8.5c-1.7-6.3-6.6-8.3-12.6-8.5l-1-3.4c-1.2-1.3-1.4-1.9-1.6-3.4
				c-0.2-0.9-0.2-0.3-0.8-1.6l-0.7,0c-0.1,1,0.5-0.1-0.1,1.1c-0.2-0.9-0.4-1.5-0.3-2.6c0.1-1.5,0.2-1,0.3-2.3
				c-1.4,1.9-0.4,4.7-0.4,7.5c-0.6-0.2-0.3-0.1-0.7-0.4c-0.1,0-0.3-0.2-0.4-0.3c0-0.1-0.1-0.1-0.2-0.2l-0.2,2.1
				c0.5-0.9,0.2-1.7,0.9-0.4c0.4,0.8,0.5,1.1,0.2,1.9l-0.4-1.7C179.3,262.2,179.5,261.1,179.4,262.8L179.4,262.8z"/>
			
				<linearGradient id="SVGID_8_" gradientUnits="userSpaceOnUse" x1="37067.2461" y1="-27597.3164" x2="38779.457" y2="-33987.1992" gradientTransform="matrix(2.835132e-02 0 0 -2.835132e-02 -691.8138 -675.4835)">
				<stop  offset="0" style="stop-color:#A48C6B"/>
				<stop  offset="1" style="stop-color:#6E5336"/>
			</linearGradient>
			<path class="st7" d="M368.2,105.1c-1,0.4-9,9.4-10.2,11c-2.4,2.9-7,6.5-6.6,9c0.2,1.4,1.6,2.4,3.4,1.9
				c1.2-0.4,13.2-14.4,15.2-16.5C373.7,106.4,370.5,104.3,368.2,105.1L368.2,105.1z"/>
			
				<linearGradient id="SVGID_9_" gradientUnits="userSpaceOnUse" x1="29198.2188" y1="-29706.0508" x2="30910.1113" y2="-36095.418" gradientTransform="matrix(2.835132e-02 0 0 -2.835132e-02 -691.8138 -675.4835)">
				<stop  offset="0" style="stop-color:#A48C6B"/>
				<stop  offset="1" style="stop-color:#6E5336"/>
			</linearGradient>
			<path class="st8" d="M165.8,230.7c0.3-0.5,1.9-5.1-3.9-3.9l-14.9,2.1c-2.3,0.2-5.7-0.2-6.7,1.4c-1.9,3.1,1.4,4,4,3.9
				C148.1,233.9,164.7,232.5,165.8,230.7L165.8,230.7z"/>
			
				<linearGradient id="SVGID_10_" gradientUnits="userSpaceOnUse" x1="34814.9414" y1="-28200.7891" x2="36527.25" y2="-34590.5234" gradientTransform="matrix(2.835132e-02 0 0 -2.835132e-02 -691.8138 -675.4835)">
				<stop  offset="0" style="stop-color:#A48C6B"/>
				<stop  offset="1" style="stop-color:#6E5336"/>
			</linearGradient>
			<path class="st9" d="M287,83.4c-1.3,0.5-1.6,0.6-1.8,2.3l0.3,19.6c0,2.6,0.3,5.5,3.5,4.4c2.2-0.7,1.5-3.8,1.5-6.4
				c0-2.7-0.1-5.4-0.1-8.1C290.3,91.7,291.6,81.7,287,83.4z"/>
			
				<linearGradient id="SVGID_11_" gradientUnits="userSpaceOnUse" x1="38173.6211" y1="-27301.6504" x2="39885.3672" y2="-33690.6484" gradientTransform="matrix(2.835132e-02 0 0 -2.835132e-02 -691.8138 -675.4835)">
				<stop  offset="0" style="stop-color:#A48C6B"/>
				<stop  offset="1" style="stop-color:#6E5336"/>
			</linearGradient>
			<path class="st10" d="M438.7,234.1c1.9-4.8-7.3-3.8-10.5-3.9c-3.1-0.1-12.6-0.7-13.7,1.3c-1.5,2.5,0.6,4,3,3.9
				c5.5-0.1,9.3-0.3,15,0C435.2,235.6,437.8,236.4,438.7,234.1L438.7,234.1z"/>
			
				<linearGradient id="SVGID_12_" gradientUnits="userSpaceOnUse" x1="32326.9766" y1="-28867.4375" x2="34039.1406" y2="-35257.3203" gradientTransform="matrix(2.835132e-02 0 0 -2.835132e-02 -691.8138 -675.4835)">
				<stop  offset="0" style="stop-color:#A48C6B"/>
				<stop  offset="1" style="stop-color:#6E5336"/>
			</linearGradient>
			<path class="st11" d="M209.2,102.3c-4.3,1.9,0.9,6.3,4.8,10.9c1.5,1.8,2.8,3.3,4.3,5.1c1.2,1.4,3,4.8,5.6,3.9
				c3.3-1.1,0.7-4.3-0.7-5.8l-8.8-10.4C213.4,104.8,211.3,101.4,209.2,102.3z"/>
			
				<linearGradient id="SVGID_13_" gradientUnits="userSpaceOnUse" x1="30273.8008" y1="-29417.6113" x2="31985.9395" y2="-35807.418" gradientTransform="matrix(2.835132e-02 0 0 -2.835132e-02 -691.8138 -675.4835)">
				<stop  offset="0" style="stop-color:#A48C6B"/>
				<stop  offset="1" style="stop-color:#6E5336"/>
			</linearGradient>
			<path class="st12" d="M158.4,157c-2.3,0.9-2.7,3.7,0.5,4.9l12.3,5.3c0.4,0.2,8.1,5.1,7.6-0.4c-0.2-2.2-5.2-4-8.1-5.4
				C168.9,160.5,160.2,156.2,158.4,157z"/>
			
				<linearGradient id="SVGID_14_" gradientUnits="userSpaceOnUse" x1="38138.582" y1="-27310.3887" x2="39850.5977" y2="-33700.0234" gradientTransform="matrix(2.835132e-02 0 0 -2.835132e-02 -691.8138 -675.4835)">
				<stop  offset="0" style="stop-color:#A48C6B"/>
				<stop  offset="1" style="stop-color:#6E5336"/>
			</linearGradient>
			<path class="st13" d="M415.2,162.8c-3.8,1.7-7,3.7-11.2,5.5c-1.7,0.7-5.1,1.6-5.9,2.6c-1.4,2,0.2,4.5,3.1,3.8
				c3-0.8,15.7-6.4,17-8.1C419.7,164.6,418,161.6,415.2,162.8z"/>
			
				<linearGradient id="SVGID_15_" gradientUnits="userSpaceOnUse" x1="37551.5078" y1="-27467.6738" x2="39263.5" y2="-33857.1641" gradientTransform="matrix(2.835132e-02 0 0 -2.835132e-02 -691.8138 -675.4835)">
				<stop  offset="0" style="stop-color:#A48C6B"/>
				<stop  offset="1" style="stop-color:#6E5336"/>
			</linearGradient>
			<path class="st14" d="M381.7,138.1c-2.4,0.9-1.8,6.5,2.2,5.2C386.7,142.4,385.7,136.6,381.7,138.1z"/>
			
				<linearGradient id="SVGID_16_" gradientUnits="userSpaceOnUse" x1="32626.75" y1="-28787.2246" x2="34339.0859" y2="-35176.9102" gradientTransform="matrix(2.835132e-02 0 0 -2.835132e-02 -691.8138 -675.4835)">
				<stop  offset="0" style="stop-color:#A48C6B"/>
				<stop  offset="1" style="stop-color:#6E5336"/>
			</linearGradient>
			<path class="st15" d="M248.7,199.1c-2.9,0.9-2.1,6.5,2,5.1C253.4,203.2,252.3,197.9,248.7,199.1z"/>
			
				<linearGradient id="SVGID_17_" gradientUnits="userSpaceOnUse" x1="31249.7988" y1="-29156.0449" x2="32961.8867" y2="-35545.4102" gradientTransform="matrix(2.835132e-02 0 0 -2.835132e-02 -691.8138 -675.4835)">
				<stop  offset="0" style="stop-color:#A48C6B"/>
				<stop  offset="1" style="stop-color:#6E5336"/>
			</linearGradient>
			<path class="st16" d="M191.6,142.1c-3.5,1.3-2,6,1.3,5C196.2,146.2,195.7,140.7,191.6,142.1z"/>
			
				<linearGradient id="SVGID_18_" gradientUnits="userSpaceOnUse" x1="33514.9883" y1="-28548.9609" x2="35226.707" y2="-34937.9102" gradientTransform="matrix(2.835132e-02 0 0 -2.835132e-02 -691.8138 -675.4835)">
				<stop  offset="0" style="stop-color:#A48C6B"/>
				<stop  offset="1" style="stop-color:#6E5336"/>
			</linearGradient>
			<path class="st17" d="M250.5,105.5c-3.5,1.4-1,6,2.1,5.1C255.8,109.7,253.7,104.3,250.5,105.5z"/>
			
				<linearGradient id="SVGID_19_" gradientUnits="userSpaceOnUse" x1="37650.4727" y1="-27441.5449" x2="39362.4648" y2="-33831.0352" gradientTransform="matrix(2.835132e-02 0 0 -2.835132e-02 -691.8138 -675.4835)">
				<stop  offset="0" style="stop-color:#A48C6B"/>
				<stop  offset="1" style="stop-color:#6E5336"/>
			</linearGradient>
			<path class="st18" d="M423.8,274.2c1.8-3.4-3.7-5.1-5-2.2C417.3,275.2,422.3,277.1,423.8,274.2z"/>
			
				<linearGradient id="SVGID_20_" gradientUnits="userSpaceOnUse" x1="38151.0195" y1="-27307.4238" x2="39862.8867" y2="-33696.5469" gradientTransform="matrix(2.835132e-02 0 0 -2.835132e-02 -691.8138 -675.4835)">
				<stop  offset="0" style="stop-color:#A48C6B"/>
				<stop  offset="1" style="stop-color:#6E5336"/>
			</linearGradient>
			<path class="st19" d="M419.8,201.9c1.4-3.1-3.7-4.9-5.1-2.1C413.1,203.3,418.4,205,419.8,201.9z"/>
			
				<linearGradient id="SVGID_21_" gradientUnits="userSpaceOnUse" x1="31392.0703" y1="-29117.9883" x2="33104.3789" y2="-35507.7227" gradientTransform="matrix(2.835132e-02 0 0 -2.835132e-02 -691.8138 -675.4835)">
				<stop  offset="0" style="stop-color:#A48C6B"/>
				<stop  offset="1" style="stop-color:#6E5336"/>
			</linearGradient>
			<path class="st20" d="M206.3,179.1c-4.3,1.4-1.9,6.1,1.2,5C210.8,182.9,209.2,178.1,206.3,179.1z"/>
			
				<linearGradient id="SVGID_22_" gradientUnits="userSpaceOnUse" x1="35792.543" y1="-27940.1914" x2="37503.8203" y2="-34328.3789" gradientTransform="matrix(2.835132e-02 0 0 -2.835132e-02 -691.8138 -675.4835)">
				<stop  offset="0" style="stop-color:#A48C6B"/>
				<stop  offset="1" style="stop-color:#6E5336"/>
			</linearGradient>
			<path class="st21" d="M353.9,233.4c-3.3,1.4-1.3,6.2,2,4.7C358.8,236.8,357.4,231.9,353.9,233.4z"/>
			
				<linearGradient id="SVGID_23_" gradientUnits="userSpaceOnUse" x1="36871.668" y1="-27650.0078" x2="38583.6602" y2="-34039.3242" gradientTransform="matrix(2.835132e-02 0 0 -2.835132e-02 -691.8138 -675.4835)">
				<stop  offset="0" style="stop-color:#A48C6B"/>
				<stop  offset="1" style="stop-color:#6E5336"/>
			</linearGradient>
			<path class="st22" d="M372.7,181.5c-1,0.5-2.2,1.3-1.4,3.2c0.5,1.2,2,1.9,3.7,1.3C377.9,184.9,376.2,179.9,372.7,181.5z"/>
			
				<linearGradient id="SVGID_24_" gradientUnits="userSpaceOnUse" x1="34525.0039" y1="-28278.5254" x2="36237.0195" y2="-34668.0391" gradientTransform="matrix(2.835132e-02 0 0 -2.835132e-02 -691.8138 -675.4835)">
				<stop  offset="0" style="stop-color:#A48C6B"/>
				<stop  offset="1" style="stop-color:#6E5336"/>
			</linearGradient>
			<path class="st23" d="M288,132c-3,1.5-0.8,6.4,2.6,4.6C292.9,135.4,291.6,130.3,288,132z"/>
			
				<linearGradient id="SVGID_25_" gradientUnits="userSpaceOnUse" x1="34974.3516" y1="-28159.0078" x2="36686.1953" y2="-34548.1797" gradientTransform="matrix(2.835132e-02 0 0 -2.835132e-02 -691.8138 -675.4835)">
				<stop  offset="0" style="stop-color:#A48C6B"/>
				<stop  offset="1" style="stop-color:#6E5336"/>
			</linearGradient>
			<path class="st24" d="M347.3,303.1c-3,1.3-0.8,6.2,2.7,4.3C352.5,306.1,351,301.4,347.3,303.1z"/>
			
				<linearGradient id="SVGID_26_" gradientUnits="userSpaceOnUse" x1="35000.5117" y1="-28151.7812" x2="36712.5508" y2="-34540.875" gradientTransform="matrix(2.835132e-02 0 0 -2.835132e-02 -691.8138 -675.4835)">
				<stop  offset="0" style="stop-color:#A48C6B"/>
				<stop  offset="1" style="stop-color:#6E5336"/>
			</linearGradient>
			<path class="st25" d="M334.5,259.2c0.3,3.2,5.5,2.9,5-0.9C339,255.1,334.1,255.4,334.5,259.2z"/>
			
				<linearGradient id="SVGID_27_" gradientUnits="userSpaceOnUse" x1="33103.0273" y1="-28660.5996" x2="34814.8477" y2="-35049.4492" gradientTransform="matrix(2.835132e-02 0 0 -2.835132e-02 -691.8138 -675.4835)">
				<stop  offset="0" style="stop-color:#A48C6B"/>
				<stop  offset="1" style="stop-color:#6E5336"/>
			</linearGradient>
			<path class="st26" d="M286.8,297c0.7,2.7,5.8,2.1,5-1.6C291.2,292.5,285.8,293,286.8,297z"/>
			
				<linearGradient id="SVGID_28_" gradientUnits="userSpaceOnUse" x1="31877.9219" y1="-28988.457" x2="33589.7891" y2="-35377.4805" gradientTransform="matrix(2.835132e-02 0 0 -2.835132e-02 -691.8138 -675.4835)">
				<stop  offset="0" style="stop-color:#A48C6B"/>
				<stop  offset="1" style="stop-color:#6E5336"/>
			</linearGradient>
			<path class="st27" d="M241.9,259.7c-3,1.2-1.4,5.9,2.2,4.6C246.9,263.3,245.5,258.2,241.9,259.7z"/>
			
				<linearGradient id="SVGID_29_" gradientUnits="userSpaceOnUse" x1="33641.7109" y1="-28515.4277" x2="35353.8711" y2="-34904.9922" gradientTransform="matrix(2.835132e-02 0 0 -2.835132e-02 -691.8138 -675.4835)">
				<stop  offset="0" style="stop-color:#A48C6B"/>
				<stop  offset="1" style="stop-color:#6E5336"/>
			</linearGradient>
			<path class="st28" d="M292.5,239c1.5-3.3-3.5-4.9-4.7-2.4C286.1,240.2,291.1,241.9,292.5,239z"/>
			
				<linearGradient id="SVGID_30_" gradientUnits="userSpaceOnUse" x1="29791.1211" y1="-29547.1309" x2="31502.9648" y2="-35936.2031" gradientTransform="matrix(2.835132e-02 0 0 -2.835132e-02 -691.8138 -675.4835)">
				<stop  offset="0" style="stop-color:#A48C6B"/>
				<stop  offset="1" style="stop-color:#6E5336"/>
			</linearGradient>
			<path class="st29" d="M160.8,201.9c0.5,3,5.5,2.8,5.1-1C165.5,197.7,160.2,198.5,160.8,201.9z"/>
			
				<linearGradient id="SVGID_31_" gradientUnits="userSpaceOnUse" x1="34222.9453" y1="-28359.5566" x2="35935.0586" y2="-34748.9219" gradientTransform="matrix(2.835132e-02 0 0 -2.835132e-02 -691.8138 -675.4835)">
				<stop  offset="0" style="stop-color:#A48C6B"/>
				<stop  offset="1" style="stop-color:#6E5336"/>
			</linearGradient>
			<path class="st30" d="M287.7,164.9c-0.9,0.6-2.1,1.4-1.2,3.5c0.5,1,2,1.9,3.6,1C292.7,168,290.8,162.9,287.7,164.9z"/>
			
				<linearGradient id="SVGID_32_" gradientUnits="userSpaceOnUse" x1="35999.8438" y1="-27883.2773" x2="37711.7617" y2="-34272.1523" gradientTransform="matrix(2.835132e-02 0 0 -2.835132e-02 -691.8138 -675.4835)">
				<stop  offset="0" style="stop-color:#A48C6B"/>
				<stop  offset="1" style="stop-color:#6E5336"/>
			</linearGradient>
			<path class="st31" d="M325.5,104.7c-1.1,0.7-2,1.3-1.3,3.2c0.5,1.2,2.2,1.9,3.8,1.1C330.6,107.7,328.6,102.8,325.5,104.7z"/>
			
				<linearGradient id="SVGID_33_" gradientUnits="userSpaceOnUse" x1="35204.0234" y1="-28097.1543" x2="36915.6719" y2="-34485.9062" gradientTransform="matrix(2.835132e-02 0 0 -2.835132e-02 -691.8138 -675.4835)">
				<stop  offset="0" style="stop-color:#A48C6B"/>
				<stop  offset="1" style="stop-color:#6E5336"/>
			</linearGradient>
			<path class="st32" d="M326.5,197.5c-3,1.1-1.5,6,1.8,4.8C331.1,201.3,330,196.3,326.5,197.5z"/>
			
				<linearGradient id="SVGID_34_" gradientUnits="userSpaceOnUse" x1="32932.6758" y1="-28706.4414" x2="34644.4219" y2="-35095.2422" gradientTransform="matrix(2.835132e-02 0 0 -2.835132e-02 -691.8138 -675.4835)">
				<stop  offset="0" style="stop-color:#A48C6B"/>
				<stop  offset="1" style="stop-color:#6E5336"/>
			</linearGradient>
			<path class="st33" d="M287.5,318.8c0.7,2.6,5.8,2.1,5-1.6C291.8,314.3,286.6,315.1,287.5,318.8z"/>
			
				<linearGradient id="SVGID_35_" gradientUnits="userSpaceOnUse" x1="31457.4805" y1="-29100.8672" x2="33169.4961" y2="-35490.0391" gradientTransform="matrix(2.835132e-02 0 0 -2.835132e-02 -691.8138 -675.4835)">
				<stop  offset="0" style="stop-color:#A48C6B"/>
				<stop  offset="1" style="stop-color:#6E5336"/>
			</linearGradient>
			<path class="st34" d="M222.9,237.2c-3.1,2.7,0,5.6,2.5,4.2C228.2,239.9,225.8,234.7,222.9,237.2z"/>
			
				<linearGradient id="SVGID_36_" gradientUnits="userSpaceOnUse" x1="31162.5703" y1="-29179.3691" x2="32875.0508" y2="-35569.375" gradientTransform="matrix(2.835132e-02 0 0 -2.835132e-02 -691.8138 -675.4835)">
				<stop  offset="0" style="stop-color:#A48C6B"/>
				<stop  offset="1" style="stop-color:#6E5336"/>
			</linearGradient>
			<path class="st35" d="M232.1,304.6c-0.9,0.6-2,1.2-1.2,3.1c0.5,1.2,2.1,2,3.7,1.2C237.2,307.5,235,302.6,232.1,304.6z"/>
			
				<linearGradient id="SVGID_37_" gradientUnits="userSpaceOnUse" x1="33892.4375" y1="-28448.457" x2="35604.2305" y2="-34837.4805" gradientTransform="matrix(2.835132e-02 0 0 -2.835132e-02 -691.8138 -675.4835)">
				<stop  offset="0" style="stop-color:#A48C6B"/>
				<stop  offset="1" style="stop-color:#6E5336"/>
			</linearGradient>
			<path class="st36" d="M288.6,206.6c-2.9,2.1,0,5.9,2.6,4.3C293.8,209.3,291.6,204.4,288.6,206.6z"/>
			
				<linearGradient id="SVGID_38_" gradientUnits="userSpaceOnUse" x1="28879.3223" y1="-29792.123" x2="30591.2637" y2="-36180.6562" gradientTransform="matrix(2.835132e-02 0 0 -2.835132e-02 -691.8138 -675.4835)">
				<stop  offset="0" style="stop-color:#A48C6B"/>
				<stop  offset="1" style="stop-color:#6E5336"/>
			</linearGradient>
			<path class="st37" d="M151.9,271.9c0.2,3,5.1,3.2,5-0.3C156.8,268.3,151.7,268.6,151.9,271.9z"/>
		</g>
		<path class="st38" d="M160.8,490.4h-7.5v-12.8h1.5V489h6L160.8,490.4L160.8,490.4z M173.9,477.6h1.5v8.5c0,0.8-0.1,1.4-0.3,2
			c-0.2,0.6-0.5,1-0.9,1.4c-0.4,0.4-0.8,0.6-1.3,0.8c-0.5,0.2-1.1,0.3-1.7,0.3c-1.5,0-2.6-0.3-3.4-1c-0.8-0.7-1.1-1.7-1.1-3.1v-8.8
			h1.5v8.1c0,0.6,0.1,1.2,0.2,1.6c0.1,0.4,0.3,0.8,0.6,1.1c0.3,0.3,0.6,0.5,1,0.6c0.4,0.1,0.8,0.2,1.3,0.2c1,0,1.7-0.3,2.1-0.8
			c0.4-0.5,0.6-1.4,0.6-2.7V477.6L173.9,477.6z M185.5,483.9l-3.9-6.3h1.8l2.6,4.3l0.5,1l0.4-1l2.7-4.3h1.7l-4,6.1l4.2,6.6h-1.8
			l-2.9-4.6l-0.5-1.1l-0.5,1.1l-3,4.6h-1.7C181.3,490.4,185.5,483.9,185.5,483.9z M204.8,477.6h1.5v8.5c0,0.8-0.1,1.4-0.3,2
			c-0.2,0.6-0.5,1-0.9,1.4c-0.4,0.4-0.8,0.6-1.3,0.8c-0.5,0.2-1.1,0.3-1.7,0.3c-1.5,0-2.6-0.3-3.4-1c-0.8-0.7-1.1-1.7-1.1-3.1v-8.8
			h1.5v8.1c0,0.6,0.1,1.2,0.2,1.6c0.1,0.4,0.3,0.8,0.6,1.1c0.3,0.3,0.6,0.5,1,0.6c0.4,0.1,0.8,0.2,1.3,0.2c1,0,1.7-0.3,2.1-0.8
			c0.4-0.5,0.6-1.4,0.6-2.7V477.6L204.8,477.6z M213.3,477.7c0.5-0.1,1-0.2,1.6-0.2c0.6,0,1.2-0.1,1.6-0.1c0.6,0,1.1,0.1,1.6,0.2
			c0.5,0.1,0.9,0.3,1.3,0.6c0.4,0.3,0.7,0.6,0.9,1.1c0.2,0.4,0.3,1,0.3,1.6c0,1-0.3,1.8-0.8,2.4c-0.5,0.6-1.2,1-2.1,1.2l0.9,0.7
			l3.2,5.1h-1.8l-3.5-5.5l-1.8-0.3v5.8h-1.5L213.3,477.7L213.3,477.7z M216.6,478.8c-0.2,0-0.3,0-0.5,0c-0.2,0-0.3,0-0.5,0
			c-0.2,0-0.3,0-0.4,0c-0.1,0-0.3,0-0.3,0.1v4.7h1.4c0.8,0,1.5-0.2,2.1-0.6c0.5-0.4,0.8-1.1,0.8-1.9c0-0.7-0.2-1.2-0.7-1.6
			C218,479,217.4,478.8,216.6,478.8L216.6,478.8z M229.8,485.3l-4.2-7.7h1.8l3,5.6l0.3,1.1h0l0.3-1.1l2.9-5.5h1.6l-4.2,7.7v5.1h-1.5
			V485.3L229.8,485.3z M257,480.5c0,0.3,0,0.6-0.1,0.9c-0.1,0.3-0.2,0.6-0.4,0.9c-0.2,0.3-0.4,0.5-0.7,0.7c-0.3,0.2-0.7,0.4-1.1,0.5
			v0.1c0.4,0.1,0.7,0.2,1,0.3c0.3,0.1,0.6,0.3,0.9,0.6c0.3,0.3,0.5,0.6,0.6,0.9c0.2,0.4,0.2,0.8,0.2,1.3c0,0.7-0.1,1.2-0.4,1.7
			c-0.3,0.5-0.6,0.9-1.1,1.2c-0.4,0.3-1,0.5-1.5,0.7c-0.6,0.1-1.2,0.2-1.8,0.2c-0.2,0-0.4,0-0.7,0c-0.3,0-0.6,0-0.9,0
			c-0.3,0-0.6,0-0.9-0.1c-0.3,0-0.6-0.1-0.8-0.1v-12.6c0.5-0.1,1-0.1,1.6-0.2c0.6,0,1.2-0.1,1.9-0.1c0.5,0,1,0,1.5,0.1
			c0.5,0.1,0.9,0.2,1.3,0.5c0.4,0.2,0.7,0.5,1,0.9C256.9,479.4,257,479.9,257,480.5L257,480.5z M252.8,489.2c0.4,0,0.8,0,1.1-0.1
			c0.4-0.1,0.7-0.2,1-0.4c0.3-0.2,0.5-0.4,0.7-0.7c0.2-0.3,0.2-0.6,0.2-1c0-0.5-0.1-0.9-0.3-1.2c-0.2-0.3-0.5-0.5-0.8-0.7
			c-0.3-0.2-0.7-0.3-1.1-0.3c-0.4-0.1-0.8-0.1-1.2-0.1h-1.6v4.6c0.1,0,0.2,0,0.4,0.1c0.2,0,0.3,0,0.5,0c0.2,0,0.4,0,0.6,0
			C252.5,489.2,252.6,489.2,252.8,489.2L252.8,489.2z M251.8,483.2c0.2,0,0.5,0,0.7,0c0.3,0,0.5,0,0.7-0.1c0.3-0.1,0.6-0.2,0.8-0.4
			c0.3-0.1,0.5-0.3,0.7-0.5c0.2-0.2,0.4-0.4,0.5-0.7c0.1-0.2,0.2-0.5,0.2-0.8c0-0.4-0.1-0.7-0.2-1c-0.2-0.3-0.4-0.5-0.6-0.6
			c-0.3-0.2-0.5-0.3-0.9-0.3c-0.3-0.1-0.7-0.1-1-0.1c-0.4,0-0.8,0-1.1,0c-0.3,0-0.6,0-0.8,0.1v4.3L251.8,483.2L251.8,483.2z
			 M263.3,484c0-2.1,0.5-3.8,1.4-4.9c0.9-1.1,2.2-1.7,3.8-1.7c0.9,0,1.7,0.2,2.3,0.5c0.7,0.3,1.2,0.8,1.6,1.3c0.4,0.6,0.8,1.3,1,2.1
			c0.2,0.8,0.3,1.7,0.3,2.7c0,2.1-0.5,3.8-1.4,4.9c-0.9,1.1-2.2,1.7-3.9,1.7c-0.9,0-1.7-0.2-2.3-0.5c-0.7-0.3-1.2-0.8-1.6-1.3
			c-0.4-0.6-0.8-1.3-1-2.1C263.4,485.9,263.3,485,263.3,484z M264.9,484c0,0.7,0.1,1.4,0.2,2c0.1,0.6,0.4,1.2,0.6,1.7
			c0.3,0.5,0.7,0.9,1.1,1.1c0.5,0.3,1,0.4,1.6,0.4c1.1,0,2-0.4,2.7-1.3c0.6-0.9,1-2.2,1-4c0-0.7-0.1-1.4-0.2-2
			c-0.1-0.6-0.4-1.2-0.7-1.7c-0.3-0.5-0.7-0.9-1.1-1.1c-0.5-0.3-1-0.4-1.6-0.4c-1.1,0-2,0.4-2.6,1.3
			C265.3,480.9,264.9,482.2,264.9,484L264.9,484z M287.6,477.6h1.5v8.5c0,0.8-0.1,1.4-0.3,2c-0.2,0.6-0.5,1-0.9,1.4
			c-0.4,0.4-0.8,0.6-1.3,0.8c-0.5,0.2-1.1,0.3-1.7,0.3c-1.5,0-2.6-0.3-3.4-1c-0.8-0.7-1.1-1.7-1.1-3.1v-8.8h1.5v8.1
			c0,0.6,0.1,1.2,0.2,1.6c0.1,0.4,0.3,0.8,0.6,1.1c0.3,0.3,0.6,0.5,1,0.6c0.4,0.1,0.8,0.2,1.3,0.2c1,0,1.7-0.3,2.1-0.8
			c0.4-0.5,0.6-1.4,0.6-2.7L287.6,477.6L287.6,477.6z M304.3,479h-4v11.4h-1.5V479h-4v-1.4h9.5C304.3,477.6,304.3,479,304.3,479z
			 M310.4,477.6h1.5v12.8h-1.5V477.6z M330.5,493.5c-0.3,0.1-0.6,0.1-0.9,0.2c-0.3,0-0.6,0-0.8,0c-0.6,0-1.2-0.1-1.8-0.2
			c-0.6-0.1-1.1-0.3-1.7-0.4c-0.5-0.2-1.1-0.3-1.6-0.4c-0.5-0.1-1-0.2-1.4-0.2c-0.3,0-0.6,0-0.8,0.1v-1.3c0.2,0,0.3-0.1,0.5-0.1
			c0.2,0,0.3,0,0.5,0c0.5,0,1,0.1,1.5,0.2c0.5,0.1,1,0.3,1.5,0.4c0.5,0.2,1.1,0.3,1.6,0.4c0.5,0.1,1.1,0.2,1.7,0.2
			c0.5,0,1.1-0.1,1.6-0.2L330.5,493.5L330.5,493.5z M318.7,484c0-2.1,0.4-3.8,1.4-4.9c0.9-1.1,2.2-1.7,3.8-1.7
			c0.9,0,1.7,0.2,2.3,0.5c0.7,0.3,1.2,0.8,1.6,1.3c0.4,0.6,0.8,1.3,1,2.1c0.2,0.8,0.3,1.7,0.3,2.7c0,2.1-0.5,3.8-1.4,4.9
			c-0.9,1.1-2.2,1.7-3.9,1.7c-0.9,0-1.7-0.2-2.3-0.5c-0.7-0.3-1.2-0.8-1.6-1.3c-0.4-0.6-0.8-1.3-1-2.1
			C318.8,485.9,318.7,485,318.7,484L318.7,484z M320.3,484c0,0.7,0.1,1.4,0.2,2c0.1,0.6,0.4,1.2,0.6,1.7c0.3,0.5,0.7,0.9,1.1,1.1
			c0.5,0.3,1,0.4,1.6,0.4c1.1,0,2-0.4,2.7-1.3c0.6-0.9,1-2.2,1-4c0-0.7-0.1-1.4-0.2-2c-0.1-0.6-0.4-1.2-0.7-1.7
			c-0.3-0.5-0.7-0.9-1.1-1.1c-0.5-0.3-1-0.4-1.6-0.4c-1.1,0-2,0.4-2.6,1.3C320.6,480.9,320.3,482.2,320.3,484L320.3,484z
			 M342.9,477.6h1.5v8.5c0,0.8-0.1,1.4-0.3,2c-0.2,0.6-0.5,1-0.9,1.4c-0.4,0.4-0.8,0.6-1.3,0.8c-0.5,0.2-1.1,0.3-1.7,0.3
			c-1.5,0-2.6-0.3-3.4-1c-0.8-0.7-1.1-1.7-1.1-3.1v-8.8h1.5v8.1c0,0.6,0.1,1.2,0.2,1.6c0.1,0.4,0.3,0.8,0.6,1.1
			c0.3,0.3,0.6,0.5,1,0.6c0.4,0.1,0.8,0.2,1.3,0.2c1,0,1.7-0.3,2.1-0.8c0.4-0.5,0.6-1.4,0.6-2.7V477.6L342.9,477.6z M351.4,477.6
			h6.9v1.4h-5.4v4.2h5v1.3h-5v4.5h5.5v1.4h-7V477.6L351.4,477.6z M379.6,487.1c0-0.5-0.2-0.9-0.5-1.2c-0.3-0.3-0.7-0.6-1.1-0.9
			c-0.5-0.2-1-0.5-1.5-0.7c-0.5-0.2-1-0.5-1.5-0.8c-0.5-0.3-0.8-0.7-1.1-1.1c-0.3-0.5-0.5-1-0.5-1.7c0-1,0.3-1.8,1-2.4
			c0.7-0.6,1.7-0.9,3-0.9c0.7,0,1.4,0.1,2,0.2c0.6,0.1,1.1,0.3,1.4,0.4l-0.5,1.4c-0.3-0.1-0.7-0.3-1.2-0.4c-0.5-0.1-1.2-0.2-1.8-0.2
			c-0.8,0-1.4,0.2-1.8,0.5c-0.4,0.4-0.6,0.8-0.6,1.3c0,0.5,0.2,0.9,0.5,1.2c0.3,0.3,0.7,0.6,1.1,0.8c0.5,0.2,1,0.5,1.5,0.7
			c0.5,0.2,1,0.5,1.5,0.8c0.5,0.3,0.8,0.7,1.1,1.2c0.3,0.4,0.5,1,0.5,1.7c0,0.5-0.1,1-0.3,1.5c-0.2,0.4-0.5,0.8-0.9,1.1
			c-0.4,0.3-0.8,0.6-1.4,0.7s-1.1,0.3-1.8,0.3c-0.9,0-1.7-0.1-2.3-0.2c-0.6-0.1-1.1-0.3-1.4-0.5l0.5-1.4c0.3,0.2,0.7,0.3,1.2,0.5
			c0.5,0.1,1.2,0.2,1.8,0.2c0.4,0,0.8,0,1.1-0.1c0.4-0.1,0.7-0.2,0.9-0.4c0.3-0.2,0.5-0.4,0.6-0.7
			C379.5,487.8,379.6,487.5,379.6,487.1L379.6,487.1z M395.6,479h-4v11.4h-1.5V479h-4v-1.4h9.5V479z M406.3,486.8h-4.7l-1.3,3.5
			h-1.5l4.8-13h0.7l4.8,13h-1.6L406.3,486.8L406.3,486.8z M402.1,485.5h3.7l-1.4-3.9l-0.5-1.9h0l-0.5,2L402.1,485.5L402.1,485.5z
			 M416.3,485.3l-4.2-7.7h1.8l3,5.6l0.3,1.1h0l0.3-1.1l2.9-5.5h1.6l-4.2,7.7v5.1h-1.5V485.3L416.3,485.3z"/>
		
			<linearGradient id="SVGID_39_" gradientUnits="userSpaceOnUse" x1="34548.043" y1="-37649.6133" x2="34455.0234" y2="-41381.0781" gradientTransform="matrix(2.835132e-02 0 0 -2.835132e-02 -691.8138 -675.4835)">
			<stop  offset="0" style="stop-color:#A48C6B"/>
			<stop  offset="1" style="stop-color:#6E5336"/>
		</linearGradient>
		<path class="st39" d="M107.9,357c0.8-4.4,1.9-11.1,3.5-20c0.7-5.2,4.1-7.8,10.4-7.6c3.8,0.1,7.3,1.2,10.5,3.4
			c1.5,1.6,1.8,3.9,0.8,6.7c-5.4,10.9-8.3,24.2-8.7,40c12.5-0.9,18.5-1.3,18-1.3c6.8,0.2,10.2,2.2,10.1,6c0,0.8-0.2,1.6-0.5,2.6
			c-1.4,4.2-5.7,6.6-12.8,7.4c-2.5,0.3-8.7,0.4-18.5,0.1c-0.3,1.4-0.5,3.6-0.6,6.5c-0.2,6.3,0.4,19.4,1.6,39.2
			c1,18.5,1.3,29.6,0.9,33.3c-0.4,4.5-2.7,6.6-7.1,6.5c-4.1-0.1-6.8-2.3-8.1-6.5c-1.1-3.3-2-16.6-2.7-39.8
			c-0.6-22.2-1.9-35.2-3.9-39.1c-5.5,3.9-10.8,5.8-16.1,5.7c-2.4-0.1-4.4-0.8-6.2-2.1c-2.2-1.5-3.3-3.4-3.2-5.6
			c0.1-2.8,1.8-5.2,5.3-7.3c1.7-0.7,5.9-1.8,12.5-3.2c5.1-0.9,8.6-2.4,10.4-4.5c1.8-2.1,2.9-5.2,3.4-9.4
			C107.2,364.1,107.5,360.5,107.9,357L107.9,357z M156.6,390.7c0.1-8.9,2.9-16.3,8.4-22.1c5.5-5.8,12.5-8.6,20.9-8.4
			c8.9,0.2,16.7,3.8,23.5,10.7c6.7,6.9,9.9,14.9,9.5,24c-1.3,3.6-6.3,7.9-15.1,12.8c-10.9,6.2-17,9.8-18.2,11
			c-2.3,1-3.4,2.1-3.4,3.3c-0.1,2.1,1.3,4,4.2,5.7c2.8,1.7,5.4,2.6,7.6,2.7c4.3,0.1,10.6-1.8,18.9-5.8c2.4,1.9,3.6,4.4,3.6,7.6
			c-0.1,2.5-0.9,4.8-2.5,6.8c-1.6,2.1-3.7,3.3-6.2,3.6c-8.4,1.1-13.8,1.6-16,1.6c-4.5-0.1-8.4-1-11.9-2.7
			C164.4,434,156.6,417.1,156.6,390.7L156.6,390.7z M177.8,401.3c11.7-0.2,18.9-4.2,21.6-11.9c0.6-1,0.8-2.1,0.9-3.1
			c0.1-2.8-1.3-5-4.2-6.8c-2.8-1.8-6-2.7-9.6-2.8c-2.6-0.1-4.9,0.4-6.7,1.4c-3.9,1.9-5.9,6-6,12.3
			C173.6,397.3,175,400.9,177.8,401.3L177.8,401.3z M304.8,454.2c-1.1-0.8-2.2-2.3-3.3-4.5c-1-1.9-2-2.8-2.9-2.8
			c-6.9-1.4-13.9-2.7-21-4.1c-7.7-2.2-13.1-6.1-16.2-11.8c-2-2.8-3-6.5-2.9-11.1c0.2-6.7,1.9-12.2,5.3-16.4
			c8.1-10.4,19.8-15.5,35-15.1c6.6,0.2,9.7,0.4,9.4,0.8c1.1-1.5,1.7-3.7,1.7-6.6c0.1-3.3-0.9-5.3-2.8-5.8c-2-0.5-3.9-0.8-5.9-0.8
			c-3.4-0.1-7.2,0.6-11.4,2.1c-4.2,1.5-8.2,2.9-12.2,4.2c-0.7,0.2-1.3,0.4-1.8,0.3c-2.1-0.1-3.8-1.6-5-4.7c-1-2.4-1.5-5-1.4-7.7
			c0-1.7,0.3-2.7,0.7-3.1c8.8-5.7,18.7-8.4,29.5-8.1c11.4,0.3,19,4.5,22.7,12.8c2,4.5,2.9,9.4,2.8,14.6c-0.1,4.3-1.1,10.4-3,18.2
			c-2.2,8.6-3.5,14.9-4,18.8c-0.9,9.8-1.7,16.5-2.5,20c-1.8,8-4.4,11.9-7.8,11.8C307,455.3,305.9,454.9,304.8,454.2L304.8,454.2z
			 M301.8,430.2c0.4-1.8,1.4-5.1,2.8-9.8c1.3-3.6,1.9-6.6,2-9c0.1-2.8-0.5-5.5-1.6-8.3c-6.7,1.3-13.4,2.5-20,3.6
			c-7.8,2-11.8,6.5-12.2,13.5c-0.2,3,2.6,5.6,8.5,7.9c5.1,2.1,10.2,3.2,15.3,3.3C299.6,431.5,301.4,431.1,301.8,430.2L301.8,430.2z
			 M297.8,415.7c0,1.7-0.7,3.6-1.9,5.7c-1.2,2.1-2.5,3.1-3.8,3.1c-2.1-0.1-3.7-1-4.9-2.9c-1.2-1.9-1.6-3.6-1.3-5.2
			c0.6-2.7,2.9-4.1,6.8-4C296.1,412.5,297.9,413.6,297.8,415.7L297.8,415.7z M328.9,387c0.3-12.6,4.8-18.8,13.5-18.6
			c1.6,0,3.3,0.3,5.1,0.9c3.6,1.1,5.4,3.7,5.3,7.6c0,1.3-0.3,3.4-0.8,6.3c-0.5,2.9-0.8,5-0.8,6.3c-0.1,2.6,0.4,4.7,1.4,6.3
			c2.7-2.3,5.6-6.3,8.8-12c3.7-6.5,6.4-10.7,8.2-12.6c3.2-3.9,7-5.7,11.2-5.6c2.1,0.1,4.4,0.6,6.8,1.7l3.8,3.8
			c0.5,2.1,0.9,6,1.3,11.6c0.4,4.7,1.1,8.4,2.1,11.1c4.6-4.9,9.1-9.7,13.6-14.6c5.9-5.2,11.5-7.8,16.7-7.7c2.5,0.1,5,0.6,7.4,1.6
			c1.9,1.4,3.1,3.6,3.4,6.8c0.1,2.6,0.1,5.3,0.2,8.1c1.2,10.7,1.7,20.2,1.4,28.6c-0.4,15.1-3.1,28.7-8.1,40.8c-1.3,4-4.7,6-10.2,5.9
			c-3-0.1-5.9-0.9-8.6-2.6c-0.5,0-0.9-0.7-1.1-2.2c-0.2-1.7-0.1-3.2,0.3-4.5c4.2-10.5,6.5-22.3,6.8-35.3c0.2-7.3-0.3-15.1-1.4-23.3
			c0-0.9-0.2-1.4-0.8-1.4c-1.6,0-3,1-4.2,3.2c-7,10.7-13.5,23.9-19.5,39.5c-1,1.9-2.8,3.7-5.5,5.2c-2.7,1.5-5.4,2.2-8,2.2
			c-3.1-0.1-5.4-1.4-6.8-4c-1.4-2.6-2-5.7-1.9-9.2c0.1-2.4,0.5-6.1,1.5-11.2c0.9-5.1,1.4-9,1.5-11.6c0.1-3.3-0.3-6.2-1.2-8.9
			c-2.2,3.6-5.7,10.5-10.6,20.6c-4,8.6-7.7,15.2-10.9,19.8c-2.2,2.8-5.4,4.2-9.6,4.1c-4.3-0.1-7.1-1.7-8.2-4.8
			c-1.2-3.1-1.9-6.9-2.2-11.4c-0.2-3.3-0.1-7.5,0.1-12.6c0.5-7.7,0.7-12.1,0.7-13c0-1.7-0.1-4.2-0.3-7.6
			C328.9,391,328.8,388.5,328.9,387L328.9,387z M464.5,426.2c-10.6-6.4-15.7-16.3-15.4-29.7c0.1-3.4,0.6-6.7,1.6-10
			c1.3-4.2,3.6-8.5,6.8-13c3.8-5,5.9-8,6.3-8.9c2.1-4.4,5.6-6.6,10.6-6.4c5.9,0.1,11,2.7,15.2,7.7c4.2,5,7.3,11.5,9.3,19.7
			c0.7,3,1,6,1,8.9c-0.3,10.2-5.4,20.4-15.5,30.5c-2.4,2.4-6.1,3.6-11.1,3.5C469.8,428.3,466.9,427.6,464.5,426.2L464.5,426.2z
			 M471.3,406.9c1,0.3,2,0.4,2.9,0.5c5.9,0.1,8.9-3.4,9.1-10.6c0.2-6.2-2-11.9-6.5-17.1c-0.4-0.3-0.8-0.4-1.4-0.4
			c-2.1-0.1-4.7,1.9-7.9,6c-3.2,4.1-4.8,8.1-4.9,12C462.6,402.2,465.5,405.4,471.3,406.9L471.3,406.9z M465.4,439.6
			c1.9,1.5,2.8,4.3,2.7,8.5c-0.1,4.7-1.6,7.8-4.6,9.3c-1.5,0.9-3,1.3-4.6,1.3c-2.4-0.1-4.4-1.2-6-3.4c-1.7-2.2-2.6-4.7-3-7.5
			c-0.3-3.4,0.6-6,2.8-7.8c1.7-1.5,4-2.3,6.8-2.2C461.9,438,463.8,438.5,465.4,439.6L465.4,439.6z M491.1,440.6
			c1.7,1.3,2.6,4,2.5,8.2c-0.1,4.7-1.6,7.8-4.6,9.3c-1.5,0.9-3,1.3-4.6,1.3c-2.4-0.1-4.3-1.2-5.9-3.4c-1.6-2.2-2.5-4.7-2.9-7.5
			c-0.3-3.3,0.5-5.9,2.6-7.8c1.7-1.5,4-2.3,6.7-2.2C487.3,438.6,489.3,439.3,491.1,440.6L491.1,440.6z"/>
	</g>
</g>
</svg>
