<?xml version="1.0" encoding="utf-8"?>
<!-- Generator: Adobe Illustrator 24.3.0, SVG Export Plug-In . SVG Version: 6.00 Build 0)  -->
<svg version="1.1" id="Layer_1" xmlns="http://www.w3.org/2000/svg" xmlns:xlink="http://www.w3.org/1999/xlink" x="0px" y="0px"
	 viewBox="0 0 100 100" style="enable-background:new 0 0 100 100;" xml:space="preserve">
<style type="text/css">
	.st0{clip-path:url(#SVGID_2_);fill:url(#SVGID_3_);}
	.st1{clip-path:url(#SVGID_5_);fill:url(#SVGID_6_);}
</style>
<g>
	<defs>
		<path id="SVGID_1_" d="M100,47.4C99.3,20.8,77.8,0,51,0C24.7,0,3.2,20.4,2,46.5C2,47.2,2,47.9,2,48.6c0,8.6,2.3,17.1,6.7,24.5
			l0.1,0.6L0,99.4c-0.1,0.3,0.2,0.7,0.6,0.6l26.7-8.5l0.5,0.1c7.1,3.8,15.1,5.8,23.1,5.8c27,0,49-21.8,49-48.6
			C100,48.3,100,47.4,100,47.4 M17.9,70.5c-4.4-6.5-6.7-14-6.7-21.9c0-1.3,0.1-2.5,0.2-3.8c2-20.3,19-35.7,39.6-35.7
			c20.6,0,38.1,16,39.7,36.4c0.1,1.2,0.1,2.2,0.1,3.1c0,21.8-17.9,39.5-39.8,39.5c-5.9,0-11.6-1.3-16.8-3.7
			c-1.5-0.7-4.2-2.3-5.1-2.9l-0.6-0.1L15,85.7c-0.3,0.1-0.6-0.2-0.5-0.5l4.3-12.8l-0.1-0.7C18.5,71.4,18.1,70.8,17.9,70.5z"/>
	</defs>
	<clipPath id="SVGID_2_">
		<use xlink:href="#SVGID_1_"  style="overflow:visible;"/>
	</clipPath>
	<linearGradient id="SVGID_3_" gradientUnits="userSpaceOnUse" x1="26.7413" y1="-16.5679" x2="73.7848" y2="118.3544">
		<stop  offset="0" style="stop-color:#A48C6B"/>
		<stop  offset="1" style="stop-color:#6F5437"/>
	</linearGradient>
	<rect x="-0.1" class="st0" width="100.1" height="100.1"/>
</g>
<g>
	<defs>
		<path id="SVGID_4_" d="M74.3,59.5c-0.3-0.5-2.4-1.5-2.4-1.5c-0.8-0.4-7-3.4-8.1-3.8c-1-0.4-2.1-0.8-3.1,0.7
			c-0.8,1.1-3,3.7-3.7,4.6c-0.5,0.6-1,0.8-2.1,0.2c-0.2-0.1-5.7-2.4-9.4-5.8c-3.3-3-5.7-6.6-6.5-8c-0.5-0.9-0.2-1.3,0.5-1.9
			c0.4-0.4,2.1-2.5,2.3-2.7c0.3-0.4,0.8-1.4,0.8-1.4c0.5-1,0.2-1.8-0.1-2.4c-0.2-0.4-3.3-8-3.6-8.7c-0.9-2.1-1.9-2.3-2.8-2.2
			c-0.4,0-4.6,0.1-5.9,1.5l-0.2,0.2c-1.3,1.4-4,4.2-4,9.8c0,1.3,0.2,2.6,0.6,4.1c0.8,2.7,2.3,5.6,4.3,8.3c0,0.1,3.1,4.3,4.6,6
			C40,62,45.5,66.1,51,68.2c7,2.7,10,3.4,11.7,3.4c0.7,0,2.3-0.4,2.7-0.4c2.1-0.2,7.2-2.8,8.3-5.8C74.6,62.5,74.7,60.1,74.3,59.5"/>
	</defs>
	<clipPath id="SVGID_5_">
		<use xlink:href="#SVGID_4_"  style="overflow:visible;"/>
	</clipPath>
	<linearGradient id="SVGID_6_" gradientUnits="userSpaceOnUse" x1="40.3406" y1="18.4703" x2="60.2773" y2="80.379">
		<stop  offset="0" style="stop-color:#A48C6B"/>
		<stop  offset="1" style="stop-color:#6F5437"/>
	</linearGradient>
	<rect x="25.7" y="26.4" class="st1" width="49" height="45.2"/>
</g>
</svg>
