<?xml version="1.0" encoding="utf-8"?>
<!-- Generator: Adobe Illustrator 24.3.0, SVG Export Plug-In . SVG Version: 6.00 Build 0)  -->
<svg version="1.1" id="Layer_1" xmlns="http://www.w3.org/2000/svg" xmlns:xlink="http://www.w3.org/1999/xlink" x="0px" y="0px"
	 viewBox="0 0 100 100" style="enable-background:new 0 0 100 100;" xml:space="preserve">
<style type="text/css">
	.st0{fill-rule:evenodd;clip-rule:evenodd;fill:#A48C6B;}
</style>
<g>
	<path class="st0" d="M47.4,5.7c11.3-1.2,21.3,3.4,27.5,8.9c5.9,5.2,11.5,12.6,12.7,24.2c1.2,11-3.1,21.7-8.4,27.8
		c-7.8,9.2-15,9.5-16,11.9c-1.3,3,1.3,4.7,4.2,3.7c4-1.4,8.7-5,11.4-7.1c10.3-7.9,16.7-25,14-39.8c-7-38.7-55.8-47-76.7-18.1
		C1.1,38,6.8,66.4,29.1,79.8c11.1,6.7,10-1,7.9-2.4c-1.8-1.2-4.3-2-6.2-3.3c-2.2-1.4-3.3-2.5-5.1-3.9c-5.6-4.5-11.3-14-12.2-24.7
		C11.9,25.9,26.5,7.9,47.4,5.7"/>
	<path class="st0" d="M53.8,50.6c8.9-4.3,5.6-16.5-3.6-16.2C43,34.7,37.7,45,47.5,50.7l-3.2,36c-7.9,0.1-11.5-0.5-9.9,9.6
		c0.8,4.9,8.1,3.5,16.1,3.5c7.8,0,15.3,1.4,16.1-3.5c1.6-9.9-1.7-9.5-9.8-9.6L53.8,50.6z"/>
	<path class="st0" d="M46.3,17.7c27.5-4.8,41.1,31.9,18.1,46.5c-4.6,2.9-2.2,6.7,1.1,5.9c1.9-0.5,6.4-4.4,7.4-5.5
		C80,57.3,83.4,46.8,81,36C74.5,6.4,33.9,3.3,22.3,29.8C11.9,53.5,33.8,73.2,38.4,69.6c3.5-2.8-1.9-5.5-3.5-6.8
		C18.6,50.9,23.2,21.7,46.3,17.7"/>
	<path class="st0" d="M47.8,29.4c8-1.8,14.4,3.7,16.1,9.6c1.1,3.8,0.5,7.9-1.5,10.9c-0.8,1.3-2.4,2.6-1.7,4.7c1.2,3.7,6.9,2.1,9-7.8
		c2.1-10.4-4.5-21.3-15.8-23.2C38.4,21,25.4,37.3,33.4,51.9c0.6,1.1,2.2,3.6,2.9,4c1.9,1,3.9,0,4.3-1.7c0.5-2.3-3-5.2-3.6-9.3
		C35.9,36.5,41.4,30.9,47.8,29.4"/>
</g>
</svg>
